%TF.GenerationSoftware,KiCad,Pcbnew,7.0.10*%
%TF.CreationDate,2024-01-22T19:43:49-08:00*%
%TF.ProjectId,Relay_LCD k7,52656c61-795f-44c4-9344-206b372e6b69,rev?*%
%TF.SameCoordinates,Original*%
%TF.FileFunction,Legend,Bot*%
%TF.FilePolarity,Positive*%
%FSLAX46Y46*%
G04 Gerber Fmt 4.6, Leading zero omitted, Abs format (unit mm)*
G04 Created by KiCad (PCBNEW 7.0.10) date 2024-01-22 19:43:49*
%MOMM*%
%LPD*%
G01*
G04 APERTURE LIST*
%ADD10C,0.200000*%
%ADD11C,0.250000*%
%ADD12C,0.150000*%
%ADD13C,0.120000*%
G04 APERTURE END LIST*
D10*
X90788601Y-116075000D02*
X91225000Y-116075000D01*
X91225000Y-116488547D01*
X90788601Y-116488547D01*
X90788601Y-116075000D01*
G36*
X90788601Y-116075000D02*
G01*
X91225000Y-116075000D01*
X91225000Y-116488547D01*
X90788601Y-116488547D01*
X90788601Y-116075000D01*
G37*
X112750000Y-116000000D02*
X113186399Y-116000000D01*
X113186399Y-116413547D01*
X112750000Y-116413547D01*
X112750000Y-116000000D01*
G36*
X112750000Y-116000000D02*
G01*
X113186399Y-116000000D01*
X113186399Y-116413547D01*
X112750000Y-116413547D01*
X112750000Y-116000000D01*
G37*
X102208332Y-92431504D02*
X101827380Y-93764838D01*
X101827380Y-93764838D02*
X101446427Y-92812457D01*
X101446427Y-92812457D02*
X101065475Y-93764838D01*
X101065475Y-93764838D02*
X100684523Y-92431504D01*
X100113094Y-92431504D02*
X99732142Y-93764838D01*
X99732142Y-93764838D02*
X99351189Y-92812457D01*
X99351189Y-92812457D02*
X98970237Y-93764838D01*
X98970237Y-93764838D02*
X98589285Y-92431504D01*
X98017856Y-92431504D02*
X97636904Y-93764838D01*
X97636904Y-93764838D02*
X97255951Y-92812457D01*
X97255951Y-92812457D02*
X96874999Y-93764838D01*
X96874999Y-93764838D02*
X96494047Y-92431504D01*
X95732142Y-93574361D02*
X95636904Y-93669600D01*
X95636904Y-93669600D02*
X95732142Y-93764838D01*
X95732142Y-93764838D02*
X95827380Y-93669600D01*
X95827380Y-93669600D02*
X95732142Y-93574361D01*
X95732142Y-93574361D02*
X95732142Y-93764838D01*
D11*
X94514285Y-92644619D02*
X92609523Y-92644619D01*
X94895237Y-93787476D02*
X93561904Y-89787476D01*
X93561904Y-89787476D02*
X92228570Y-93787476D01*
X90895238Y-93787476D02*
X90895238Y-89787476D01*
X87276190Y-89787476D02*
X88038095Y-89787476D01*
X88038095Y-89787476D02*
X88419047Y-89977952D01*
X88419047Y-89977952D02*
X88609523Y-90168428D01*
X88609523Y-90168428D02*
X88990476Y-90739857D01*
X88990476Y-90739857D02*
X89180952Y-91501761D01*
X89180952Y-91501761D02*
X89180952Y-93025571D01*
X89180952Y-93025571D02*
X88990476Y-93406523D01*
X88990476Y-93406523D02*
X88799999Y-93597000D01*
X88799999Y-93597000D02*
X88419047Y-93787476D01*
X88419047Y-93787476D02*
X87657142Y-93787476D01*
X87657142Y-93787476D02*
X87276190Y-93597000D01*
X87276190Y-93597000D02*
X87085714Y-93406523D01*
X87085714Y-93406523D02*
X86895237Y-93025571D01*
X86895237Y-93025571D02*
X86895237Y-92073190D01*
X86895237Y-92073190D02*
X87085714Y-91692238D01*
X87085714Y-91692238D02*
X87276190Y-91501761D01*
X87276190Y-91501761D02*
X87657142Y-91311285D01*
X87657142Y-91311285D02*
X88419047Y-91311285D01*
X88419047Y-91311285D02*
X88799999Y-91501761D01*
X88799999Y-91501761D02*
X88990476Y-91692238D01*
X88990476Y-91692238D02*
X89180952Y-92073190D01*
X85561904Y-89787476D02*
X82895237Y-93787476D01*
X82895237Y-89787476D02*
X85561904Y-93787476D01*
X79276189Y-89977952D02*
X79657142Y-89787476D01*
X79657142Y-89787476D02*
X80228570Y-89787476D01*
X80228570Y-89787476D02*
X80799999Y-89977952D01*
X80799999Y-89977952D02*
X81180951Y-90358904D01*
X81180951Y-90358904D02*
X81371428Y-90739857D01*
X81371428Y-90739857D02*
X81561904Y-91501761D01*
X81561904Y-91501761D02*
X81561904Y-92073190D01*
X81561904Y-92073190D02*
X81371428Y-92835095D01*
X81371428Y-92835095D02*
X81180951Y-93216047D01*
X81180951Y-93216047D02*
X80799999Y-93597000D01*
X80799999Y-93597000D02*
X80228570Y-93787476D01*
X80228570Y-93787476D02*
X79847618Y-93787476D01*
X79847618Y-93787476D02*
X79276189Y-93597000D01*
X79276189Y-93597000D02*
X79085713Y-93406523D01*
X79085713Y-93406523D02*
X79085713Y-92073190D01*
X79085713Y-92073190D02*
X79847618Y-92073190D01*
D10*
X78345238Y-93524361D02*
X78250000Y-93619600D01*
X78250000Y-93619600D02*
X78345238Y-93714838D01*
X78345238Y-93714838D02*
X78440476Y-93619600D01*
X78440476Y-93619600D02*
X78345238Y-93524361D01*
X78345238Y-93524361D02*
X78345238Y-93714838D01*
X76535714Y-93619600D02*
X76726190Y-93714838D01*
X76726190Y-93714838D02*
X77107143Y-93714838D01*
X77107143Y-93714838D02*
X77297619Y-93619600D01*
X77297619Y-93619600D02*
X77392857Y-93524361D01*
X77392857Y-93524361D02*
X77488095Y-93333885D01*
X77488095Y-93333885D02*
X77488095Y-92762457D01*
X77488095Y-92762457D02*
X77392857Y-92571980D01*
X77392857Y-92571980D02*
X77297619Y-92476742D01*
X77297619Y-92476742D02*
X77107143Y-92381504D01*
X77107143Y-92381504D02*
X76726190Y-92381504D01*
X76726190Y-92381504D02*
X76535714Y-92476742D01*
X75392857Y-93714838D02*
X75583333Y-93619600D01*
X75583333Y-93619600D02*
X75678571Y-93524361D01*
X75678571Y-93524361D02*
X75773809Y-93333885D01*
X75773809Y-93333885D02*
X75773809Y-92762457D01*
X75773809Y-92762457D02*
X75678571Y-92571980D01*
X75678571Y-92571980D02*
X75583333Y-92476742D01*
X75583333Y-92476742D02*
X75392857Y-92381504D01*
X75392857Y-92381504D02*
X75107142Y-92381504D01*
X75107142Y-92381504D02*
X74916666Y-92476742D01*
X74916666Y-92476742D02*
X74821428Y-92571980D01*
X74821428Y-92571980D02*
X74726190Y-92762457D01*
X74726190Y-92762457D02*
X74726190Y-93333885D01*
X74726190Y-93333885D02*
X74821428Y-93524361D01*
X74821428Y-93524361D02*
X74916666Y-93619600D01*
X74916666Y-93619600D02*
X75107142Y-93714838D01*
X75107142Y-93714838D02*
X75392857Y-93714838D01*
X73869047Y-93714838D02*
X73869047Y-92381504D01*
X73869047Y-92571980D02*
X73773809Y-92476742D01*
X73773809Y-92476742D02*
X73583333Y-92381504D01*
X73583333Y-92381504D02*
X73297618Y-92381504D01*
X73297618Y-92381504D02*
X73107142Y-92476742D01*
X73107142Y-92476742D02*
X73011904Y-92667219D01*
X73011904Y-92667219D02*
X73011904Y-93714838D01*
X73011904Y-92667219D02*
X72916666Y-92476742D01*
X72916666Y-92476742D02*
X72726190Y-92381504D01*
X72726190Y-92381504D02*
X72440476Y-92381504D01*
X72440476Y-92381504D02*
X72249999Y-92476742D01*
X72249999Y-92476742D02*
X72154761Y-92667219D01*
X72154761Y-92667219D02*
X72154761Y-93714838D01*
D12*
X117874819Y-116908333D02*
X117398628Y-116575000D01*
X117874819Y-116336905D02*
X116874819Y-116336905D01*
X116874819Y-116336905D02*
X116874819Y-116717857D01*
X116874819Y-116717857D02*
X116922438Y-116813095D01*
X116922438Y-116813095D02*
X116970057Y-116860714D01*
X116970057Y-116860714D02*
X117065295Y-116908333D01*
X117065295Y-116908333D02*
X117208152Y-116908333D01*
X117208152Y-116908333D02*
X117303390Y-116860714D01*
X117303390Y-116860714D02*
X117351009Y-116813095D01*
X117351009Y-116813095D02*
X117398628Y-116717857D01*
X117398628Y-116717857D02*
X117398628Y-116336905D01*
X117874819Y-117384524D02*
X117874819Y-117575000D01*
X117874819Y-117575000D02*
X117827200Y-117670238D01*
X117827200Y-117670238D02*
X117779580Y-117717857D01*
X117779580Y-117717857D02*
X117636723Y-117813095D01*
X117636723Y-117813095D02*
X117446247Y-117860714D01*
X117446247Y-117860714D02*
X117065295Y-117860714D01*
X117065295Y-117860714D02*
X116970057Y-117813095D01*
X116970057Y-117813095D02*
X116922438Y-117765476D01*
X116922438Y-117765476D02*
X116874819Y-117670238D01*
X116874819Y-117670238D02*
X116874819Y-117479762D01*
X116874819Y-117479762D02*
X116922438Y-117384524D01*
X116922438Y-117384524D02*
X116970057Y-117336905D01*
X116970057Y-117336905D02*
X117065295Y-117289286D01*
X117065295Y-117289286D02*
X117303390Y-117289286D01*
X117303390Y-117289286D02*
X117398628Y-117336905D01*
X117398628Y-117336905D02*
X117446247Y-117384524D01*
X117446247Y-117384524D02*
X117493866Y-117479762D01*
X117493866Y-117479762D02*
X117493866Y-117670238D01*
X117493866Y-117670238D02*
X117446247Y-117765476D01*
X117446247Y-117765476D02*
X117398628Y-117813095D01*
X117398628Y-117813095D02*
X117303390Y-117860714D01*
X86154166Y-120334580D02*
X86201785Y-120382200D01*
X86201785Y-120382200D02*
X86344642Y-120429819D01*
X86344642Y-120429819D02*
X86439880Y-120429819D01*
X86439880Y-120429819D02*
X86582737Y-120382200D01*
X86582737Y-120382200D02*
X86677975Y-120286961D01*
X86677975Y-120286961D02*
X86725594Y-120191723D01*
X86725594Y-120191723D02*
X86773213Y-120001247D01*
X86773213Y-120001247D02*
X86773213Y-119858390D01*
X86773213Y-119858390D02*
X86725594Y-119667914D01*
X86725594Y-119667914D02*
X86677975Y-119572676D01*
X86677975Y-119572676D02*
X86582737Y-119477438D01*
X86582737Y-119477438D02*
X86439880Y-119429819D01*
X86439880Y-119429819D02*
X86344642Y-119429819D01*
X86344642Y-119429819D02*
X86201785Y-119477438D01*
X86201785Y-119477438D02*
X86154166Y-119525057D01*
X85297023Y-119429819D02*
X85487499Y-119429819D01*
X85487499Y-119429819D02*
X85582737Y-119477438D01*
X85582737Y-119477438D02*
X85630356Y-119525057D01*
X85630356Y-119525057D02*
X85725594Y-119667914D01*
X85725594Y-119667914D02*
X85773213Y-119858390D01*
X85773213Y-119858390D02*
X85773213Y-120239342D01*
X85773213Y-120239342D02*
X85725594Y-120334580D01*
X85725594Y-120334580D02*
X85677975Y-120382200D01*
X85677975Y-120382200D02*
X85582737Y-120429819D01*
X85582737Y-120429819D02*
X85392261Y-120429819D01*
X85392261Y-120429819D02*
X85297023Y-120382200D01*
X85297023Y-120382200D02*
X85249404Y-120334580D01*
X85249404Y-120334580D02*
X85201785Y-120239342D01*
X85201785Y-120239342D02*
X85201785Y-120001247D01*
X85201785Y-120001247D02*
X85249404Y-119906009D01*
X85249404Y-119906009D02*
X85297023Y-119858390D01*
X85297023Y-119858390D02*
X85392261Y-119810771D01*
X85392261Y-119810771D02*
X85582737Y-119810771D01*
X85582737Y-119810771D02*
X85677975Y-119858390D01*
X85677975Y-119858390D02*
X85725594Y-119906009D01*
X85725594Y-119906009D02*
X85773213Y-120001247D01*
X95566666Y-118509580D02*
X95614285Y-118557200D01*
X95614285Y-118557200D02*
X95757142Y-118604819D01*
X95757142Y-118604819D02*
X95852380Y-118604819D01*
X95852380Y-118604819D02*
X95995237Y-118557200D01*
X95995237Y-118557200D02*
X96090475Y-118461961D01*
X96090475Y-118461961D02*
X96138094Y-118366723D01*
X96138094Y-118366723D02*
X96185713Y-118176247D01*
X96185713Y-118176247D02*
X96185713Y-118033390D01*
X96185713Y-118033390D02*
X96138094Y-117842914D01*
X96138094Y-117842914D02*
X96090475Y-117747676D01*
X96090475Y-117747676D02*
X95995237Y-117652438D01*
X95995237Y-117652438D02*
X95852380Y-117604819D01*
X95852380Y-117604819D02*
X95757142Y-117604819D01*
X95757142Y-117604819D02*
X95614285Y-117652438D01*
X95614285Y-117652438D02*
X95566666Y-117700057D01*
X95233332Y-117604819D02*
X94566666Y-117604819D01*
X94566666Y-117604819D02*
X94995237Y-118604819D01*
X95659580Y-110733333D02*
X95707200Y-110685714D01*
X95707200Y-110685714D02*
X95754819Y-110542857D01*
X95754819Y-110542857D02*
X95754819Y-110447619D01*
X95754819Y-110447619D02*
X95707200Y-110304762D01*
X95707200Y-110304762D02*
X95611961Y-110209524D01*
X95611961Y-110209524D02*
X95516723Y-110161905D01*
X95516723Y-110161905D02*
X95326247Y-110114286D01*
X95326247Y-110114286D02*
X95183390Y-110114286D01*
X95183390Y-110114286D02*
X94992914Y-110161905D01*
X94992914Y-110161905D02*
X94897676Y-110209524D01*
X94897676Y-110209524D02*
X94802438Y-110304762D01*
X94802438Y-110304762D02*
X94754819Y-110447619D01*
X94754819Y-110447619D02*
X94754819Y-110542857D01*
X94754819Y-110542857D02*
X94802438Y-110685714D01*
X94802438Y-110685714D02*
X94850057Y-110733333D01*
X95754819Y-111685714D02*
X95754819Y-111114286D01*
X95754819Y-111400000D02*
X94754819Y-111400000D01*
X94754819Y-111400000D02*
X94897676Y-111304762D01*
X94897676Y-111304762D02*
X94992914Y-111209524D01*
X94992914Y-111209524D02*
X95040533Y-111114286D01*
X117909580Y-108408333D02*
X117957200Y-108360714D01*
X117957200Y-108360714D02*
X118004819Y-108217857D01*
X118004819Y-108217857D02*
X118004819Y-108122619D01*
X118004819Y-108122619D02*
X117957200Y-107979762D01*
X117957200Y-107979762D02*
X117861961Y-107884524D01*
X117861961Y-107884524D02*
X117766723Y-107836905D01*
X117766723Y-107836905D02*
X117576247Y-107789286D01*
X117576247Y-107789286D02*
X117433390Y-107789286D01*
X117433390Y-107789286D02*
X117242914Y-107836905D01*
X117242914Y-107836905D02*
X117147676Y-107884524D01*
X117147676Y-107884524D02*
X117052438Y-107979762D01*
X117052438Y-107979762D02*
X117004819Y-108122619D01*
X117004819Y-108122619D02*
X117004819Y-108217857D01*
X117004819Y-108217857D02*
X117052438Y-108360714D01*
X117052438Y-108360714D02*
X117100057Y-108408333D01*
X117004819Y-108741667D02*
X117004819Y-109360714D01*
X117004819Y-109360714D02*
X117385771Y-109027381D01*
X117385771Y-109027381D02*
X117385771Y-109170238D01*
X117385771Y-109170238D02*
X117433390Y-109265476D01*
X117433390Y-109265476D02*
X117481009Y-109313095D01*
X117481009Y-109313095D02*
X117576247Y-109360714D01*
X117576247Y-109360714D02*
X117814342Y-109360714D01*
X117814342Y-109360714D02*
X117909580Y-109313095D01*
X117909580Y-109313095D02*
X117957200Y-109265476D01*
X117957200Y-109265476D02*
X118004819Y-109170238D01*
X118004819Y-109170238D02*
X118004819Y-108884524D01*
X118004819Y-108884524D02*
X117957200Y-108789286D01*
X117957200Y-108789286D02*
X117909580Y-108741667D01*
X77404819Y-109863095D02*
X78214342Y-109863095D01*
X78214342Y-109863095D02*
X78309580Y-109910714D01*
X78309580Y-109910714D02*
X78357200Y-109958333D01*
X78357200Y-109958333D02*
X78404819Y-110053571D01*
X78404819Y-110053571D02*
X78404819Y-110244047D01*
X78404819Y-110244047D02*
X78357200Y-110339285D01*
X78357200Y-110339285D02*
X78309580Y-110386904D01*
X78309580Y-110386904D02*
X78214342Y-110434523D01*
X78214342Y-110434523D02*
X77404819Y-110434523D01*
X78404819Y-111434523D02*
X78404819Y-110863095D01*
X78404819Y-111148809D02*
X77404819Y-111148809D01*
X77404819Y-111148809D02*
X77547676Y-111053571D01*
X77547676Y-111053571D02*
X77642914Y-110958333D01*
X77642914Y-110958333D02*
X77690533Y-110863095D01*
X98754819Y-109882369D02*
X99564342Y-109882369D01*
X99564342Y-109882369D02*
X99659580Y-109929988D01*
X99659580Y-109929988D02*
X99707200Y-109977607D01*
X99707200Y-109977607D02*
X99754819Y-110072845D01*
X99754819Y-110072845D02*
X99754819Y-110263321D01*
X99754819Y-110263321D02*
X99707200Y-110358559D01*
X99707200Y-110358559D02*
X99659580Y-110406178D01*
X99659580Y-110406178D02*
X99564342Y-110453797D01*
X99564342Y-110453797D02*
X98754819Y-110453797D01*
X98850057Y-110882369D02*
X98802438Y-110929988D01*
X98802438Y-110929988D02*
X98754819Y-111025226D01*
X98754819Y-111025226D02*
X98754819Y-111263321D01*
X98754819Y-111263321D02*
X98802438Y-111358559D01*
X98802438Y-111358559D02*
X98850057Y-111406178D01*
X98850057Y-111406178D02*
X98945295Y-111453797D01*
X98945295Y-111453797D02*
X99040533Y-111453797D01*
X99040533Y-111453797D02*
X99183390Y-111406178D01*
X99183390Y-111406178D02*
X99754819Y-110834750D01*
X99754819Y-110834750D02*
X99754819Y-111453797D01*
D13*
%TO.C,R9*%
X114690000Y-117802064D02*
X114690000Y-116347936D01*
X116510000Y-117802064D02*
X116510000Y-116347936D01*
%TO.C,C6*%
X90361252Y-120935000D02*
X88938748Y-120935000D01*
X90361252Y-119115000D02*
X88938748Y-119115000D01*
%TO.C,C7*%
X96111252Y-120910000D02*
X94688748Y-120910000D01*
X96111252Y-119090000D02*
X94688748Y-119090000D01*
%TO.C,C1*%
X92540000Y-110076248D02*
X92540000Y-111498752D01*
X94360000Y-110076248D02*
X94360000Y-111498752D01*
%TO.C,C3*%
X114690000Y-107801248D02*
X114690000Y-109223752D01*
X116510000Y-107801248D02*
X116510000Y-109223752D01*
%TO.C,U1*%
X91695000Y-110669274D02*
X91695000Y-108019274D01*
X91695000Y-110669274D02*
X91695000Y-115119274D01*
X78875000Y-110669274D02*
X78875000Y-108019274D01*
X78875000Y-110669274D02*
X78875000Y-113319274D01*
%TO.C,U2*%
X113541399Y-110644274D02*
X113541399Y-107994274D01*
X113541399Y-110644274D02*
X113541399Y-115094274D01*
X100721399Y-110644274D02*
X100721399Y-107994274D01*
X100721399Y-110644274D02*
X100721399Y-113294274D01*
%TD*%
M02*
