%TF.GenerationSoftware,KiCad,Pcbnew,7.0.10*%
%TF.CreationDate,2024-01-22T19:43:49-08:00*%
%TF.ProjectId,Relay_LCD k7,52656c61-795f-44c4-9344-206b372e6b69,rev?*%
%TF.SameCoordinates,Original*%
%TF.FileFunction,Legend,Top*%
%TF.FilePolarity,Positive*%
%FSLAX46Y46*%
G04 Gerber Fmt 4.6, Leading zero omitted, Abs format (unit mm)*
G04 Created by KiCad (PCBNEW 7.0.10) date 2024-01-22 19:43:49*
%MOMM*%
%LPD*%
G01*
G04 APERTURE LIST*
%ADD10C,0.500000*%
%ADD11C,0.150000*%
%ADD12C,0.300000*%
%ADD13C,0.254000*%
%ADD14C,0.120000*%
%ADD15C,0.100000*%
%ADD16C,0.127000*%
%ADD17C,0.340000*%
%ADD18C,0.200000*%
G04 APERTURE END LIST*
D10*
X57700000Y-101400000D02*
G75*
G03*
X57200000Y-101400000I-250000J0D01*
G01*
X57200000Y-101400000D02*
G75*
G03*
X57700000Y-101400000I250000J0D01*
G01*
X75400000Y-97100000D02*
G75*
G03*
X74900000Y-97100000I-250000J0D01*
G01*
X74900000Y-97100000D02*
G75*
G03*
X75400000Y-97100000I250000J0D01*
G01*
X101637666Y-82662334D02*
G75*
G03*
X101137666Y-82662334I-250000J0D01*
G01*
X101137666Y-82662334D02*
G75*
G03*
X101637666Y-82662334I250000J0D01*
G01*
D11*
X56504819Y-105092856D02*
X55504819Y-105092856D01*
X56409580Y-104045238D02*
X56457200Y-104092857D01*
X56457200Y-104092857D02*
X56504819Y-104235714D01*
X56504819Y-104235714D02*
X56504819Y-104330952D01*
X56504819Y-104330952D02*
X56457200Y-104473809D01*
X56457200Y-104473809D02*
X56361961Y-104569047D01*
X56361961Y-104569047D02*
X56266723Y-104616666D01*
X56266723Y-104616666D02*
X56076247Y-104664285D01*
X56076247Y-104664285D02*
X55933390Y-104664285D01*
X55933390Y-104664285D02*
X55742914Y-104616666D01*
X55742914Y-104616666D02*
X55647676Y-104569047D01*
X55647676Y-104569047D02*
X55552438Y-104473809D01*
X55552438Y-104473809D02*
X55504819Y-104330952D01*
X55504819Y-104330952D02*
X55504819Y-104235714D01*
X55504819Y-104235714D02*
X55552438Y-104092857D01*
X55552438Y-104092857D02*
X55600057Y-104045238D01*
X56457200Y-103664285D02*
X56504819Y-103521428D01*
X56504819Y-103521428D02*
X56504819Y-103283333D01*
X56504819Y-103283333D02*
X56457200Y-103188095D01*
X56457200Y-103188095D02*
X56409580Y-103140476D01*
X56409580Y-103140476D02*
X56314342Y-103092857D01*
X56314342Y-103092857D02*
X56219104Y-103092857D01*
X56219104Y-103092857D02*
X56123866Y-103140476D01*
X56123866Y-103140476D02*
X56076247Y-103188095D01*
X56076247Y-103188095D02*
X56028628Y-103283333D01*
X56028628Y-103283333D02*
X55981009Y-103473809D01*
X55981009Y-103473809D02*
X55933390Y-103569047D01*
X55933390Y-103569047D02*
X55885771Y-103616666D01*
X55885771Y-103616666D02*
X55790533Y-103664285D01*
X55790533Y-103664285D02*
X55695295Y-103664285D01*
X55695295Y-103664285D02*
X55600057Y-103616666D01*
X55600057Y-103616666D02*
X55552438Y-103569047D01*
X55552438Y-103569047D02*
X55504819Y-103473809D01*
X55504819Y-103473809D02*
X55504819Y-103235714D01*
X55504819Y-103235714D02*
X55552438Y-103092857D01*
X56504819Y-102664285D02*
X55504819Y-102664285D01*
X55504819Y-102664285D02*
X55504819Y-102283333D01*
X55504819Y-102283333D02*
X55552438Y-102188095D01*
X55552438Y-102188095D02*
X55600057Y-102140476D01*
X55600057Y-102140476D02*
X55695295Y-102092857D01*
X55695295Y-102092857D02*
X55838152Y-102092857D01*
X55838152Y-102092857D02*
X55933390Y-102140476D01*
X55933390Y-102140476D02*
X55981009Y-102188095D01*
X55981009Y-102188095D02*
X56028628Y-102283333D01*
X56028628Y-102283333D02*
X56028628Y-102664285D01*
X56504819Y-100378571D02*
X56504819Y-100949999D01*
X56504819Y-100664285D02*
X55504819Y-100664285D01*
X55504819Y-100664285D02*
X55647676Y-100759523D01*
X55647676Y-100759523D02*
X55742914Y-100854761D01*
X55742914Y-100854761D02*
X55790533Y-100949999D01*
X55600057Y-99997618D02*
X55552438Y-99949999D01*
X55552438Y-99949999D02*
X55504819Y-99854761D01*
X55504819Y-99854761D02*
X55504819Y-99616666D01*
X55504819Y-99616666D02*
X55552438Y-99521428D01*
X55552438Y-99521428D02*
X55600057Y-99473809D01*
X55600057Y-99473809D02*
X55695295Y-99426190D01*
X55695295Y-99426190D02*
X55790533Y-99426190D01*
X55790533Y-99426190D02*
X55933390Y-99473809D01*
X55933390Y-99473809D02*
X56504819Y-100045237D01*
X56504819Y-100045237D02*
X56504819Y-99426190D01*
X56504819Y-98521428D02*
X56504819Y-98997618D01*
X56504819Y-98997618D02*
X55504819Y-98997618D01*
X55981009Y-97854761D02*
X55981009Y-98188094D01*
X56504819Y-98188094D02*
X55504819Y-98188094D01*
X55504819Y-98188094D02*
X55504819Y-97711904D01*
D12*
X79461653Y-95125828D02*
X79818796Y-96125828D01*
X79818796Y-96125828D02*
X80175939Y-95125828D01*
X81533082Y-96125828D02*
X80675939Y-96125828D01*
X81104510Y-96125828D02*
X81104510Y-94625828D01*
X81104510Y-94625828D02*
X80961653Y-94840114D01*
X80961653Y-94840114D02*
X80818796Y-94982971D01*
X80818796Y-94982971D02*
X80675939Y-95054400D01*
X82175938Y-95982971D02*
X82247367Y-96054400D01*
X82247367Y-96054400D02*
X82175938Y-96125828D01*
X82175938Y-96125828D02*
X82104510Y-96054400D01*
X82104510Y-96054400D02*
X82175938Y-95982971D01*
X82175938Y-95982971D02*
X82175938Y-96125828D01*
X83175939Y-94625828D02*
X83318796Y-94625828D01*
X83318796Y-94625828D02*
X83461653Y-94697257D01*
X83461653Y-94697257D02*
X83533082Y-94768685D01*
X83533082Y-94768685D02*
X83604510Y-94911542D01*
X83604510Y-94911542D02*
X83675939Y-95197257D01*
X83675939Y-95197257D02*
X83675939Y-95554400D01*
X83675939Y-95554400D02*
X83604510Y-95840114D01*
X83604510Y-95840114D02*
X83533082Y-95982971D01*
X83533082Y-95982971D02*
X83461653Y-96054400D01*
X83461653Y-96054400D02*
X83318796Y-96125828D01*
X83318796Y-96125828D02*
X83175939Y-96125828D01*
X83175939Y-96125828D02*
X83033082Y-96054400D01*
X83033082Y-96054400D02*
X82961653Y-95982971D01*
X82961653Y-95982971D02*
X82890224Y-95840114D01*
X82890224Y-95840114D02*
X82818796Y-95554400D01*
X82818796Y-95554400D02*
X82818796Y-95197257D01*
X82818796Y-95197257D02*
X82890224Y-94911542D01*
X82890224Y-94911542D02*
X82961653Y-94768685D01*
X82961653Y-94768685D02*
X83033082Y-94697257D01*
X83033082Y-94697257D02*
X83175939Y-94625828D01*
X80318796Y-93486328D02*
X79604510Y-93486328D01*
X79604510Y-93486328D02*
X79604510Y-91986328D01*
X81675939Y-93343471D02*
X81604511Y-93414900D01*
X81604511Y-93414900D02*
X81390225Y-93486328D01*
X81390225Y-93486328D02*
X81247368Y-93486328D01*
X81247368Y-93486328D02*
X81033082Y-93414900D01*
X81033082Y-93414900D02*
X80890225Y-93272042D01*
X80890225Y-93272042D02*
X80818796Y-93129185D01*
X80818796Y-93129185D02*
X80747368Y-92843471D01*
X80747368Y-92843471D02*
X80747368Y-92629185D01*
X80747368Y-92629185D02*
X80818796Y-92343471D01*
X80818796Y-92343471D02*
X80890225Y-92200614D01*
X80890225Y-92200614D02*
X81033082Y-92057757D01*
X81033082Y-92057757D02*
X81247368Y-91986328D01*
X81247368Y-91986328D02*
X81390225Y-91986328D01*
X81390225Y-91986328D02*
X81604511Y-92057757D01*
X81604511Y-92057757D02*
X81675939Y-92129185D01*
X82318796Y-93486328D02*
X82318796Y-91986328D01*
X82318796Y-91986328D02*
X82675939Y-91986328D01*
X82675939Y-91986328D02*
X82890225Y-92057757D01*
X82890225Y-92057757D02*
X83033082Y-92200614D01*
X83033082Y-92200614D02*
X83104511Y-92343471D01*
X83104511Y-92343471D02*
X83175939Y-92629185D01*
X83175939Y-92629185D02*
X83175939Y-92843471D01*
X83175939Y-92843471D02*
X83104511Y-93129185D01*
X83104511Y-93129185D02*
X83033082Y-93272042D01*
X83033082Y-93272042D02*
X82890225Y-93414900D01*
X82890225Y-93414900D02*
X82675939Y-93486328D01*
X82675939Y-93486328D02*
X82318796Y-93486328D01*
X85675939Y-93486328D02*
X84961653Y-93486328D01*
X84961653Y-93486328D02*
X84961653Y-91986328D01*
X86818797Y-93486328D02*
X86818797Y-92700614D01*
X86818797Y-92700614D02*
X86747368Y-92557757D01*
X86747368Y-92557757D02*
X86604511Y-92486328D01*
X86604511Y-92486328D02*
X86318797Y-92486328D01*
X86318797Y-92486328D02*
X86175939Y-92557757D01*
X86818797Y-93414900D02*
X86675939Y-93486328D01*
X86675939Y-93486328D02*
X86318797Y-93486328D01*
X86318797Y-93486328D02*
X86175939Y-93414900D01*
X86175939Y-93414900D02*
X86104511Y-93272042D01*
X86104511Y-93272042D02*
X86104511Y-93129185D01*
X86104511Y-93129185D02*
X86175939Y-92986328D01*
X86175939Y-92986328D02*
X86318797Y-92914900D01*
X86318797Y-92914900D02*
X86675939Y-92914900D01*
X86675939Y-92914900D02*
X86818797Y-92843471D01*
X87318797Y-92486328D02*
X87890225Y-92486328D01*
X87533082Y-91986328D02*
X87533082Y-93272042D01*
X87533082Y-93272042D02*
X87604511Y-93414900D01*
X87604511Y-93414900D02*
X87747368Y-93486328D01*
X87747368Y-93486328D02*
X87890225Y-93486328D01*
X89033083Y-93414900D02*
X88890225Y-93486328D01*
X88890225Y-93486328D02*
X88604511Y-93486328D01*
X88604511Y-93486328D02*
X88461654Y-93414900D01*
X88461654Y-93414900D02*
X88390225Y-93343471D01*
X88390225Y-93343471D02*
X88318797Y-93200614D01*
X88318797Y-93200614D02*
X88318797Y-92772042D01*
X88318797Y-92772042D02*
X88390225Y-92629185D01*
X88390225Y-92629185D02*
X88461654Y-92557757D01*
X88461654Y-92557757D02*
X88604511Y-92486328D01*
X88604511Y-92486328D02*
X88890225Y-92486328D01*
X88890225Y-92486328D02*
X89033083Y-92557757D01*
X89675939Y-93486328D02*
X89675939Y-91986328D01*
X90318797Y-93486328D02*
X90318797Y-92700614D01*
X90318797Y-92700614D02*
X90247368Y-92557757D01*
X90247368Y-92557757D02*
X90104511Y-92486328D01*
X90104511Y-92486328D02*
X89890225Y-92486328D01*
X89890225Y-92486328D02*
X89747368Y-92557757D01*
X89747368Y-92557757D02*
X89675939Y-92629185D01*
X91033082Y-93486328D02*
X91033082Y-92486328D01*
X91033082Y-91986328D02*
X90961654Y-92057757D01*
X90961654Y-92057757D02*
X91033082Y-92129185D01*
X91033082Y-92129185D02*
X91104511Y-92057757D01*
X91104511Y-92057757D02*
X91033082Y-91986328D01*
X91033082Y-91986328D02*
X91033082Y-92129185D01*
X91747368Y-92486328D02*
X91747368Y-93486328D01*
X91747368Y-92629185D02*
X91818797Y-92557757D01*
X91818797Y-92557757D02*
X91961654Y-92486328D01*
X91961654Y-92486328D02*
X92175940Y-92486328D01*
X92175940Y-92486328D02*
X92318797Y-92557757D01*
X92318797Y-92557757D02*
X92390226Y-92700614D01*
X92390226Y-92700614D02*
X92390226Y-93486328D01*
X93747369Y-92486328D02*
X93747369Y-93700614D01*
X93747369Y-93700614D02*
X93675940Y-93843471D01*
X93675940Y-93843471D02*
X93604511Y-93914900D01*
X93604511Y-93914900D02*
X93461654Y-93986328D01*
X93461654Y-93986328D02*
X93247369Y-93986328D01*
X93247369Y-93986328D02*
X93104511Y-93914900D01*
X93747369Y-93414900D02*
X93604511Y-93486328D01*
X93604511Y-93486328D02*
X93318797Y-93486328D01*
X93318797Y-93486328D02*
X93175940Y-93414900D01*
X93175940Y-93414900D02*
X93104511Y-93343471D01*
X93104511Y-93343471D02*
X93033083Y-93200614D01*
X93033083Y-93200614D02*
X93033083Y-92772042D01*
X93033083Y-92772042D02*
X93104511Y-92629185D01*
X93104511Y-92629185D02*
X93175940Y-92557757D01*
X93175940Y-92557757D02*
X93318797Y-92486328D01*
X93318797Y-92486328D02*
X93604511Y-92486328D01*
X93604511Y-92486328D02*
X93747369Y-92557757D01*
X96461654Y-93486328D02*
X95961654Y-92772042D01*
X95604511Y-93486328D02*
X95604511Y-91986328D01*
X95604511Y-91986328D02*
X96175940Y-91986328D01*
X96175940Y-91986328D02*
X96318797Y-92057757D01*
X96318797Y-92057757D02*
X96390226Y-92129185D01*
X96390226Y-92129185D02*
X96461654Y-92272042D01*
X96461654Y-92272042D02*
X96461654Y-92486328D01*
X96461654Y-92486328D02*
X96390226Y-92629185D01*
X96390226Y-92629185D02*
X96318797Y-92700614D01*
X96318797Y-92700614D02*
X96175940Y-92772042D01*
X96175940Y-92772042D02*
X95604511Y-92772042D01*
X97675940Y-93414900D02*
X97533083Y-93486328D01*
X97533083Y-93486328D02*
X97247369Y-93486328D01*
X97247369Y-93486328D02*
X97104511Y-93414900D01*
X97104511Y-93414900D02*
X97033083Y-93272042D01*
X97033083Y-93272042D02*
X97033083Y-92700614D01*
X97033083Y-92700614D02*
X97104511Y-92557757D01*
X97104511Y-92557757D02*
X97247369Y-92486328D01*
X97247369Y-92486328D02*
X97533083Y-92486328D01*
X97533083Y-92486328D02*
X97675940Y-92557757D01*
X97675940Y-92557757D02*
X97747369Y-92700614D01*
X97747369Y-92700614D02*
X97747369Y-92843471D01*
X97747369Y-92843471D02*
X97033083Y-92986328D01*
X98604511Y-93486328D02*
X98461654Y-93414900D01*
X98461654Y-93414900D02*
X98390225Y-93272042D01*
X98390225Y-93272042D02*
X98390225Y-91986328D01*
X99818797Y-93486328D02*
X99818797Y-92700614D01*
X99818797Y-92700614D02*
X99747368Y-92557757D01*
X99747368Y-92557757D02*
X99604511Y-92486328D01*
X99604511Y-92486328D02*
X99318797Y-92486328D01*
X99318797Y-92486328D02*
X99175939Y-92557757D01*
X99818797Y-93414900D02*
X99675939Y-93486328D01*
X99675939Y-93486328D02*
X99318797Y-93486328D01*
X99318797Y-93486328D02*
X99175939Y-93414900D01*
X99175939Y-93414900D02*
X99104511Y-93272042D01*
X99104511Y-93272042D02*
X99104511Y-93129185D01*
X99104511Y-93129185D02*
X99175939Y-92986328D01*
X99175939Y-92986328D02*
X99318797Y-92914900D01*
X99318797Y-92914900D02*
X99675939Y-92914900D01*
X99675939Y-92914900D02*
X99818797Y-92843471D01*
X100390225Y-92486328D02*
X100747368Y-93486328D01*
X101104511Y-92486328D02*
X100747368Y-93486328D01*
X100747368Y-93486328D02*
X100604511Y-93843471D01*
X100604511Y-93843471D02*
X100533082Y-93914900D01*
X100533082Y-93914900D02*
X100390225Y-93986328D01*
X101604511Y-93414900D02*
X101747368Y-93486328D01*
X101747368Y-93486328D02*
X102033082Y-93486328D01*
X102033082Y-93486328D02*
X102175939Y-93414900D01*
X102175939Y-93414900D02*
X102247368Y-93272042D01*
X102247368Y-93272042D02*
X102247368Y-93200614D01*
X102247368Y-93200614D02*
X102175939Y-93057757D01*
X102175939Y-93057757D02*
X102033082Y-92986328D01*
X102033082Y-92986328D02*
X101818797Y-92986328D01*
X101818797Y-92986328D02*
X101675939Y-92914900D01*
X101675939Y-92914900D02*
X101604511Y-92772042D01*
X101604511Y-92772042D02*
X101604511Y-92700614D01*
X101604511Y-92700614D02*
X101675939Y-92557757D01*
X101675939Y-92557757D02*
X101818797Y-92486328D01*
X101818797Y-92486328D02*
X102033082Y-92486328D01*
X102033082Y-92486328D02*
X102175939Y-92557757D01*
D11*
X116475000Y-75225000D02*
X115175000Y-72675000D01*
X117850000Y-72650000D01*
X116475000Y-75225000D01*
G36*
X116475000Y-75225000D02*
G01*
X115175000Y-72675000D01*
X117850000Y-72650000D01*
X116475000Y-75225000D01*
G37*
X108598810Y-74204819D02*
X108598810Y-73204819D01*
X109646428Y-74109580D02*
X109598809Y-74157200D01*
X109598809Y-74157200D02*
X109455952Y-74204819D01*
X109455952Y-74204819D02*
X109360714Y-74204819D01*
X109360714Y-74204819D02*
X109217857Y-74157200D01*
X109217857Y-74157200D02*
X109122619Y-74061961D01*
X109122619Y-74061961D02*
X109075000Y-73966723D01*
X109075000Y-73966723D02*
X109027381Y-73776247D01*
X109027381Y-73776247D02*
X109027381Y-73633390D01*
X109027381Y-73633390D02*
X109075000Y-73442914D01*
X109075000Y-73442914D02*
X109122619Y-73347676D01*
X109122619Y-73347676D02*
X109217857Y-73252438D01*
X109217857Y-73252438D02*
X109360714Y-73204819D01*
X109360714Y-73204819D02*
X109455952Y-73204819D01*
X109455952Y-73204819D02*
X109598809Y-73252438D01*
X109598809Y-73252438D02*
X109646428Y-73300057D01*
X110027381Y-74157200D02*
X110170238Y-74204819D01*
X110170238Y-74204819D02*
X110408333Y-74204819D01*
X110408333Y-74204819D02*
X110503571Y-74157200D01*
X110503571Y-74157200D02*
X110551190Y-74109580D01*
X110551190Y-74109580D02*
X110598809Y-74014342D01*
X110598809Y-74014342D02*
X110598809Y-73919104D01*
X110598809Y-73919104D02*
X110551190Y-73823866D01*
X110551190Y-73823866D02*
X110503571Y-73776247D01*
X110503571Y-73776247D02*
X110408333Y-73728628D01*
X110408333Y-73728628D02*
X110217857Y-73681009D01*
X110217857Y-73681009D02*
X110122619Y-73633390D01*
X110122619Y-73633390D02*
X110075000Y-73585771D01*
X110075000Y-73585771D02*
X110027381Y-73490533D01*
X110027381Y-73490533D02*
X110027381Y-73395295D01*
X110027381Y-73395295D02*
X110075000Y-73300057D01*
X110075000Y-73300057D02*
X110122619Y-73252438D01*
X110122619Y-73252438D02*
X110217857Y-73204819D01*
X110217857Y-73204819D02*
X110455952Y-73204819D01*
X110455952Y-73204819D02*
X110598809Y-73252438D01*
X111027381Y-74204819D02*
X111027381Y-73204819D01*
X111027381Y-73204819D02*
X111408333Y-73204819D01*
X111408333Y-73204819D02*
X111503571Y-73252438D01*
X111503571Y-73252438D02*
X111551190Y-73300057D01*
X111551190Y-73300057D02*
X111598809Y-73395295D01*
X111598809Y-73395295D02*
X111598809Y-73538152D01*
X111598809Y-73538152D02*
X111551190Y-73633390D01*
X111551190Y-73633390D02*
X111503571Y-73681009D01*
X111503571Y-73681009D02*
X111408333Y-73728628D01*
X111408333Y-73728628D02*
X111027381Y-73728628D01*
X57825000Y-93175000D02*
X55275000Y-94475000D01*
X55250000Y-91800000D01*
X57825000Y-93175000D01*
G36*
X57825000Y-93175000D02*
G01*
X55275000Y-94475000D01*
X55250000Y-91800000D01*
X57825000Y-93175000D01*
G37*
D12*
X108407143Y-79549757D02*
X109121429Y-79549757D01*
X108264286Y-79978328D02*
X108764286Y-78478328D01*
X108764286Y-78478328D02*
X109264286Y-79978328D01*
X109764285Y-79978328D02*
X109764285Y-78478328D01*
X111121429Y-78478328D02*
X110835714Y-78478328D01*
X110835714Y-78478328D02*
X110692857Y-78549757D01*
X110692857Y-78549757D02*
X110621429Y-78621185D01*
X110621429Y-78621185D02*
X110478571Y-78835471D01*
X110478571Y-78835471D02*
X110407143Y-79121185D01*
X110407143Y-79121185D02*
X110407143Y-79692614D01*
X110407143Y-79692614D02*
X110478571Y-79835471D01*
X110478571Y-79835471D02*
X110550000Y-79906900D01*
X110550000Y-79906900D02*
X110692857Y-79978328D01*
X110692857Y-79978328D02*
X110978571Y-79978328D01*
X110978571Y-79978328D02*
X111121429Y-79906900D01*
X111121429Y-79906900D02*
X111192857Y-79835471D01*
X111192857Y-79835471D02*
X111264286Y-79692614D01*
X111264286Y-79692614D02*
X111264286Y-79335471D01*
X111264286Y-79335471D02*
X111192857Y-79192614D01*
X111192857Y-79192614D02*
X111121429Y-79121185D01*
X111121429Y-79121185D02*
X110978571Y-79049757D01*
X110978571Y-79049757D02*
X110692857Y-79049757D01*
X110692857Y-79049757D02*
X110550000Y-79121185D01*
X110550000Y-79121185D02*
X110478571Y-79192614D01*
X110478571Y-79192614D02*
X110407143Y-79335471D01*
X111764285Y-78478328D02*
X112764285Y-79978328D01*
X112764285Y-78478328D02*
X111764285Y-79978328D01*
X114121428Y-78549757D02*
X113978571Y-78478328D01*
X113978571Y-78478328D02*
X113764285Y-78478328D01*
X113764285Y-78478328D02*
X113549999Y-78549757D01*
X113549999Y-78549757D02*
X113407142Y-78692614D01*
X113407142Y-78692614D02*
X113335713Y-78835471D01*
X113335713Y-78835471D02*
X113264285Y-79121185D01*
X113264285Y-79121185D02*
X113264285Y-79335471D01*
X113264285Y-79335471D02*
X113335713Y-79621185D01*
X113335713Y-79621185D02*
X113407142Y-79764042D01*
X113407142Y-79764042D02*
X113549999Y-79906900D01*
X113549999Y-79906900D02*
X113764285Y-79978328D01*
X113764285Y-79978328D02*
X113907142Y-79978328D01*
X113907142Y-79978328D02*
X114121428Y-79906900D01*
X114121428Y-79906900D02*
X114192856Y-79835471D01*
X114192856Y-79835471D02*
X114192856Y-79335471D01*
X114192856Y-79335471D02*
X113907142Y-79335471D01*
X84964286Y-90656900D02*
X85178572Y-90728328D01*
X85178572Y-90728328D02*
X85535714Y-90728328D01*
X85535714Y-90728328D02*
X85678572Y-90656900D01*
X85678572Y-90656900D02*
X85750000Y-90585471D01*
X85750000Y-90585471D02*
X85821429Y-90442614D01*
X85821429Y-90442614D02*
X85821429Y-90299757D01*
X85821429Y-90299757D02*
X85750000Y-90156900D01*
X85750000Y-90156900D02*
X85678572Y-90085471D01*
X85678572Y-90085471D02*
X85535714Y-90014042D01*
X85535714Y-90014042D02*
X85250000Y-89942614D01*
X85250000Y-89942614D02*
X85107143Y-89871185D01*
X85107143Y-89871185D02*
X85035714Y-89799757D01*
X85035714Y-89799757D02*
X84964286Y-89656900D01*
X84964286Y-89656900D02*
X84964286Y-89514042D01*
X84964286Y-89514042D02*
X85035714Y-89371185D01*
X85035714Y-89371185D02*
X85107143Y-89299757D01*
X85107143Y-89299757D02*
X85250000Y-89228328D01*
X85250000Y-89228328D02*
X85607143Y-89228328D01*
X85607143Y-89228328D02*
X85821429Y-89299757D01*
X86750000Y-89228328D02*
X87035714Y-89228328D01*
X87035714Y-89228328D02*
X87178571Y-89299757D01*
X87178571Y-89299757D02*
X87321428Y-89442614D01*
X87321428Y-89442614D02*
X87392857Y-89728328D01*
X87392857Y-89728328D02*
X87392857Y-90228328D01*
X87392857Y-90228328D02*
X87321428Y-90514042D01*
X87321428Y-90514042D02*
X87178571Y-90656900D01*
X87178571Y-90656900D02*
X87035714Y-90728328D01*
X87035714Y-90728328D02*
X86750000Y-90728328D01*
X86750000Y-90728328D02*
X86607143Y-90656900D01*
X86607143Y-90656900D02*
X86464285Y-90514042D01*
X86464285Y-90514042D02*
X86392857Y-90228328D01*
X86392857Y-90228328D02*
X86392857Y-89728328D01*
X86392857Y-89728328D02*
X86464285Y-89442614D01*
X86464285Y-89442614D02*
X86607143Y-89299757D01*
X86607143Y-89299757D02*
X86750000Y-89228328D01*
X87821429Y-89228328D02*
X88678572Y-89228328D01*
X88250000Y-90728328D02*
X88250000Y-89228328D01*
X89107143Y-90299757D02*
X89821429Y-90299757D01*
X88964286Y-90728328D02*
X89464286Y-89228328D01*
X89464286Y-89228328D02*
X89964286Y-90728328D01*
X91392857Y-89228328D02*
X92250000Y-89228328D01*
X91821428Y-90728328D02*
X91821428Y-89228328D01*
X92749999Y-90728328D02*
X92749999Y-89728328D01*
X92749999Y-90014042D02*
X92821428Y-89871185D01*
X92821428Y-89871185D02*
X92892857Y-89799757D01*
X92892857Y-89799757D02*
X93035714Y-89728328D01*
X93035714Y-89728328D02*
X93178571Y-89728328D01*
X93678570Y-90728328D02*
X93678570Y-89728328D01*
X93678570Y-89228328D02*
X93607142Y-89299757D01*
X93607142Y-89299757D02*
X93678570Y-89371185D01*
X93678570Y-89371185D02*
X93749999Y-89299757D01*
X93749999Y-89299757D02*
X93678570Y-89228328D01*
X93678570Y-89228328D02*
X93678570Y-89371185D01*
X94892856Y-89942614D02*
X95107142Y-90014042D01*
X95107142Y-90014042D02*
X95178571Y-90085471D01*
X95178571Y-90085471D02*
X95249999Y-90228328D01*
X95249999Y-90228328D02*
X95249999Y-90442614D01*
X95249999Y-90442614D02*
X95178571Y-90585471D01*
X95178571Y-90585471D02*
X95107142Y-90656900D01*
X95107142Y-90656900D02*
X94964285Y-90728328D01*
X94964285Y-90728328D02*
X94392856Y-90728328D01*
X94392856Y-90728328D02*
X94392856Y-89228328D01*
X94392856Y-89228328D02*
X94892856Y-89228328D01*
X94892856Y-89228328D02*
X95035714Y-89299757D01*
X95035714Y-89299757D02*
X95107142Y-89371185D01*
X95107142Y-89371185D02*
X95178571Y-89514042D01*
X95178571Y-89514042D02*
X95178571Y-89656900D01*
X95178571Y-89656900D02*
X95107142Y-89799757D01*
X95107142Y-89799757D02*
X95035714Y-89871185D01*
X95035714Y-89871185D02*
X94892856Y-89942614D01*
X94892856Y-89942614D02*
X94392856Y-89942614D01*
X96535714Y-90728328D02*
X96535714Y-89942614D01*
X96535714Y-89942614D02*
X96464285Y-89799757D01*
X96464285Y-89799757D02*
X96321428Y-89728328D01*
X96321428Y-89728328D02*
X96035714Y-89728328D01*
X96035714Y-89728328D02*
X95892856Y-89799757D01*
X96535714Y-90656900D02*
X96392856Y-90728328D01*
X96392856Y-90728328D02*
X96035714Y-90728328D01*
X96035714Y-90728328D02*
X95892856Y-90656900D01*
X95892856Y-90656900D02*
X95821428Y-90514042D01*
X95821428Y-90514042D02*
X95821428Y-90371185D01*
X95821428Y-90371185D02*
X95892856Y-90228328D01*
X95892856Y-90228328D02*
X96035714Y-90156900D01*
X96035714Y-90156900D02*
X96392856Y-90156900D01*
X96392856Y-90156900D02*
X96535714Y-90085471D01*
X97249999Y-89728328D02*
X97249999Y-90728328D01*
X97249999Y-89871185D02*
X97321428Y-89799757D01*
X97321428Y-89799757D02*
X97464285Y-89728328D01*
X97464285Y-89728328D02*
X97678571Y-89728328D01*
X97678571Y-89728328D02*
X97821428Y-89799757D01*
X97821428Y-89799757D02*
X97892857Y-89942614D01*
X97892857Y-89942614D02*
X97892857Y-90728328D01*
X99250000Y-90728328D02*
X99250000Y-89228328D01*
X99250000Y-90656900D02*
X99107142Y-90728328D01*
X99107142Y-90728328D02*
X98821428Y-90728328D01*
X98821428Y-90728328D02*
X98678571Y-90656900D01*
X98678571Y-90656900D02*
X98607142Y-90585471D01*
X98607142Y-90585471D02*
X98535714Y-90442614D01*
X98535714Y-90442614D02*
X98535714Y-90014042D01*
X98535714Y-90014042D02*
X98607142Y-89871185D01*
X98607142Y-89871185D02*
X98678571Y-89799757D01*
X98678571Y-89799757D02*
X98821428Y-89728328D01*
X98821428Y-89728328D02*
X99107142Y-89728328D01*
X99107142Y-89728328D02*
X99250000Y-89799757D01*
X100535714Y-90656900D02*
X100392857Y-90728328D01*
X100392857Y-90728328D02*
X100107143Y-90728328D01*
X100107143Y-90728328D02*
X99964285Y-90656900D01*
X99964285Y-90656900D02*
X99892857Y-90514042D01*
X99892857Y-90514042D02*
X99892857Y-89942614D01*
X99892857Y-89942614D02*
X99964285Y-89799757D01*
X99964285Y-89799757D02*
X100107143Y-89728328D01*
X100107143Y-89728328D02*
X100392857Y-89728328D01*
X100392857Y-89728328D02*
X100535714Y-89799757D01*
X100535714Y-89799757D02*
X100607143Y-89942614D01*
X100607143Y-89942614D02*
X100607143Y-90085471D01*
X100607143Y-90085471D02*
X99892857Y-90228328D01*
X101249999Y-90728328D02*
X101249999Y-89728328D01*
X101249999Y-90014042D02*
X101321428Y-89871185D01*
X101321428Y-89871185D02*
X101392857Y-89799757D01*
X101392857Y-89799757D02*
X101535714Y-89728328D01*
X101535714Y-89728328D02*
X101678571Y-89728328D01*
D11*
X113161666Y-73404819D02*
X113161666Y-74119104D01*
X113161666Y-74119104D02*
X113114047Y-74261961D01*
X113114047Y-74261961D02*
X113018809Y-74357200D01*
X113018809Y-74357200D02*
X112875952Y-74404819D01*
X112875952Y-74404819D02*
X112780714Y-74404819D01*
X113590238Y-73500057D02*
X113637857Y-73452438D01*
X113637857Y-73452438D02*
X113733095Y-73404819D01*
X113733095Y-73404819D02*
X113971190Y-73404819D01*
X113971190Y-73404819D02*
X114066428Y-73452438D01*
X114066428Y-73452438D02*
X114114047Y-73500057D01*
X114114047Y-73500057D02*
X114161666Y-73595295D01*
X114161666Y-73595295D02*
X114161666Y-73690533D01*
X114161666Y-73690533D02*
X114114047Y-73833390D01*
X114114047Y-73833390D02*
X113542619Y-74404819D01*
X113542619Y-74404819D02*
X114161666Y-74404819D01*
X61413095Y-123232200D02*
X61555952Y-123279819D01*
X61555952Y-123279819D02*
X61794047Y-123279819D01*
X61794047Y-123279819D02*
X61889285Y-123232200D01*
X61889285Y-123232200D02*
X61936904Y-123184580D01*
X61936904Y-123184580D02*
X61984523Y-123089342D01*
X61984523Y-123089342D02*
X61984523Y-122994104D01*
X61984523Y-122994104D02*
X61936904Y-122898866D01*
X61936904Y-122898866D02*
X61889285Y-122851247D01*
X61889285Y-122851247D02*
X61794047Y-122803628D01*
X61794047Y-122803628D02*
X61603571Y-122756009D01*
X61603571Y-122756009D02*
X61508333Y-122708390D01*
X61508333Y-122708390D02*
X61460714Y-122660771D01*
X61460714Y-122660771D02*
X61413095Y-122565533D01*
X61413095Y-122565533D02*
X61413095Y-122470295D01*
X61413095Y-122470295D02*
X61460714Y-122375057D01*
X61460714Y-122375057D02*
X61508333Y-122327438D01*
X61508333Y-122327438D02*
X61603571Y-122279819D01*
X61603571Y-122279819D02*
X61841666Y-122279819D01*
X61841666Y-122279819D02*
X61984523Y-122327438D01*
X62936904Y-123279819D02*
X62365476Y-123279819D01*
X62651190Y-123279819D02*
X62651190Y-122279819D01*
X62651190Y-122279819D02*
X62555952Y-122422676D01*
X62555952Y-122422676D02*
X62460714Y-122517914D01*
X62460714Y-122517914D02*
X62365476Y-122565533D01*
X71083333Y-114199819D02*
X70750000Y-113723628D01*
X70511905Y-114199819D02*
X70511905Y-113199819D01*
X70511905Y-113199819D02*
X70892857Y-113199819D01*
X70892857Y-113199819D02*
X70988095Y-113247438D01*
X70988095Y-113247438D02*
X71035714Y-113295057D01*
X71035714Y-113295057D02*
X71083333Y-113390295D01*
X71083333Y-113390295D02*
X71083333Y-113533152D01*
X71083333Y-113533152D02*
X71035714Y-113628390D01*
X71035714Y-113628390D02*
X70988095Y-113676009D01*
X70988095Y-113676009D02*
X70892857Y-113723628D01*
X70892857Y-113723628D02*
X70511905Y-113723628D01*
X71416667Y-113199819D02*
X72035714Y-113199819D01*
X72035714Y-113199819D02*
X71702381Y-113580771D01*
X71702381Y-113580771D02*
X71845238Y-113580771D01*
X71845238Y-113580771D02*
X71940476Y-113628390D01*
X71940476Y-113628390D02*
X71988095Y-113676009D01*
X71988095Y-113676009D02*
X72035714Y-113771247D01*
X72035714Y-113771247D02*
X72035714Y-114009342D01*
X72035714Y-114009342D02*
X71988095Y-114104580D01*
X71988095Y-114104580D02*
X71940476Y-114152200D01*
X71940476Y-114152200D02*
X71845238Y-114199819D01*
X71845238Y-114199819D02*
X71559524Y-114199819D01*
X71559524Y-114199819D02*
X71464286Y-114152200D01*
X71464286Y-114152200D02*
X71416667Y-114104580D01*
X111748221Y-93482071D02*
X111681484Y-93548808D01*
X111681484Y-93548808D02*
X111481275Y-93615544D01*
X111481275Y-93615544D02*
X111347802Y-93615544D01*
X111347802Y-93615544D02*
X111147593Y-93548808D01*
X111147593Y-93548808D02*
X111014120Y-93415335D01*
X111014120Y-93415335D02*
X110947384Y-93281862D01*
X110947384Y-93281862D02*
X110880647Y-93014916D01*
X110880647Y-93014916D02*
X110880647Y-92814707D01*
X110880647Y-92814707D02*
X110947384Y-92547761D01*
X110947384Y-92547761D02*
X111014120Y-92414288D01*
X111014120Y-92414288D02*
X111147593Y-92280815D01*
X111147593Y-92280815D02*
X111347802Y-92214079D01*
X111347802Y-92214079D02*
X111481275Y-92214079D01*
X111481275Y-92214079D02*
X111681484Y-92280815D01*
X111681484Y-92280815D02*
X111748221Y-92347552D01*
X112615794Y-92214079D02*
X112882740Y-92214079D01*
X112882740Y-92214079D02*
X113016213Y-92280815D01*
X113016213Y-92280815D02*
X113149686Y-92414288D01*
X113149686Y-92414288D02*
X113216422Y-92681234D01*
X113216422Y-92681234D02*
X113216422Y-93148389D01*
X113216422Y-93148389D02*
X113149686Y-93415335D01*
X113149686Y-93415335D02*
X113016213Y-93548808D01*
X113016213Y-93548808D02*
X112882740Y-93615544D01*
X112882740Y-93615544D02*
X112615794Y-93615544D01*
X112615794Y-93615544D02*
X112482322Y-93548808D01*
X112482322Y-93548808D02*
X112348849Y-93415335D01*
X112348849Y-93415335D02*
X112282112Y-93148389D01*
X112282112Y-93148389D02*
X112282112Y-92681234D01*
X112282112Y-92681234D02*
X112348849Y-92414288D01*
X112348849Y-92414288D02*
X112482322Y-92280815D01*
X112482322Y-92280815D02*
X112615794Y-92214079D01*
X113817050Y-93615544D02*
X113817050Y-92214079D01*
X113817050Y-92214079D02*
X114617887Y-93615544D01*
X114617887Y-93615544D02*
X114617887Y-92214079D01*
X116019351Y-93615544D02*
X115218514Y-93615544D01*
X115618933Y-93615544D02*
X115618933Y-92214079D01*
X115618933Y-92214079D02*
X115485460Y-92414288D01*
X115485460Y-92414288D02*
X115351987Y-92547761D01*
X115351987Y-92547761D02*
X115218514Y-92614498D01*
X51754819Y-87383333D02*
X52469104Y-87383333D01*
X52469104Y-87383333D02*
X52611961Y-87430952D01*
X52611961Y-87430952D02*
X52707200Y-87526190D01*
X52707200Y-87526190D02*
X52754819Y-87669047D01*
X52754819Y-87669047D02*
X52754819Y-87764285D01*
X51754819Y-87002380D02*
X51754819Y-86335714D01*
X51754819Y-86335714D02*
X52754819Y-86764285D01*
X103734580Y-62429166D02*
X103782200Y-62476785D01*
X103782200Y-62476785D02*
X103829819Y-62619642D01*
X103829819Y-62619642D02*
X103829819Y-62714880D01*
X103829819Y-62714880D02*
X103782200Y-62857737D01*
X103782200Y-62857737D02*
X103686961Y-62952975D01*
X103686961Y-62952975D02*
X103591723Y-63000594D01*
X103591723Y-63000594D02*
X103401247Y-63048213D01*
X103401247Y-63048213D02*
X103258390Y-63048213D01*
X103258390Y-63048213D02*
X103067914Y-63000594D01*
X103067914Y-63000594D02*
X102972676Y-62952975D01*
X102972676Y-62952975D02*
X102877438Y-62857737D01*
X102877438Y-62857737D02*
X102829819Y-62714880D01*
X102829819Y-62714880D02*
X102829819Y-62619642D01*
X102829819Y-62619642D02*
X102877438Y-62476785D01*
X102877438Y-62476785D02*
X102925057Y-62429166D01*
X102829819Y-61524404D02*
X102829819Y-62000594D01*
X102829819Y-62000594D02*
X103306009Y-62048213D01*
X103306009Y-62048213D02*
X103258390Y-62000594D01*
X103258390Y-62000594D02*
X103210771Y-61905356D01*
X103210771Y-61905356D02*
X103210771Y-61667261D01*
X103210771Y-61667261D02*
X103258390Y-61572023D01*
X103258390Y-61572023D02*
X103306009Y-61524404D01*
X103306009Y-61524404D02*
X103401247Y-61476785D01*
X103401247Y-61476785D02*
X103639342Y-61476785D01*
X103639342Y-61476785D02*
X103734580Y-61524404D01*
X103734580Y-61524404D02*
X103782200Y-61572023D01*
X103782200Y-61572023D02*
X103829819Y-61667261D01*
X103829819Y-61667261D02*
X103829819Y-61905356D01*
X103829819Y-61905356D02*
X103782200Y-62000594D01*
X103782200Y-62000594D02*
X103734580Y-62048213D01*
X52958333Y-114199819D02*
X52625000Y-113723628D01*
X52386905Y-114199819D02*
X52386905Y-113199819D01*
X52386905Y-113199819D02*
X52767857Y-113199819D01*
X52767857Y-113199819D02*
X52863095Y-113247438D01*
X52863095Y-113247438D02*
X52910714Y-113295057D01*
X52910714Y-113295057D02*
X52958333Y-113390295D01*
X52958333Y-113390295D02*
X52958333Y-113533152D01*
X52958333Y-113533152D02*
X52910714Y-113628390D01*
X52910714Y-113628390D02*
X52863095Y-113676009D01*
X52863095Y-113676009D02*
X52767857Y-113723628D01*
X52767857Y-113723628D02*
X52386905Y-113723628D01*
X53815476Y-113533152D02*
X53815476Y-114199819D01*
X53577381Y-113152200D02*
X53339286Y-113866485D01*
X53339286Y-113866485D02*
X53958333Y-113866485D01*
X85129819Y-54959523D02*
X85844104Y-54959523D01*
X85844104Y-54959523D02*
X85986961Y-55007142D01*
X85986961Y-55007142D02*
X86082200Y-55102380D01*
X86082200Y-55102380D02*
X86129819Y-55245237D01*
X86129819Y-55245237D02*
X86129819Y-55340475D01*
X86129819Y-53959523D02*
X86129819Y-54530951D01*
X86129819Y-54245237D02*
X85129819Y-54245237D01*
X85129819Y-54245237D02*
X85272676Y-54340475D01*
X85272676Y-54340475D02*
X85367914Y-54435713D01*
X85367914Y-54435713D02*
X85415533Y-54530951D01*
X85129819Y-53626189D02*
X85129819Y-53007142D01*
X85129819Y-53007142D02*
X85510771Y-53340475D01*
X85510771Y-53340475D02*
X85510771Y-53197618D01*
X85510771Y-53197618D02*
X85558390Y-53102380D01*
X85558390Y-53102380D02*
X85606009Y-53054761D01*
X85606009Y-53054761D02*
X85701247Y-53007142D01*
X85701247Y-53007142D02*
X85939342Y-53007142D01*
X85939342Y-53007142D02*
X86034580Y-53054761D01*
X86034580Y-53054761D02*
X86082200Y-53102380D01*
X86082200Y-53102380D02*
X86129819Y-53197618D01*
X86129819Y-53197618D02*
X86129819Y-53483332D01*
X86129819Y-53483332D02*
X86082200Y-53578570D01*
X86082200Y-53578570D02*
X86034580Y-53626189D01*
X74879819Y-135683333D02*
X75594104Y-135683333D01*
X75594104Y-135683333D02*
X75736961Y-135730952D01*
X75736961Y-135730952D02*
X75832200Y-135826190D01*
X75832200Y-135826190D02*
X75879819Y-135969047D01*
X75879819Y-135969047D02*
X75879819Y-136064285D01*
X75879819Y-134683333D02*
X75879819Y-135254761D01*
X75879819Y-134969047D02*
X74879819Y-134969047D01*
X74879819Y-134969047D02*
X75022676Y-135064285D01*
X75022676Y-135064285D02*
X75117914Y-135159523D01*
X75117914Y-135159523D02*
X75165533Y-135254761D01*
X57857142Y-64879819D02*
X57523809Y-64403628D01*
X57285714Y-64879819D02*
X57285714Y-63879819D01*
X57285714Y-63879819D02*
X57666666Y-63879819D01*
X57666666Y-63879819D02*
X57761904Y-63927438D01*
X57761904Y-63927438D02*
X57809523Y-63975057D01*
X57809523Y-63975057D02*
X57857142Y-64070295D01*
X57857142Y-64070295D02*
X57857142Y-64213152D01*
X57857142Y-64213152D02*
X57809523Y-64308390D01*
X57809523Y-64308390D02*
X57761904Y-64356009D01*
X57761904Y-64356009D02*
X57666666Y-64403628D01*
X57666666Y-64403628D02*
X57285714Y-64403628D01*
X58809523Y-64879819D02*
X58238095Y-64879819D01*
X58523809Y-64879819D02*
X58523809Y-63879819D01*
X58523809Y-63879819D02*
X58428571Y-64022676D01*
X58428571Y-64022676D02*
X58333333Y-64117914D01*
X58333333Y-64117914D02*
X58238095Y-64165533D01*
X59428571Y-63879819D02*
X59523809Y-63879819D01*
X59523809Y-63879819D02*
X59619047Y-63927438D01*
X59619047Y-63927438D02*
X59666666Y-63975057D01*
X59666666Y-63975057D02*
X59714285Y-64070295D01*
X59714285Y-64070295D02*
X59761904Y-64260771D01*
X59761904Y-64260771D02*
X59761904Y-64498866D01*
X59761904Y-64498866D02*
X59714285Y-64689342D01*
X59714285Y-64689342D02*
X59666666Y-64784580D01*
X59666666Y-64784580D02*
X59619047Y-64832200D01*
X59619047Y-64832200D02*
X59523809Y-64879819D01*
X59523809Y-64879819D02*
X59428571Y-64879819D01*
X59428571Y-64879819D02*
X59333333Y-64832200D01*
X59333333Y-64832200D02*
X59285714Y-64784580D01*
X59285714Y-64784580D02*
X59238095Y-64689342D01*
X59238095Y-64689342D02*
X59190476Y-64498866D01*
X59190476Y-64498866D02*
X59190476Y-64260771D01*
X59190476Y-64260771D02*
X59238095Y-64070295D01*
X59238095Y-64070295D02*
X59285714Y-63975057D01*
X59285714Y-63975057D02*
X59333333Y-63927438D01*
X59333333Y-63927438D02*
X59428571Y-63879819D01*
X65079761Y-90429819D02*
X64746428Y-89953628D01*
X64508333Y-90429819D02*
X64508333Y-89429819D01*
X64508333Y-89429819D02*
X64889285Y-89429819D01*
X64889285Y-89429819D02*
X64984523Y-89477438D01*
X64984523Y-89477438D02*
X65032142Y-89525057D01*
X65032142Y-89525057D02*
X65079761Y-89620295D01*
X65079761Y-89620295D02*
X65079761Y-89763152D01*
X65079761Y-89763152D02*
X65032142Y-89858390D01*
X65032142Y-89858390D02*
X64984523Y-89906009D01*
X64984523Y-89906009D02*
X64889285Y-89953628D01*
X64889285Y-89953628D02*
X64508333Y-89953628D01*
X65698809Y-89953628D02*
X65698809Y-90429819D01*
X65365476Y-89429819D02*
X65698809Y-89953628D01*
X65698809Y-89953628D02*
X66032142Y-89429819D01*
X66317857Y-89525057D02*
X66365476Y-89477438D01*
X66365476Y-89477438D02*
X66460714Y-89429819D01*
X66460714Y-89429819D02*
X66698809Y-89429819D01*
X66698809Y-89429819D02*
X66794047Y-89477438D01*
X66794047Y-89477438D02*
X66841666Y-89525057D01*
X66841666Y-89525057D02*
X66889285Y-89620295D01*
X66889285Y-89620295D02*
X66889285Y-89715533D01*
X66889285Y-89715533D02*
X66841666Y-89858390D01*
X66841666Y-89858390D02*
X66270238Y-90429819D01*
X66270238Y-90429819D02*
X66889285Y-90429819D01*
X93013095Y-85529819D02*
X93013095Y-86339342D01*
X93013095Y-86339342D02*
X93060714Y-86434580D01*
X93060714Y-86434580D02*
X93108333Y-86482200D01*
X93108333Y-86482200D02*
X93203571Y-86529819D01*
X93203571Y-86529819D02*
X93394047Y-86529819D01*
X93394047Y-86529819D02*
X93489285Y-86482200D01*
X93489285Y-86482200D02*
X93536904Y-86434580D01*
X93536904Y-86434580D02*
X93584523Y-86339342D01*
X93584523Y-86339342D02*
X93584523Y-85529819D01*
X94536904Y-85529819D02*
X94060714Y-85529819D01*
X94060714Y-85529819D02*
X94013095Y-86006009D01*
X94013095Y-86006009D02*
X94060714Y-85958390D01*
X94060714Y-85958390D02*
X94155952Y-85910771D01*
X94155952Y-85910771D02*
X94394047Y-85910771D01*
X94394047Y-85910771D02*
X94489285Y-85958390D01*
X94489285Y-85958390D02*
X94536904Y-86006009D01*
X94536904Y-86006009D02*
X94584523Y-86101247D01*
X94584523Y-86101247D02*
X94584523Y-86339342D01*
X94584523Y-86339342D02*
X94536904Y-86434580D01*
X94536904Y-86434580D02*
X94489285Y-86482200D01*
X94489285Y-86482200D02*
X94394047Y-86529819D01*
X94394047Y-86529819D02*
X94155952Y-86529819D01*
X94155952Y-86529819D02*
X94060714Y-86482200D01*
X94060714Y-86482200D02*
X94013095Y-86434580D01*
D13*
X62882380Y-104604318D02*
X62882380Y-105632413D01*
X62882380Y-105632413D02*
X62942857Y-105753365D01*
X62942857Y-105753365D02*
X63003333Y-105813842D01*
X63003333Y-105813842D02*
X63124285Y-105874318D01*
X63124285Y-105874318D02*
X63366190Y-105874318D01*
X63366190Y-105874318D02*
X63487142Y-105813842D01*
X63487142Y-105813842D02*
X63547619Y-105753365D01*
X63547619Y-105753365D02*
X63608095Y-105632413D01*
X63608095Y-105632413D02*
X63608095Y-104604318D01*
X64091904Y-104604318D02*
X64878095Y-104604318D01*
X64878095Y-104604318D02*
X64454761Y-105088127D01*
X64454761Y-105088127D02*
X64636190Y-105088127D01*
X64636190Y-105088127D02*
X64757142Y-105148603D01*
X64757142Y-105148603D02*
X64817618Y-105209080D01*
X64817618Y-105209080D02*
X64878095Y-105330032D01*
X64878095Y-105330032D02*
X64878095Y-105632413D01*
X64878095Y-105632413D02*
X64817618Y-105753365D01*
X64817618Y-105753365D02*
X64757142Y-105813842D01*
X64757142Y-105813842D02*
X64636190Y-105874318D01*
X64636190Y-105874318D02*
X64273333Y-105874318D01*
X64273333Y-105874318D02*
X64152380Y-105813842D01*
X64152380Y-105813842D02*
X64091904Y-105753365D01*
D11*
X88316667Y-130962295D02*
X88050000Y-130581342D01*
X87859524Y-130962295D02*
X87859524Y-130162295D01*
X87859524Y-130162295D02*
X88164286Y-130162295D01*
X88164286Y-130162295D02*
X88240476Y-130200390D01*
X88240476Y-130200390D02*
X88278571Y-130238485D01*
X88278571Y-130238485D02*
X88316667Y-130314676D01*
X88316667Y-130314676D02*
X88316667Y-130428961D01*
X88316667Y-130428961D02*
X88278571Y-130505152D01*
X88278571Y-130505152D02*
X88240476Y-130543247D01*
X88240476Y-130543247D02*
X88164286Y-130581342D01*
X88164286Y-130581342D02*
X87859524Y-130581342D01*
X88773809Y-130505152D02*
X88697619Y-130467057D01*
X88697619Y-130467057D02*
X88659524Y-130428961D01*
X88659524Y-130428961D02*
X88621428Y-130352771D01*
X88621428Y-130352771D02*
X88621428Y-130314676D01*
X88621428Y-130314676D02*
X88659524Y-130238485D01*
X88659524Y-130238485D02*
X88697619Y-130200390D01*
X88697619Y-130200390D02*
X88773809Y-130162295D01*
X88773809Y-130162295D02*
X88926190Y-130162295D01*
X88926190Y-130162295D02*
X89002381Y-130200390D01*
X89002381Y-130200390D02*
X89040476Y-130238485D01*
X89040476Y-130238485D02*
X89078571Y-130314676D01*
X89078571Y-130314676D02*
X89078571Y-130352771D01*
X89078571Y-130352771D02*
X89040476Y-130428961D01*
X89040476Y-130428961D02*
X89002381Y-130467057D01*
X89002381Y-130467057D02*
X88926190Y-130505152D01*
X88926190Y-130505152D02*
X88773809Y-130505152D01*
X88773809Y-130505152D02*
X88697619Y-130543247D01*
X88697619Y-130543247D02*
X88659524Y-130581342D01*
X88659524Y-130581342D02*
X88621428Y-130657533D01*
X88621428Y-130657533D02*
X88621428Y-130809914D01*
X88621428Y-130809914D02*
X88659524Y-130886104D01*
X88659524Y-130886104D02*
X88697619Y-130924200D01*
X88697619Y-130924200D02*
X88773809Y-130962295D01*
X88773809Y-130962295D02*
X88926190Y-130962295D01*
X88926190Y-130962295D02*
X89002381Y-130924200D01*
X89002381Y-130924200D02*
X89040476Y-130886104D01*
X89040476Y-130886104D02*
X89078571Y-130809914D01*
X89078571Y-130809914D02*
X89078571Y-130657533D01*
X89078571Y-130657533D02*
X89040476Y-130581342D01*
X89040476Y-130581342D02*
X89002381Y-130543247D01*
X89002381Y-130543247D02*
X88926190Y-130505152D01*
X66370833Y-99459580D02*
X66323214Y-99507200D01*
X66323214Y-99507200D02*
X66180357Y-99554819D01*
X66180357Y-99554819D02*
X66085119Y-99554819D01*
X66085119Y-99554819D02*
X65942262Y-99507200D01*
X65942262Y-99507200D02*
X65847024Y-99411961D01*
X65847024Y-99411961D02*
X65799405Y-99316723D01*
X65799405Y-99316723D02*
X65751786Y-99126247D01*
X65751786Y-99126247D02*
X65751786Y-98983390D01*
X65751786Y-98983390D02*
X65799405Y-98792914D01*
X65799405Y-98792914D02*
X65847024Y-98697676D01*
X65847024Y-98697676D02*
X65942262Y-98602438D01*
X65942262Y-98602438D02*
X66085119Y-98554819D01*
X66085119Y-98554819D02*
X66180357Y-98554819D01*
X66180357Y-98554819D02*
X66323214Y-98602438D01*
X66323214Y-98602438D02*
X66370833Y-98650057D01*
X66942262Y-98983390D02*
X66847024Y-98935771D01*
X66847024Y-98935771D02*
X66799405Y-98888152D01*
X66799405Y-98888152D02*
X66751786Y-98792914D01*
X66751786Y-98792914D02*
X66751786Y-98745295D01*
X66751786Y-98745295D02*
X66799405Y-98650057D01*
X66799405Y-98650057D02*
X66847024Y-98602438D01*
X66847024Y-98602438D02*
X66942262Y-98554819D01*
X66942262Y-98554819D02*
X67132738Y-98554819D01*
X67132738Y-98554819D02*
X67227976Y-98602438D01*
X67227976Y-98602438D02*
X67275595Y-98650057D01*
X67275595Y-98650057D02*
X67323214Y-98745295D01*
X67323214Y-98745295D02*
X67323214Y-98792914D01*
X67323214Y-98792914D02*
X67275595Y-98888152D01*
X67275595Y-98888152D02*
X67227976Y-98935771D01*
X67227976Y-98935771D02*
X67132738Y-98983390D01*
X67132738Y-98983390D02*
X66942262Y-98983390D01*
X66942262Y-98983390D02*
X66847024Y-99031009D01*
X66847024Y-99031009D02*
X66799405Y-99078628D01*
X66799405Y-99078628D02*
X66751786Y-99173866D01*
X66751786Y-99173866D02*
X66751786Y-99364342D01*
X66751786Y-99364342D02*
X66799405Y-99459580D01*
X66799405Y-99459580D02*
X66847024Y-99507200D01*
X66847024Y-99507200D02*
X66942262Y-99554819D01*
X66942262Y-99554819D02*
X67132738Y-99554819D01*
X67132738Y-99554819D02*
X67227976Y-99507200D01*
X67227976Y-99507200D02*
X67275595Y-99459580D01*
X67275595Y-99459580D02*
X67323214Y-99364342D01*
X67323214Y-99364342D02*
X67323214Y-99173866D01*
X67323214Y-99173866D02*
X67275595Y-99078628D01*
X67275595Y-99078628D02*
X67227976Y-99031009D01*
X67227976Y-99031009D02*
X67132738Y-98983390D01*
X52354761Y-120775057D02*
X52259523Y-120727438D01*
X52259523Y-120727438D02*
X52164285Y-120632200D01*
X52164285Y-120632200D02*
X52021428Y-120489342D01*
X52021428Y-120489342D02*
X51926190Y-120441723D01*
X51926190Y-120441723D02*
X51830952Y-120441723D01*
X51878571Y-120679819D02*
X51783333Y-120632200D01*
X51783333Y-120632200D02*
X51688095Y-120536961D01*
X51688095Y-120536961D02*
X51640476Y-120346485D01*
X51640476Y-120346485D02*
X51640476Y-120013152D01*
X51640476Y-120013152D02*
X51688095Y-119822676D01*
X51688095Y-119822676D02*
X51783333Y-119727438D01*
X51783333Y-119727438D02*
X51878571Y-119679819D01*
X51878571Y-119679819D02*
X52069047Y-119679819D01*
X52069047Y-119679819D02*
X52164285Y-119727438D01*
X52164285Y-119727438D02*
X52259523Y-119822676D01*
X52259523Y-119822676D02*
X52307142Y-120013152D01*
X52307142Y-120013152D02*
X52307142Y-120346485D01*
X52307142Y-120346485D02*
X52259523Y-120536961D01*
X52259523Y-120536961D02*
X52164285Y-120632200D01*
X52164285Y-120632200D02*
X52069047Y-120679819D01*
X52069047Y-120679819D02*
X51878571Y-120679819D01*
X52688095Y-119775057D02*
X52735714Y-119727438D01*
X52735714Y-119727438D02*
X52830952Y-119679819D01*
X52830952Y-119679819D02*
X53069047Y-119679819D01*
X53069047Y-119679819D02*
X53164285Y-119727438D01*
X53164285Y-119727438D02*
X53211904Y-119775057D01*
X53211904Y-119775057D02*
X53259523Y-119870295D01*
X53259523Y-119870295D02*
X53259523Y-119965533D01*
X53259523Y-119965533D02*
X53211904Y-120108390D01*
X53211904Y-120108390D02*
X52640476Y-120679819D01*
X52640476Y-120679819D02*
X53259523Y-120679819D01*
X51654819Y-80359523D02*
X52369104Y-80359523D01*
X52369104Y-80359523D02*
X52511961Y-80407142D01*
X52511961Y-80407142D02*
X52607200Y-80502380D01*
X52607200Y-80502380D02*
X52654819Y-80645237D01*
X52654819Y-80645237D02*
X52654819Y-80740475D01*
X52654819Y-79359523D02*
X52654819Y-79930951D01*
X52654819Y-79645237D02*
X51654819Y-79645237D01*
X51654819Y-79645237D02*
X51797676Y-79740475D01*
X51797676Y-79740475D02*
X51892914Y-79835713D01*
X51892914Y-79835713D02*
X51940533Y-79930951D01*
X51750057Y-78978570D02*
X51702438Y-78930951D01*
X51702438Y-78930951D02*
X51654819Y-78835713D01*
X51654819Y-78835713D02*
X51654819Y-78597618D01*
X51654819Y-78597618D02*
X51702438Y-78502380D01*
X51702438Y-78502380D02*
X51750057Y-78454761D01*
X51750057Y-78454761D02*
X51845295Y-78407142D01*
X51845295Y-78407142D02*
X51940533Y-78407142D01*
X51940533Y-78407142D02*
X52083390Y-78454761D01*
X52083390Y-78454761D02*
X52654819Y-79026189D01*
X52654819Y-79026189D02*
X52654819Y-78407142D01*
X85029819Y-61983333D02*
X85744104Y-61983333D01*
X85744104Y-61983333D02*
X85886961Y-62030952D01*
X85886961Y-62030952D02*
X85982200Y-62126190D01*
X85982200Y-62126190D02*
X86029819Y-62269047D01*
X86029819Y-62269047D02*
X86029819Y-62364285D01*
X85458390Y-61364285D02*
X85410771Y-61459523D01*
X85410771Y-61459523D02*
X85363152Y-61507142D01*
X85363152Y-61507142D02*
X85267914Y-61554761D01*
X85267914Y-61554761D02*
X85220295Y-61554761D01*
X85220295Y-61554761D02*
X85125057Y-61507142D01*
X85125057Y-61507142D02*
X85077438Y-61459523D01*
X85077438Y-61459523D02*
X85029819Y-61364285D01*
X85029819Y-61364285D02*
X85029819Y-61173809D01*
X85029819Y-61173809D02*
X85077438Y-61078571D01*
X85077438Y-61078571D02*
X85125057Y-61030952D01*
X85125057Y-61030952D02*
X85220295Y-60983333D01*
X85220295Y-60983333D02*
X85267914Y-60983333D01*
X85267914Y-60983333D02*
X85363152Y-61030952D01*
X85363152Y-61030952D02*
X85410771Y-61078571D01*
X85410771Y-61078571D02*
X85458390Y-61173809D01*
X85458390Y-61173809D02*
X85458390Y-61364285D01*
X85458390Y-61364285D02*
X85506009Y-61459523D01*
X85506009Y-61459523D02*
X85553628Y-61507142D01*
X85553628Y-61507142D02*
X85648866Y-61554761D01*
X85648866Y-61554761D02*
X85839342Y-61554761D01*
X85839342Y-61554761D02*
X85934580Y-61507142D01*
X85934580Y-61507142D02*
X85982200Y-61459523D01*
X85982200Y-61459523D02*
X86029819Y-61364285D01*
X86029819Y-61364285D02*
X86029819Y-61173809D01*
X86029819Y-61173809D02*
X85982200Y-61078571D01*
X85982200Y-61078571D02*
X85934580Y-61030952D01*
X85934580Y-61030952D02*
X85839342Y-60983333D01*
X85839342Y-60983333D02*
X85648866Y-60983333D01*
X85648866Y-60983333D02*
X85553628Y-61030952D01*
X85553628Y-61030952D02*
X85506009Y-61078571D01*
X85506009Y-61078571D02*
X85458390Y-61173809D01*
X63154819Y-98341666D02*
X62678628Y-98674999D01*
X63154819Y-98913094D02*
X62154819Y-98913094D01*
X62154819Y-98913094D02*
X62154819Y-98532142D01*
X62154819Y-98532142D02*
X62202438Y-98436904D01*
X62202438Y-98436904D02*
X62250057Y-98389285D01*
X62250057Y-98389285D02*
X62345295Y-98341666D01*
X62345295Y-98341666D02*
X62488152Y-98341666D01*
X62488152Y-98341666D02*
X62583390Y-98389285D01*
X62583390Y-98389285D02*
X62631009Y-98436904D01*
X62631009Y-98436904D02*
X62678628Y-98532142D01*
X62678628Y-98532142D02*
X62678628Y-98913094D01*
X62250057Y-97960713D02*
X62202438Y-97913094D01*
X62202438Y-97913094D02*
X62154819Y-97817856D01*
X62154819Y-97817856D02*
X62154819Y-97579761D01*
X62154819Y-97579761D02*
X62202438Y-97484523D01*
X62202438Y-97484523D02*
X62250057Y-97436904D01*
X62250057Y-97436904D02*
X62345295Y-97389285D01*
X62345295Y-97389285D02*
X62440533Y-97389285D01*
X62440533Y-97389285D02*
X62583390Y-97436904D01*
X62583390Y-97436904D02*
X63154819Y-98008332D01*
X63154819Y-98008332D02*
X63154819Y-97389285D01*
X84474819Y-72852857D02*
X83998628Y-73186190D01*
X84474819Y-73424285D02*
X83474819Y-73424285D01*
X83474819Y-73424285D02*
X83474819Y-73043333D01*
X83474819Y-73043333D02*
X83522438Y-72948095D01*
X83522438Y-72948095D02*
X83570057Y-72900476D01*
X83570057Y-72900476D02*
X83665295Y-72852857D01*
X83665295Y-72852857D02*
X83808152Y-72852857D01*
X83808152Y-72852857D02*
X83903390Y-72900476D01*
X83903390Y-72900476D02*
X83951009Y-72948095D01*
X83951009Y-72948095D02*
X83998628Y-73043333D01*
X83998628Y-73043333D02*
X83998628Y-73424285D01*
X84474819Y-71900476D02*
X84474819Y-72471904D01*
X84474819Y-72186190D02*
X83474819Y-72186190D01*
X83474819Y-72186190D02*
X83617676Y-72281428D01*
X83617676Y-72281428D02*
X83712914Y-72376666D01*
X83712914Y-72376666D02*
X83760533Y-72471904D01*
X83474819Y-71567142D02*
X83474819Y-70948095D01*
X83474819Y-70948095D02*
X83855771Y-71281428D01*
X83855771Y-71281428D02*
X83855771Y-71138571D01*
X83855771Y-71138571D02*
X83903390Y-71043333D01*
X83903390Y-71043333D02*
X83951009Y-70995714D01*
X83951009Y-70995714D02*
X84046247Y-70948095D01*
X84046247Y-70948095D02*
X84284342Y-70948095D01*
X84284342Y-70948095D02*
X84379580Y-70995714D01*
X84379580Y-70995714D02*
X84427200Y-71043333D01*
X84427200Y-71043333D02*
X84474819Y-71138571D01*
X84474819Y-71138571D02*
X84474819Y-71424285D01*
X84474819Y-71424285D02*
X84427200Y-71519523D01*
X84427200Y-71519523D02*
X84379580Y-71567142D01*
X84854819Y-87608333D02*
X85569104Y-87608333D01*
X85569104Y-87608333D02*
X85711961Y-87655952D01*
X85711961Y-87655952D02*
X85807200Y-87751190D01*
X85807200Y-87751190D02*
X85854819Y-87894047D01*
X85854819Y-87894047D02*
X85854819Y-87989285D01*
X85854819Y-87084523D02*
X85854819Y-86894047D01*
X85854819Y-86894047D02*
X85807200Y-86798809D01*
X85807200Y-86798809D02*
X85759580Y-86751190D01*
X85759580Y-86751190D02*
X85616723Y-86655952D01*
X85616723Y-86655952D02*
X85426247Y-86608333D01*
X85426247Y-86608333D02*
X85045295Y-86608333D01*
X85045295Y-86608333D02*
X84950057Y-86655952D01*
X84950057Y-86655952D02*
X84902438Y-86703571D01*
X84902438Y-86703571D02*
X84854819Y-86798809D01*
X84854819Y-86798809D02*
X84854819Y-86989285D01*
X84854819Y-86989285D02*
X84902438Y-87084523D01*
X84902438Y-87084523D02*
X84950057Y-87132142D01*
X84950057Y-87132142D02*
X85045295Y-87179761D01*
X85045295Y-87179761D02*
X85283390Y-87179761D01*
X85283390Y-87179761D02*
X85378628Y-87132142D01*
X85378628Y-87132142D02*
X85426247Y-87084523D01*
X85426247Y-87084523D02*
X85473866Y-86989285D01*
X85473866Y-86989285D02*
X85473866Y-86798809D01*
X85473866Y-86798809D02*
X85426247Y-86703571D01*
X85426247Y-86703571D02*
X85378628Y-86655952D01*
X85378628Y-86655952D02*
X85283390Y-86608333D01*
X106984580Y-75954166D02*
X107032200Y-76001785D01*
X107032200Y-76001785D02*
X107079819Y-76144642D01*
X107079819Y-76144642D02*
X107079819Y-76239880D01*
X107079819Y-76239880D02*
X107032200Y-76382737D01*
X107032200Y-76382737D02*
X106936961Y-76477975D01*
X106936961Y-76477975D02*
X106841723Y-76525594D01*
X106841723Y-76525594D02*
X106651247Y-76573213D01*
X106651247Y-76573213D02*
X106508390Y-76573213D01*
X106508390Y-76573213D02*
X106317914Y-76525594D01*
X106317914Y-76525594D02*
X106222676Y-76477975D01*
X106222676Y-76477975D02*
X106127438Y-76382737D01*
X106127438Y-76382737D02*
X106079819Y-76239880D01*
X106079819Y-76239880D02*
X106079819Y-76144642D01*
X106079819Y-76144642D02*
X106127438Y-76001785D01*
X106127438Y-76001785D02*
X106175057Y-75954166D01*
X107079819Y-75477975D02*
X107079819Y-75287499D01*
X107079819Y-75287499D02*
X107032200Y-75192261D01*
X107032200Y-75192261D02*
X106984580Y-75144642D01*
X106984580Y-75144642D02*
X106841723Y-75049404D01*
X106841723Y-75049404D02*
X106651247Y-75001785D01*
X106651247Y-75001785D02*
X106270295Y-75001785D01*
X106270295Y-75001785D02*
X106175057Y-75049404D01*
X106175057Y-75049404D02*
X106127438Y-75097023D01*
X106127438Y-75097023D02*
X106079819Y-75192261D01*
X106079819Y-75192261D02*
X106079819Y-75382737D01*
X106079819Y-75382737D02*
X106127438Y-75477975D01*
X106127438Y-75477975D02*
X106175057Y-75525594D01*
X106175057Y-75525594D02*
X106270295Y-75573213D01*
X106270295Y-75573213D02*
X106508390Y-75573213D01*
X106508390Y-75573213D02*
X106603628Y-75525594D01*
X106603628Y-75525594D02*
X106651247Y-75477975D01*
X106651247Y-75477975D02*
X106698866Y-75382737D01*
X106698866Y-75382737D02*
X106698866Y-75192261D01*
X106698866Y-75192261D02*
X106651247Y-75097023D01*
X106651247Y-75097023D02*
X106603628Y-75049404D01*
X106603628Y-75049404D02*
X106508390Y-75001785D01*
X62409580Y-134341666D02*
X62457200Y-134389285D01*
X62457200Y-134389285D02*
X62504819Y-134532142D01*
X62504819Y-134532142D02*
X62504819Y-134627380D01*
X62504819Y-134627380D02*
X62457200Y-134770237D01*
X62457200Y-134770237D02*
X62361961Y-134865475D01*
X62361961Y-134865475D02*
X62266723Y-134913094D01*
X62266723Y-134913094D02*
X62076247Y-134960713D01*
X62076247Y-134960713D02*
X61933390Y-134960713D01*
X61933390Y-134960713D02*
X61742914Y-134913094D01*
X61742914Y-134913094D02*
X61647676Y-134865475D01*
X61647676Y-134865475D02*
X61552438Y-134770237D01*
X61552438Y-134770237D02*
X61504819Y-134627380D01*
X61504819Y-134627380D02*
X61504819Y-134532142D01*
X61504819Y-134532142D02*
X61552438Y-134389285D01*
X61552438Y-134389285D02*
X61600057Y-134341666D01*
X61600057Y-133960713D02*
X61552438Y-133913094D01*
X61552438Y-133913094D02*
X61504819Y-133817856D01*
X61504819Y-133817856D02*
X61504819Y-133579761D01*
X61504819Y-133579761D02*
X61552438Y-133484523D01*
X61552438Y-133484523D02*
X61600057Y-133436904D01*
X61600057Y-133436904D02*
X61695295Y-133389285D01*
X61695295Y-133389285D02*
X61790533Y-133389285D01*
X61790533Y-133389285D02*
X61933390Y-133436904D01*
X61933390Y-133436904D02*
X62504819Y-134008332D01*
X62504819Y-134008332D02*
X62504819Y-133389285D01*
X67104819Y-72992857D02*
X66628628Y-73326190D01*
X67104819Y-73564285D02*
X66104819Y-73564285D01*
X66104819Y-73564285D02*
X66104819Y-73183333D01*
X66104819Y-73183333D02*
X66152438Y-73088095D01*
X66152438Y-73088095D02*
X66200057Y-73040476D01*
X66200057Y-73040476D02*
X66295295Y-72992857D01*
X66295295Y-72992857D02*
X66438152Y-72992857D01*
X66438152Y-72992857D02*
X66533390Y-73040476D01*
X66533390Y-73040476D02*
X66581009Y-73088095D01*
X66581009Y-73088095D02*
X66628628Y-73183333D01*
X66628628Y-73183333D02*
X66628628Y-73564285D01*
X67104819Y-72040476D02*
X67104819Y-72611904D01*
X67104819Y-72326190D02*
X66104819Y-72326190D01*
X66104819Y-72326190D02*
X66247676Y-72421428D01*
X66247676Y-72421428D02*
X66342914Y-72516666D01*
X66342914Y-72516666D02*
X66390533Y-72611904D01*
X67104819Y-71088095D02*
X67104819Y-71659523D01*
X67104819Y-71373809D02*
X66104819Y-71373809D01*
X66104819Y-71373809D02*
X66247676Y-71469047D01*
X66247676Y-71469047D02*
X66342914Y-71564285D01*
X66342914Y-71564285D02*
X66390533Y-71659523D01*
X103991667Y-131437295D02*
X103725000Y-131056342D01*
X103534524Y-131437295D02*
X103534524Y-130637295D01*
X103534524Y-130637295D02*
X103839286Y-130637295D01*
X103839286Y-130637295D02*
X103915476Y-130675390D01*
X103915476Y-130675390D02*
X103953571Y-130713485D01*
X103953571Y-130713485D02*
X103991667Y-130789676D01*
X103991667Y-130789676D02*
X103991667Y-130903961D01*
X103991667Y-130903961D02*
X103953571Y-130980152D01*
X103953571Y-130980152D02*
X103915476Y-131018247D01*
X103915476Y-131018247D02*
X103839286Y-131056342D01*
X103839286Y-131056342D02*
X103534524Y-131056342D01*
X104753571Y-131437295D02*
X104296428Y-131437295D01*
X104525000Y-131437295D02*
X104525000Y-130637295D01*
X104525000Y-130637295D02*
X104448809Y-130751580D01*
X104448809Y-130751580D02*
X104372619Y-130827771D01*
X104372619Y-130827771D02*
X104296428Y-130865866D01*
X71084819Y-130216666D02*
X70608628Y-130549999D01*
X71084819Y-130788094D02*
X70084819Y-130788094D01*
X70084819Y-130788094D02*
X70084819Y-130407142D01*
X70084819Y-130407142D02*
X70132438Y-130311904D01*
X70132438Y-130311904D02*
X70180057Y-130264285D01*
X70180057Y-130264285D02*
X70275295Y-130216666D01*
X70275295Y-130216666D02*
X70418152Y-130216666D01*
X70418152Y-130216666D02*
X70513390Y-130264285D01*
X70513390Y-130264285D02*
X70561009Y-130311904D01*
X70561009Y-130311904D02*
X70608628Y-130407142D01*
X70608628Y-130407142D02*
X70608628Y-130788094D01*
X70084819Y-129883332D02*
X70084819Y-129216666D01*
X70084819Y-129216666D02*
X71084819Y-129645237D01*
X115582142Y-53609580D02*
X115534523Y-53657200D01*
X115534523Y-53657200D02*
X115391666Y-53704819D01*
X115391666Y-53704819D02*
X115296428Y-53704819D01*
X115296428Y-53704819D02*
X115153571Y-53657200D01*
X115153571Y-53657200D02*
X115058333Y-53561961D01*
X115058333Y-53561961D02*
X115010714Y-53466723D01*
X115010714Y-53466723D02*
X114963095Y-53276247D01*
X114963095Y-53276247D02*
X114963095Y-53133390D01*
X114963095Y-53133390D02*
X115010714Y-52942914D01*
X115010714Y-52942914D02*
X115058333Y-52847676D01*
X115058333Y-52847676D02*
X115153571Y-52752438D01*
X115153571Y-52752438D02*
X115296428Y-52704819D01*
X115296428Y-52704819D02*
X115391666Y-52704819D01*
X115391666Y-52704819D02*
X115534523Y-52752438D01*
X115534523Y-52752438D02*
X115582142Y-52800057D01*
X116534523Y-53704819D02*
X115963095Y-53704819D01*
X116248809Y-53704819D02*
X116248809Y-52704819D01*
X116248809Y-52704819D02*
X116153571Y-52847676D01*
X116153571Y-52847676D02*
X116058333Y-52942914D01*
X116058333Y-52942914D02*
X115963095Y-52990533D01*
X117486904Y-53704819D02*
X116915476Y-53704819D01*
X117201190Y-53704819D02*
X117201190Y-52704819D01*
X117201190Y-52704819D02*
X117105952Y-52847676D01*
X117105952Y-52847676D02*
X117010714Y-52942914D01*
X117010714Y-52942914D02*
X116915476Y-52990533D01*
X72904761Y-76075057D02*
X72809523Y-76027438D01*
X72809523Y-76027438D02*
X72714285Y-75932200D01*
X72714285Y-75932200D02*
X72571428Y-75789342D01*
X72571428Y-75789342D02*
X72476190Y-75741723D01*
X72476190Y-75741723D02*
X72380952Y-75741723D01*
X72428571Y-75979819D02*
X72333333Y-75932200D01*
X72333333Y-75932200D02*
X72238095Y-75836961D01*
X72238095Y-75836961D02*
X72190476Y-75646485D01*
X72190476Y-75646485D02*
X72190476Y-75313152D01*
X72190476Y-75313152D02*
X72238095Y-75122676D01*
X72238095Y-75122676D02*
X72333333Y-75027438D01*
X72333333Y-75027438D02*
X72428571Y-74979819D01*
X72428571Y-74979819D02*
X72619047Y-74979819D01*
X72619047Y-74979819D02*
X72714285Y-75027438D01*
X72714285Y-75027438D02*
X72809523Y-75122676D01*
X72809523Y-75122676D02*
X72857142Y-75313152D01*
X72857142Y-75313152D02*
X72857142Y-75646485D01*
X72857142Y-75646485D02*
X72809523Y-75836961D01*
X72809523Y-75836961D02*
X72714285Y-75932200D01*
X72714285Y-75932200D02*
X72619047Y-75979819D01*
X72619047Y-75979819D02*
X72428571Y-75979819D01*
X73761904Y-74979819D02*
X73285714Y-74979819D01*
X73285714Y-74979819D02*
X73238095Y-75456009D01*
X73238095Y-75456009D02*
X73285714Y-75408390D01*
X73285714Y-75408390D02*
X73380952Y-75360771D01*
X73380952Y-75360771D02*
X73619047Y-75360771D01*
X73619047Y-75360771D02*
X73714285Y-75408390D01*
X73714285Y-75408390D02*
X73761904Y-75456009D01*
X73761904Y-75456009D02*
X73809523Y-75551247D01*
X73809523Y-75551247D02*
X73809523Y-75789342D01*
X73809523Y-75789342D02*
X73761904Y-75884580D01*
X73761904Y-75884580D02*
X73714285Y-75932200D01*
X73714285Y-75932200D02*
X73619047Y-75979819D01*
X73619047Y-75979819D02*
X73380952Y-75979819D01*
X73380952Y-75979819D02*
X73285714Y-75932200D01*
X73285714Y-75932200D02*
X73238095Y-75884580D01*
X78666667Y-130732200D02*
X78809524Y-130779819D01*
X78809524Y-130779819D02*
X79047619Y-130779819D01*
X79047619Y-130779819D02*
X79142857Y-130732200D01*
X79142857Y-130732200D02*
X79190476Y-130684580D01*
X79190476Y-130684580D02*
X79238095Y-130589342D01*
X79238095Y-130589342D02*
X79238095Y-130494104D01*
X79238095Y-130494104D02*
X79190476Y-130398866D01*
X79190476Y-130398866D02*
X79142857Y-130351247D01*
X79142857Y-130351247D02*
X79047619Y-130303628D01*
X79047619Y-130303628D02*
X78857143Y-130256009D01*
X78857143Y-130256009D02*
X78761905Y-130208390D01*
X78761905Y-130208390D02*
X78714286Y-130160771D01*
X78714286Y-130160771D02*
X78666667Y-130065533D01*
X78666667Y-130065533D02*
X78666667Y-129970295D01*
X78666667Y-129970295D02*
X78714286Y-129875057D01*
X78714286Y-129875057D02*
X78761905Y-129827438D01*
X78761905Y-129827438D02*
X78857143Y-129779819D01*
X78857143Y-129779819D02*
X79095238Y-129779819D01*
X79095238Y-129779819D02*
X79238095Y-129827438D01*
X79571429Y-129779819D02*
X79809524Y-130779819D01*
X79809524Y-130779819D02*
X80000000Y-130065533D01*
X80000000Y-130065533D02*
X80190476Y-130779819D01*
X80190476Y-130779819D02*
X80428572Y-129779819D01*
X80761905Y-129875057D02*
X80809524Y-129827438D01*
X80809524Y-129827438D02*
X80904762Y-129779819D01*
X80904762Y-129779819D02*
X81142857Y-129779819D01*
X81142857Y-129779819D02*
X81238095Y-129827438D01*
X81238095Y-129827438D02*
X81285714Y-129875057D01*
X81285714Y-129875057D02*
X81333333Y-129970295D01*
X81333333Y-129970295D02*
X81333333Y-130065533D01*
X81333333Y-130065533D02*
X81285714Y-130208390D01*
X81285714Y-130208390D02*
X80714286Y-130779819D01*
X80714286Y-130779819D02*
X81333333Y-130779819D01*
X73032142Y-64929819D02*
X72698809Y-64453628D01*
X72460714Y-64929819D02*
X72460714Y-63929819D01*
X72460714Y-63929819D02*
X72841666Y-63929819D01*
X72841666Y-63929819D02*
X72936904Y-63977438D01*
X72936904Y-63977438D02*
X72984523Y-64025057D01*
X72984523Y-64025057D02*
X73032142Y-64120295D01*
X73032142Y-64120295D02*
X73032142Y-64263152D01*
X73032142Y-64263152D02*
X72984523Y-64358390D01*
X72984523Y-64358390D02*
X72936904Y-64406009D01*
X72936904Y-64406009D02*
X72841666Y-64453628D01*
X72841666Y-64453628D02*
X72460714Y-64453628D01*
X73984523Y-64929819D02*
X73413095Y-64929819D01*
X73698809Y-64929819D02*
X73698809Y-63929819D01*
X73698809Y-63929819D02*
X73603571Y-64072676D01*
X73603571Y-64072676D02*
X73508333Y-64167914D01*
X73508333Y-64167914D02*
X73413095Y-64215533D01*
X74365476Y-64025057D02*
X74413095Y-63977438D01*
X74413095Y-63977438D02*
X74508333Y-63929819D01*
X74508333Y-63929819D02*
X74746428Y-63929819D01*
X74746428Y-63929819D02*
X74841666Y-63977438D01*
X74841666Y-63977438D02*
X74889285Y-64025057D01*
X74889285Y-64025057D02*
X74936904Y-64120295D01*
X74936904Y-64120295D02*
X74936904Y-64215533D01*
X74936904Y-64215533D02*
X74889285Y-64358390D01*
X74889285Y-64358390D02*
X74317857Y-64929819D01*
X74317857Y-64929819D02*
X74936904Y-64929819D01*
D13*
X94882856Y-113174318D02*
X94882856Y-111904318D01*
X94882856Y-111904318D02*
X95185237Y-111904318D01*
X95185237Y-111904318D02*
X95366666Y-111964794D01*
X95366666Y-111964794D02*
X95487618Y-112085746D01*
X95487618Y-112085746D02*
X95548095Y-112206699D01*
X95548095Y-112206699D02*
X95608571Y-112448603D01*
X95608571Y-112448603D02*
X95608571Y-112630032D01*
X95608571Y-112630032D02*
X95548095Y-112871937D01*
X95548095Y-112871937D02*
X95487618Y-112992889D01*
X95487618Y-112992889D02*
X95366666Y-113113842D01*
X95366666Y-113113842D02*
X95185237Y-113174318D01*
X95185237Y-113174318D02*
X94882856Y-113174318D01*
X96092380Y-113113842D02*
X96273809Y-113174318D01*
X96273809Y-113174318D02*
X96576190Y-113174318D01*
X96576190Y-113174318D02*
X96697142Y-113113842D01*
X96697142Y-113113842D02*
X96757618Y-113053365D01*
X96757618Y-113053365D02*
X96818095Y-112932413D01*
X96818095Y-112932413D02*
X96818095Y-112811461D01*
X96818095Y-112811461D02*
X96757618Y-112690508D01*
X96757618Y-112690508D02*
X96697142Y-112630032D01*
X96697142Y-112630032D02*
X96576190Y-112569556D01*
X96576190Y-112569556D02*
X96334285Y-112509080D01*
X96334285Y-112509080D02*
X96213333Y-112448603D01*
X96213333Y-112448603D02*
X96152856Y-112388127D01*
X96152856Y-112388127D02*
X96092380Y-112267175D01*
X96092380Y-112267175D02*
X96092380Y-112146222D01*
X96092380Y-112146222D02*
X96152856Y-112025270D01*
X96152856Y-112025270D02*
X96213333Y-111964794D01*
X96213333Y-111964794D02*
X96334285Y-111904318D01*
X96334285Y-111904318D02*
X96636666Y-111904318D01*
X96636666Y-111904318D02*
X96818095Y-111964794D01*
X98027619Y-113174318D02*
X97301904Y-113174318D01*
X97664761Y-113174318D02*
X97664761Y-111904318D01*
X97664761Y-111904318D02*
X97543809Y-112085746D01*
X97543809Y-112085746D02*
X97422857Y-112206699D01*
X97422857Y-112206699D02*
X97301904Y-112267175D01*
D11*
X90838953Y-51503808D02*
X90838953Y-52219438D01*
X90838953Y-52219438D02*
X90791244Y-52362564D01*
X90791244Y-52362564D02*
X90695827Y-52457982D01*
X90695827Y-52457982D02*
X90552701Y-52505690D01*
X90552701Y-52505690D02*
X90457284Y-52505690D01*
X91840835Y-52505690D02*
X91268331Y-52505690D01*
X91554583Y-52505690D02*
X91554583Y-51503808D01*
X91554583Y-51503808D02*
X91459166Y-51646934D01*
X91459166Y-51646934D02*
X91363749Y-51742352D01*
X91363749Y-51742352D02*
X91268331Y-51790060D01*
X92461048Y-51503808D02*
X92556465Y-51503808D01*
X92556465Y-51503808D02*
X92651882Y-51551517D01*
X92651882Y-51551517D02*
X92699591Y-51599226D01*
X92699591Y-51599226D02*
X92747300Y-51694643D01*
X92747300Y-51694643D02*
X92795008Y-51885478D01*
X92795008Y-51885478D02*
X92795008Y-52124021D01*
X92795008Y-52124021D02*
X92747300Y-52314856D01*
X92747300Y-52314856D02*
X92699591Y-52410273D01*
X92699591Y-52410273D02*
X92651882Y-52457982D01*
X92651882Y-52457982D02*
X92556465Y-52505690D01*
X92556465Y-52505690D02*
X92461048Y-52505690D01*
X92461048Y-52505690D02*
X92365630Y-52457982D01*
X92365630Y-52457982D02*
X92317922Y-52410273D01*
X92317922Y-52410273D02*
X92270213Y-52314856D01*
X92270213Y-52314856D02*
X92222504Y-52124021D01*
X92222504Y-52124021D02*
X92222504Y-51885478D01*
X92222504Y-51885478D02*
X92270213Y-51694643D01*
X92270213Y-51694643D02*
X92317922Y-51599226D01*
X92317922Y-51599226D02*
X92365630Y-51551517D01*
X92365630Y-51551517D02*
X92461048Y-51503808D01*
X71209819Y-124091666D02*
X70733628Y-124424999D01*
X71209819Y-124663094D02*
X70209819Y-124663094D01*
X70209819Y-124663094D02*
X70209819Y-124282142D01*
X70209819Y-124282142D02*
X70257438Y-124186904D01*
X70257438Y-124186904D02*
X70305057Y-124139285D01*
X70305057Y-124139285D02*
X70400295Y-124091666D01*
X70400295Y-124091666D02*
X70543152Y-124091666D01*
X70543152Y-124091666D02*
X70638390Y-124139285D01*
X70638390Y-124139285D02*
X70686009Y-124186904D01*
X70686009Y-124186904D02*
X70733628Y-124282142D01*
X70733628Y-124282142D02*
X70733628Y-124663094D01*
X70209819Y-123186904D02*
X70209819Y-123663094D01*
X70209819Y-123663094D02*
X70686009Y-123710713D01*
X70686009Y-123710713D02*
X70638390Y-123663094D01*
X70638390Y-123663094D02*
X70590771Y-123567856D01*
X70590771Y-123567856D02*
X70590771Y-123329761D01*
X70590771Y-123329761D02*
X70638390Y-123234523D01*
X70638390Y-123234523D02*
X70686009Y-123186904D01*
X70686009Y-123186904D02*
X70781247Y-123139285D01*
X70781247Y-123139285D02*
X71019342Y-123139285D01*
X71019342Y-123139285D02*
X71114580Y-123186904D01*
X71114580Y-123186904D02*
X71162200Y-123234523D01*
X71162200Y-123234523D02*
X71209819Y-123329761D01*
X71209819Y-123329761D02*
X71209819Y-123567856D01*
X71209819Y-123567856D02*
X71162200Y-123663094D01*
X71162200Y-123663094D02*
X71114580Y-123710713D01*
X84454819Y-80409523D02*
X85169104Y-80409523D01*
X85169104Y-80409523D02*
X85311961Y-80457142D01*
X85311961Y-80457142D02*
X85407200Y-80552380D01*
X85407200Y-80552380D02*
X85454819Y-80695237D01*
X85454819Y-80695237D02*
X85454819Y-80790475D01*
X85454819Y-79409523D02*
X85454819Y-79980951D01*
X85454819Y-79695237D02*
X84454819Y-79695237D01*
X84454819Y-79695237D02*
X84597676Y-79790475D01*
X84597676Y-79790475D02*
X84692914Y-79885713D01*
X84692914Y-79885713D02*
X84740533Y-79980951D01*
X84788152Y-78552380D02*
X85454819Y-78552380D01*
X84407200Y-78790475D02*
X85121485Y-79028570D01*
X85121485Y-79028570D02*
X85121485Y-78409523D01*
X111894642Y-62834580D02*
X111847023Y-62882200D01*
X111847023Y-62882200D02*
X111704166Y-62929819D01*
X111704166Y-62929819D02*
X111608928Y-62929819D01*
X111608928Y-62929819D02*
X111466071Y-62882200D01*
X111466071Y-62882200D02*
X111370833Y-62786961D01*
X111370833Y-62786961D02*
X111323214Y-62691723D01*
X111323214Y-62691723D02*
X111275595Y-62501247D01*
X111275595Y-62501247D02*
X111275595Y-62358390D01*
X111275595Y-62358390D02*
X111323214Y-62167914D01*
X111323214Y-62167914D02*
X111370833Y-62072676D01*
X111370833Y-62072676D02*
X111466071Y-61977438D01*
X111466071Y-61977438D02*
X111608928Y-61929819D01*
X111608928Y-61929819D02*
X111704166Y-61929819D01*
X111704166Y-61929819D02*
X111847023Y-61977438D01*
X111847023Y-61977438D02*
X111894642Y-62025057D01*
X112847023Y-62929819D02*
X112275595Y-62929819D01*
X112561309Y-62929819D02*
X112561309Y-61929819D01*
X112561309Y-61929819D02*
X112466071Y-62072676D01*
X112466071Y-62072676D02*
X112370833Y-62167914D01*
X112370833Y-62167914D02*
X112275595Y-62215533D01*
X113466071Y-61929819D02*
X113561309Y-61929819D01*
X113561309Y-61929819D02*
X113656547Y-61977438D01*
X113656547Y-61977438D02*
X113704166Y-62025057D01*
X113704166Y-62025057D02*
X113751785Y-62120295D01*
X113751785Y-62120295D02*
X113799404Y-62310771D01*
X113799404Y-62310771D02*
X113799404Y-62548866D01*
X113799404Y-62548866D02*
X113751785Y-62739342D01*
X113751785Y-62739342D02*
X113704166Y-62834580D01*
X113704166Y-62834580D02*
X113656547Y-62882200D01*
X113656547Y-62882200D02*
X113561309Y-62929819D01*
X113561309Y-62929819D02*
X113466071Y-62929819D01*
X113466071Y-62929819D02*
X113370833Y-62882200D01*
X113370833Y-62882200D02*
X113323214Y-62834580D01*
X113323214Y-62834580D02*
X113275595Y-62739342D01*
X113275595Y-62739342D02*
X113227976Y-62548866D01*
X113227976Y-62548866D02*
X113227976Y-62310771D01*
X113227976Y-62310771D02*
X113275595Y-62120295D01*
X113275595Y-62120295D02*
X113323214Y-62025057D01*
X113323214Y-62025057D02*
X113370833Y-61977438D01*
X113370833Y-61977438D02*
X113466071Y-61929819D01*
X57679761Y-76500057D02*
X57584523Y-76452438D01*
X57584523Y-76452438D02*
X57489285Y-76357200D01*
X57489285Y-76357200D02*
X57346428Y-76214342D01*
X57346428Y-76214342D02*
X57251190Y-76166723D01*
X57251190Y-76166723D02*
X57155952Y-76166723D01*
X57203571Y-76404819D02*
X57108333Y-76357200D01*
X57108333Y-76357200D02*
X57013095Y-76261961D01*
X57013095Y-76261961D02*
X56965476Y-76071485D01*
X56965476Y-76071485D02*
X56965476Y-75738152D01*
X56965476Y-75738152D02*
X57013095Y-75547676D01*
X57013095Y-75547676D02*
X57108333Y-75452438D01*
X57108333Y-75452438D02*
X57203571Y-75404819D01*
X57203571Y-75404819D02*
X57394047Y-75404819D01*
X57394047Y-75404819D02*
X57489285Y-75452438D01*
X57489285Y-75452438D02*
X57584523Y-75547676D01*
X57584523Y-75547676D02*
X57632142Y-75738152D01*
X57632142Y-75738152D02*
X57632142Y-76071485D01*
X57632142Y-76071485D02*
X57584523Y-76261961D01*
X57584523Y-76261961D02*
X57489285Y-76357200D01*
X57489285Y-76357200D02*
X57394047Y-76404819D01*
X57394047Y-76404819D02*
X57203571Y-76404819D01*
X57965476Y-75404819D02*
X58584523Y-75404819D01*
X58584523Y-75404819D02*
X58251190Y-75785771D01*
X58251190Y-75785771D02*
X58394047Y-75785771D01*
X58394047Y-75785771D02*
X58489285Y-75833390D01*
X58489285Y-75833390D02*
X58536904Y-75881009D01*
X58536904Y-75881009D02*
X58584523Y-75976247D01*
X58584523Y-75976247D02*
X58584523Y-76214342D01*
X58584523Y-76214342D02*
X58536904Y-76309580D01*
X58536904Y-76309580D02*
X58489285Y-76357200D01*
X58489285Y-76357200D02*
X58394047Y-76404819D01*
X58394047Y-76404819D02*
X58108333Y-76404819D01*
X58108333Y-76404819D02*
X58013095Y-76357200D01*
X58013095Y-76357200D02*
X57965476Y-76309580D01*
X67409580Y-134216666D02*
X67457200Y-134264285D01*
X67457200Y-134264285D02*
X67504819Y-134407142D01*
X67504819Y-134407142D02*
X67504819Y-134502380D01*
X67504819Y-134502380D02*
X67457200Y-134645237D01*
X67457200Y-134645237D02*
X67361961Y-134740475D01*
X67361961Y-134740475D02*
X67266723Y-134788094D01*
X67266723Y-134788094D02*
X67076247Y-134835713D01*
X67076247Y-134835713D02*
X66933390Y-134835713D01*
X66933390Y-134835713D02*
X66742914Y-134788094D01*
X66742914Y-134788094D02*
X66647676Y-134740475D01*
X66647676Y-134740475D02*
X66552438Y-134645237D01*
X66552438Y-134645237D02*
X66504819Y-134502380D01*
X66504819Y-134502380D02*
X66504819Y-134407142D01*
X66504819Y-134407142D02*
X66552438Y-134264285D01*
X66552438Y-134264285D02*
X66600057Y-134216666D01*
X66838152Y-133359523D02*
X67504819Y-133359523D01*
X66457200Y-133597618D02*
X67171485Y-133835713D01*
X67171485Y-133835713D02*
X67171485Y-133216666D01*
X82154761Y-65004819D02*
X81821428Y-64528628D01*
X81583333Y-65004819D02*
X81583333Y-64004819D01*
X81583333Y-64004819D02*
X81964285Y-64004819D01*
X81964285Y-64004819D02*
X82059523Y-64052438D01*
X82059523Y-64052438D02*
X82107142Y-64100057D01*
X82107142Y-64100057D02*
X82154761Y-64195295D01*
X82154761Y-64195295D02*
X82154761Y-64338152D01*
X82154761Y-64338152D02*
X82107142Y-64433390D01*
X82107142Y-64433390D02*
X82059523Y-64481009D01*
X82059523Y-64481009D02*
X81964285Y-64528628D01*
X81964285Y-64528628D02*
X81583333Y-64528628D01*
X82773809Y-64528628D02*
X82773809Y-65004819D01*
X82440476Y-64004819D02*
X82773809Y-64528628D01*
X82773809Y-64528628D02*
X83107142Y-64004819D01*
X83345238Y-64004819D02*
X83964285Y-64004819D01*
X83964285Y-64004819D02*
X83630952Y-64385771D01*
X83630952Y-64385771D02*
X83773809Y-64385771D01*
X83773809Y-64385771D02*
X83869047Y-64433390D01*
X83869047Y-64433390D02*
X83916666Y-64481009D01*
X83916666Y-64481009D02*
X83964285Y-64576247D01*
X83964285Y-64576247D02*
X83964285Y-64814342D01*
X83964285Y-64814342D02*
X83916666Y-64909580D01*
X83916666Y-64909580D02*
X83869047Y-64957200D01*
X83869047Y-64957200D02*
X83773809Y-65004819D01*
X83773809Y-65004819D02*
X83488095Y-65004819D01*
X83488095Y-65004819D02*
X83392857Y-64957200D01*
X83392857Y-64957200D02*
X83345238Y-64909580D01*
X109291667Y-130307200D02*
X109434524Y-130354819D01*
X109434524Y-130354819D02*
X109672619Y-130354819D01*
X109672619Y-130354819D02*
X109767857Y-130307200D01*
X109767857Y-130307200D02*
X109815476Y-130259580D01*
X109815476Y-130259580D02*
X109863095Y-130164342D01*
X109863095Y-130164342D02*
X109863095Y-130069104D01*
X109863095Y-130069104D02*
X109815476Y-129973866D01*
X109815476Y-129973866D02*
X109767857Y-129926247D01*
X109767857Y-129926247D02*
X109672619Y-129878628D01*
X109672619Y-129878628D02*
X109482143Y-129831009D01*
X109482143Y-129831009D02*
X109386905Y-129783390D01*
X109386905Y-129783390D02*
X109339286Y-129735771D01*
X109339286Y-129735771D02*
X109291667Y-129640533D01*
X109291667Y-129640533D02*
X109291667Y-129545295D01*
X109291667Y-129545295D02*
X109339286Y-129450057D01*
X109339286Y-129450057D02*
X109386905Y-129402438D01*
X109386905Y-129402438D02*
X109482143Y-129354819D01*
X109482143Y-129354819D02*
X109720238Y-129354819D01*
X109720238Y-129354819D02*
X109863095Y-129402438D01*
X110196429Y-129354819D02*
X110434524Y-130354819D01*
X110434524Y-130354819D02*
X110625000Y-129640533D01*
X110625000Y-129640533D02*
X110815476Y-130354819D01*
X110815476Y-130354819D02*
X111053572Y-129354819D01*
X111958333Y-130354819D02*
X111386905Y-130354819D01*
X111672619Y-130354819D02*
X111672619Y-129354819D01*
X111672619Y-129354819D02*
X111577381Y-129497676D01*
X111577381Y-129497676D02*
X111482143Y-129592914D01*
X111482143Y-129592914D02*
X111386905Y-129640533D01*
X72292261Y-115675057D02*
X72197023Y-115627438D01*
X72197023Y-115627438D02*
X72101785Y-115532200D01*
X72101785Y-115532200D02*
X71958928Y-115389342D01*
X71958928Y-115389342D02*
X71863690Y-115341723D01*
X71863690Y-115341723D02*
X71768452Y-115341723D01*
X71816071Y-115579819D02*
X71720833Y-115532200D01*
X71720833Y-115532200D02*
X71625595Y-115436961D01*
X71625595Y-115436961D02*
X71577976Y-115246485D01*
X71577976Y-115246485D02*
X71577976Y-114913152D01*
X71577976Y-114913152D02*
X71625595Y-114722676D01*
X71625595Y-114722676D02*
X71720833Y-114627438D01*
X71720833Y-114627438D02*
X71816071Y-114579819D01*
X71816071Y-114579819D02*
X72006547Y-114579819D01*
X72006547Y-114579819D02*
X72101785Y-114627438D01*
X72101785Y-114627438D02*
X72197023Y-114722676D01*
X72197023Y-114722676D02*
X72244642Y-114913152D01*
X72244642Y-114913152D02*
X72244642Y-115246485D01*
X72244642Y-115246485D02*
X72197023Y-115436961D01*
X72197023Y-115436961D02*
X72101785Y-115532200D01*
X72101785Y-115532200D02*
X72006547Y-115579819D01*
X72006547Y-115579819D02*
X71816071Y-115579819D01*
X73197023Y-115579819D02*
X72625595Y-115579819D01*
X72911309Y-115579819D02*
X72911309Y-114579819D01*
X72911309Y-114579819D02*
X72816071Y-114722676D01*
X72816071Y-114722676D02*
X72720833Y-114817914D01*
X72720833Y-114817914D02*
X72625595Y-114865533D01*
X95549819Y-97583333D02*
X96264104Y-97583333D01*
X96264104Y-97583333D02*
X96406961Y-97630952D01*
X96406961Y-97630952D02*
X96502200Y-97726190D01*
X96502200Y-97726190D02*
X96549819Y-97869047D01*
X96549819Y-97869047D02*
X96549819Y-97964285D01*
X95549819Y-97202380D02*
X95549819Y-96583333D01*
X95549819Y-96583333D02*
X95930771Y-96916666D01*
X95930771Y-96916666D02*
X95930771Y-96773809D01*
X95930771Y-96773809D02*
X95978390Y-96678571D01*
X95978390Y-96678571D02*
X96026009Y-96630952D01*
X96026009Y-96630952D02*
X96121247Y-96583333D01*
X96121247Y-96583333D02*
X96359342Y-96583333D01*
X96359342Y-96583333D02*
X96454580Y-96630952D01*
X96454580Y-96630952D02*
X96502200Y-96678571D01*
X96502200Y-96678571D02*
X96549819Y-96773809D01*
X96549819Y-96773809D02*
X96549819Y-97059523D01*
X96549819Y-97059523D02*
X96502200Y-97154761D01*
X96502200Y-97154761D02*
X96454580Y-97202380D01*
X75704761Y-90404819D02*
X75371428Y-89928628D01*
X75133333Y-90404819D02*
X75133333Y-89404819D01*
X75133333Y-89404819D02*
X75514285Y-89404819D01*
X75514285Y-89404819D02*
X75609523Y-89452438D01*
X75609523Y-89452438D02*
X75657142Y-89500057D01*
X75657142Y-89500057D02*
X75704761Y-89595295D01*
X75704761Y-89595295D02*
X75704761Y-89738152D01*
X75704761Y-89738152D02*
X75657142Y-89833390D01*
X75657142Y-89833390D02*
X75609523Y-89881009D01*
X75609523Y-89881009D02*
X75514285Y-89928628D01*
X75514285Y-89928628D02*
X75133333Y-89928628D01*
X76323809Y-89928628D02*
X76323809Y-90404819D01*
X75990476Y-89404819D02*
X76323809Y-89928628D01*
X76323809Y-89928628D02*
X76657142Y-89404819D01*
X77419047Y-89738152D02*
X77419047Y-90404819D01*
X77180952Y-89357200D02*
X76942857Y-90071485D01*
X76942857Y-90071485D02*
X77561904Y-90071485D01*
X52233333Y-128054819D02*
X51900000Y-127578628D01*
X51661905Y-128054819D02*
X51661905Y-127054819D01*
X51661905Y-127054819D02*
X52042857Y-127054819D01*
X52042857Y-127054819D02*
X52138095Y-127102438D01*
X52138095Y-127102438D02*
X52185714Y-127150057D01*
X52185714Y-127150057D02*
X52233333Y-127245295D01*
X52233333Y-127245295D02*
X52233333Y-127388152D01*
X52233333Y-127388152D02*
X52185714Y-127483390D01*
X52185714Y-127483390D02*
X52138095Y-127531009D01*
X52138095Y-127531009D02*
X52042857Y-127578628D01*
X52042857Y-127578628D02*
X51661905Y-127578628D01*
X53090476Y-127054819D02*
X52900000Y-127054819D01*
X52900000Y-127054819D02*
X52804762Y-127102438D01*
X52804762Y-127102438D02*
X52757143Y-127150057D01*
X52757143Y-127150057D02*
X52661905Y-127292914D01*
X52661905Y-127292914D02*
X52614286Y-127483390D01*
X52614286Y-127483390D02*
X52614286Y-127864342D01*
X52614286Y-127864342D02*
X52661905Y-127959580D01*
X52661905Y-127959580D02*
X52709524Y-128007200D01*
X52709524Y-128007200D02*
X52804762Y-128054819D01*
X52804762Y-128054819D02*
X52995238Y-128054819D01*
X52995238Y-128054819D02*
X53090476Y-128007200D01*
X53090476Y-128007200D02*
X53138095Y-127959580D01*
X53138095Y-127959580D02*
X53185714Y-127864342D01*
X53185714Y-127864342D02*
X53185714Y-127626247D01*
X53185714Y-127626247D02*
X53138095Y-127531009D01*
X53138095Y-127531009D02*
X53090476Y-127483390D01*
X53090476Y-127483390D02*
X52995238Y-127435771D01*
X52995238Y-127435771D02*
X52804762Y-127435771D01*
X52804762Y-127435771D02*
X52709524Y-127483390D01*
X52709524Y-127483390D02*
X52661905Y-127531009D01*
X52661905Y-127531009D02*
X52614286Y-127626247D01*
X94816667Y-130507200D02*
X94959524Y-130554819D01*
X94959524Y-130554819D02*
X95197619Y-130554819D01*
X95197619Y-130554819D02*
X95292857Y-130507200D01*
X95292857Y-130507200D02*
X95340476Y-130459580D01*
X95340476Y-130459580D02*
X95388095Y-130364342D01*
X95388095Y-130364342D02*
X95388095Y-130269104D01*
X95388095Y-130269104D02*
X95340476Y-130173866D01*
X95340476Y-130173866D02*
X95292857Y-130126247D01*
X95292857Y-130126247D02*
X95197619Y-130078628D01*
X95197619Y-130078628D02*
X95007143Y-130031009D01*
X95007143Y-130031009D02*
X94911905Y-129983390D01*
X94911905Y-129983390D02*
X94864286Y-129935771D01*
X94864286Y-129935771D02*
X94816667Y-129840533D01*
X94816667Y-129840533D02*
X94816667Y-129745295D01*
X94816667Y-129745295D02*
X94864286Y-129650057D01*
X94864286Y-129650057D02*
X94911905Y-129602438D01*
X94911905Y-129602438D02*
X95007143Y-129554819D01*
X95007143Y-129554819D02*
X95245238Y-129554819D01*
X95245238Y-129554819D02*
X95388095Y-129602438D01*
X95721429Y-129554819D02*
X95959524Y-130554819D01*
X95959524Y-130554819D02*
X96150000Y-129840533D01*
X96150000Y-129840533D02*
X96340476Y-130554819D01*
X96340476Y-130554819D02*
X96578572Y-129554819D01*
X96864286Y-129554819D02*
X97483333Y-129554819D01*
X97483333Y-129554819D02*
X97150000Y-129935771D01*
X97150000Y-129935771D02*
X97292857Y-129935771D01*
X97292857Y-129935771D02*
X97388095Y-129983390D01*
X97388095Y-129983390D02*
X97435714Y-130031009D01*
X97435714Y-130031009D02*
X97483333Y-130126247D01*
X97483333Y-130126247D02*
X97483333Y-130364342D01*
X97483333Y-130364342D02*
X97435714Y-130459580D01*
X97435714Y-130459580D02*
X97388095Y-130507200D01*
X97388095Y-130507200D02*
X97292857Y-130554819D01*
X97292857Y-130554819D02*
X97007143Y-130554819D01*
X97007143Y-130554819D02*
X96911905Y-130507200D01*
X96911905Y-130507200D02*
X96864286Y-130459580D01*
X51754819Y-54859523D02*
X52469104Y-54859523D01*
X52469104Y-54859523D02*
X52611961Y-54907142D01*
X52611961Y-54907142D02*
X52707200Y-55002380D01*
X52707200Y-55002380D02*
X52754819Y-55145237D01*
X52754819Y-55145237D02*
X52754819Y-55240475D01*
X52754819Y-53859523D02*
X52754819Y-54430951D01*
X52754819Y-54145237D02*
X51754819Y-54145237D01*
X51754819Y-54145237D02*
X51897676Y-54240475D01*
X51897676Y-54240475D02*
X51992914Y-54335713D01*
X51992914Y-54335713D02*
X52040533Y-54430951D01*
X52754819Y-52907142D02*
X52754819Y-53478570D01*
X52754819Y-53192856D02*
X51754819Y-53192856D01*
X51754819Y-53192856D02*
X51897676Y-53288094D01*
X51897676Y-53288094D02*
X51992914Y-53383332D01*
X51992914Y-53383332D02*
X52040533Y-53478570D01*
X52429819Y-90873333D02*
X53144104Y-90873333D01*
X53144104Y-90873333D02*
X53286961Y-90920952D01*
X53286961Y-90920952D02*
X53382200Y-91016190D01*
X53382200Y-91016190D02*
X53429819Y-91159047D01*
X53429819Y-91159047D02*
X53429819Y-91254285D01*
X52763152Y-89968571D02*
X53429819Y-89968571D01*
X52382200Y-90206666D02*
X53096485Y-90444761D01*
X53096485Y-90444761D02*
X53096485Y-89825714D01*
X74613095Y-94194819D02*
X74613095Y-95004342D01*
X74613095Y-95004342D02*
X74660714Y-95099580D01*
X74660714Y-95099580D02*
X74708333Y-95147200D01*
X74708333Y-95147200D02*
X74803571Y-95194819D01*
X74803571Y-95194819D02*
X74994047Y-95194819D01*
X74994047Y-95194819D02*
X75089285Y-95147200D01*
X75089285Y-95147200D02*
X75136904Y-95099580D01*
X75136904Y-95099580D02*
X75184523Y-95004342D01*
X75184523Y-95004342D02*
X75184523Y-94194819D01*
X76089285Y-94528152D02*
X76089285Y-95194819D01*
X75851190Y-94147200D02*
X75613095Y-94861485D01*
X75613095Y-94861485D02*
X76232142Y-94861485D01*
X78954761Y-76350057D02*
X78859523Y-76302438D01*
X78859523Y-76302438D02*
X78764285Y-76207200D01*
X78764285Y-76207200D02*
X78621428Y-76064342D01*
X78621428Y-76064342D02*
X78526190Y-76016723D01*
X78526190Y-76016723D02*
X78430952Y-76016723D01*
X78478571Y-76254819D02*
X78383333Y-76207200D01*
X78383333Y-76207200D02*
X78288095Y-76111961D01*
X78288095Y-76111961D02*
X78240476Y-75921485D01*
X78240476Y-75921485D02*
X78240476Y-75588152D01*
X78240476Y-75588152D02*
X78288095Y-75397676D01*
X78288095Y-75397676D02*
X78383333Y-75302438D01*
X78383333Y-75302438D02*
X78478571Y-75254819D01*
X78478571Y-75254819D02*
X78669047Y-75254819D01*
X78669047Y-75254819D02*
X78764285Y-75302438D01*
X78764285Y-75302438D02*
X78859523Y-75397676D01*
X78859523Y-75397676D02*
X78907142Y-75588152D01*
X78907142Y-75588152D02*
X78907142Y-75921485D01*
X78907142Y-75921485D02*
X78859523Y-76111961D01*
X78859523Y-76111961D02*
X78764285Y-76207200D01*
X78764285Y-76207200D02*
X78669047Y-76254819D01*
X78669047Y-76254819D02*
X78478571Y-76254819D01*
X79764285Y-75254819D02*
X79573809Y-75254819D01*
X79573809Y-75254819D02*
X79478571Y-75302438D01*
X79478571Y-75302438D02*
X79430952Y-75350057D01*
X79430952Y-75350057D02*
X79335714Y-75492914D01*
X79335714Y-75492914D02*
X79288095Y-75683390D01*
X79288095Y-75683390D02*
X79288095Y-76064342D01*
X79288095Y-76064342D02*
X79335714Y-76159580D01*
X79335714Y-76159580D02*
X79383333Y-76207200D01*
X79383333Y-76207200D02*
X79478571Y-76254819D01*
X79478571Y-76254819D02*
X79669047Y-76254819D01*
X79669047Y-76254819D02*
X79764285Y-76207200D01*
X79764285Y-76207200D02*
X79811904Y-76159580D01*
X79811904Y-76159580D02*
X79859523Y-76064342D01*
X79859523Y-76064342D02*
X79859523Y-75826247D01*
X79859523Y-75826247D02*
X79811904Y-75731009D01*
X79811904Y-75731009D02*
X79764285Y-75683390D01*
X79764285Y-75683390D02*
X79669047Y-75635771D01*
X79669047Y-75635771D02*
X79478571Y-75635771D01*
X79478571Y-75635771D02*
X79383333Y-75683390D01*
X79383333Y-75683390D02*
X79335714Y-75731009D01*
X79335714Y-75731009D02*
X79288095Y-75826247D01*
X63979761Y-76350057D02*
X63884523Y-76302438D01*
X63884523Y-76302438D02*
X63789285Y-76207200D01*
X63789285Y-76207200D02*
X63646428Y-76064342D01*
X63646428Y-76064342D02*
X63551190Y-76016723D01*
X63551190Y-76016723D02*
X63455952Y-76016723D01*
X63503571Y-76254819D02*
X63408333Y-76207200D01*
X63408333Y-76207200D02*
X63313095Y-76111961D01*
X63313095Y-76111961D02*
X63265476Y-75921485D01*
X63265476Y-75921485D02*
X63265476Y-75588152D01*
X63265476Y-75588152D02*
X63313095Y-75397676D01*
X63313095Y-75397676D02*
X63408333Y-75302438D01*
X63408333Y-75302438D02*
X63503571Y-75254819D01*
X63503571Y-75254819D02*
X63694047Y-75254819D01*
X63694047Y-75254819D02*
X63789285Y-75302438D01*
X63789285Y-75302438D02*
X63884523Y-75397676D01*
X63884523Y-75397676D02*
X63932142Y-75588152D01*
X63932142Y-75588152D02*
X63932142Y-75921485D01*
X63932142Y-75921485D02*
X63884523Y-76111961D01*
X63884523Y-76111961D02*
X63789285Y-76207200D01*
X63789285Y-76207200D02*
X63694047Y-76254819D01*
X63694047Y-76254819D02*
X63503571Y-76254819D01*
X64789285Y-75588152D02*
X64789285Y-76254819D01*
X64551190Y-75207200D02*
X64313095Y-75921485D01*
X64313095Y-75921485D02*
X64932142Y-75921485D01*
X51804819Y-62033333D02*
X52519104Y-62033333D01*
X52519104Y-62033333D02*
X52661961Y-62080952D01*
X52661961Y-62080952D02*
X52757200Y-62176190D01*
X52757200Y-62176190D02*
X52804819Y-62319047D01*
X52804819Y-62319047D02*
X52804819Y-62414285D01*
X51804819Y-61128571D02*
X51804819Y-61319047D01*
X51804819Y-61319047D02*
X51852438Y-61414285D01*
X51852438Y-61414285D02*
X51900057Y-61461904D01*
X51900057Y-61461904D02*
X52042914Y-61557142D01*
X52042914Y-61557142D02*
X52233390Y-61604761D01*
X52233390Y-61604761D02*
X52614342Y-61604761D01*
X52614342Y-61604761D02*
X52709580Y-61557142D01*
X52709580Y-61557142D02*
X52757200Y-61509523D01*
X52757200Y-61509523D02*
X52804819Y-61414285D01*
X52804819Y-61414285D02*
X52804819Y-61223809D01*
X52804819Y-61223809D02*
X52757200Y-61128571D01*
X52757200Y-61128571D02*
X52709580Y-61080952D01*
X52709580Y-61080952D02*
X52614342Y-61033333D01*
X52614342Y-61033333D02*
X52376247Y-61033333D01*
X52376247Y-61033333D02*
X52281009Y-61080952D01*
X52281009Y-61080952D02*
X52233390Y-61128571D01*
X52233390Y-61128571D02*
X52185771Y-61223809D01*
X52185771Y-61223809D02*
X52185771Y-61414285D01*
X52185771Y-61414285D02*
X52233390Y-61509523D01*
X52233390Y-61509523D02*
X52281009Y-61557142D01*
X52281009Y-61557142D02*
X52376247Y-61604761D01*
X109554819Y-62986904D02*
X110364342Y-62986904D01*
X110364342Y-62986904D02*
X110459580Y-62939285D01*
X110459580Y-62939285D02*
X110507200Y-62891666D01*
X110507200Y-62891666D02*
X110554819Y-62796428D01*
X110554819Y-62796428D02*
X110554819Y-62605952D01*
X110554819Y-62605952D02*
X110507200Y-62510714D01*
X110507200Y-62510714D02*
X110459580Y-62463095D01*
X110459580Y-62463095D02*
X110364342Y-62415476D01*
X110364342Y-62415476D02*
X109554819Y-62415476D01*
X109554819Y-61510714D02*
X109554819Y-61701190D01*
X109554819Y-61701190D02*
X109602438Y-61796428D01*
X109602438Y-61796428D02*
X109650057Y-61844047D01*
X109650057Y-61844047D02*
X109792914Y-61939285D01*
X109792914Y-61939285D02*
X109983390Y-61986904D01*
X109983390Y-61986904D02*
X110364342Y-61986904D01*
X110364342Y-61986904D02*
X110459580Y-61939285D01*
X110459580Y-61939285D02*
X110507200Y-61891666D01*
X110507200Y-61891666D02*
X110554819Y-61796428D01*
X110554819Y-61796428D02*
X110554819Y-61605952D01*
X110554819Y-61605952D02*
X110507200Y-61510714D01*
X110507200Y-61510714D02*
X110459580Y-61463095D01*
X110459580Y-61463095D02*
X110364342Y-61415476D01*
X110364342Y-61415476D02*
X110126247Y-61415476D01*
X110126247Y-61415476D02*
X110031009Y-61463095D01*
X110031009Y-61463095D02*
X109983390Y-61510714D01*
X109983390Y-61510714D02*
X109935771Y-61605952D01*
X109935771Y-61605952D02*
X109935771Y-61796428D01*
X109935771Y-61796428D02*
X109983390Y-61891666D01*
X109983390Y-61891666D02*
X110031009Y-61939285D01*
X110031009Y-61939285D02*
X110126247Y-61986904D01*
X65254761Y-65104819D02*
X64921428Y-64628628D01*
X64683333Y-65104819D02*
X64683333Y-64104819D01*
X64683333Y-64104819D02*
X65064285Y-64104819D01*
X65064285Y-64104819D02*
X65159523Y-64152438D01*
X65159523Y-64152438D02*
X65207142Y-64200057D01*
X65207142Y-64200057D02*
X65254761Y-64295295D01*
X65254761Y-64295295D02*
X65254761Y-64438152D01*
X65254761Y-64438152D02*
X65207142Y-64533390D01*
X65207142Y-64533390D02*
X65159523Y-64581009D01*
X65159523Y-64581009D02*
X65064285Y-64628628D01*
X65064285Y-64628628D02*
X64683333Y-64628628D01*
X65873809Y-64628628D02*
X65873809Y-65104819D01*
X65540476Y-64104819D02*
X65873809Y-64628628D01*
X65873809Y-64628628D02*
X66207142Y-64104819D01*
X67064285Y-65104819D02*
X66492857Y-65104819D01*
X66778571Y-65104819D02*
X66778571Y-64104819D01*
X66778571Y-64104819D02*
X66683333Y-64247676D01*
X66683333Y-64247676D02*
X66588095Y-64342914D01*
X66588095Y-64342914D02*
X66492857Y-64390533D01*
D14*
%TO.C,J2*%
X115250000Y-72355000D02*
X102490000Y-72355000D01*
X102490000Y-69695000D02*
X102490000Y-72355000D01*
X115250000Y-69695000D02*
X115250000Y-72355000D01*
X115250000Y-69695000D02*
X102490000Y-69695000D01*
X116520000Y-69695000D02*
X117850000Y-69695000D01*
X117850000Y-69695000D02*
X117850000Y-71025000D01*
D15*
%TO.C,S1*%
X55850000Y-116075000D02*
X55850000Y-116750000D01*
X55850000Y-129725000D02*
X55850000Y-129050000D01*
X56700000Y-116075000D02*
X55850000Y-116075000D01*
X56800000Y-129725000D02*
X55850000Y-129725000D01*
X67900000Y-116075000D02*
X68600000Y-116075000D01*
X68600000Y-116075000D02*
X68600000Y-116575000D01*
X68600000Y-129150000D02*
X68600000Y-129725000D01*
X68600000Y-129725000D02*
X67800000Y-129725000D01*
D14*
%TO.C,R3*%
X71977064Y-112835000D02*
X70522936Y-112835000D01*
X71977064Y-111015000D02*
X70522936Y-111015000D01*
D16*
%TO.C,CON1*%
X117628400Y-94738100D02*
X103633000Y-94712700D01*
X117628400Y-81784100D02*
X117625000Y-85007100D01*
X117625000Y-91007100D02*
X117628400Y-94738100D01*
X103633000Y-94712700D02*
X103629000Y-81815800D01*
X103629000Y-81815800D02*
X117628400Y-81784100D01*
D17*
X116172800Y-95906500D02*
G75*
G03*
X115832800Y-95906500I-170000J0D01*
G01*
X115832800Y-95906500D02*
G75*
G03*
X116172800Y-95906500I170000J0D01*
G01*
D14*
%TO.C,C5*%
X102435000Y-61551248D02*
X102435000Y-62973752D01*
X100615000Y-61551248D02*
X100615000Y-62973752D01*
%TO.C,R4*%
X53852064Y-112835000D02*
X52397936Y-112835000D01*
X53852064Y-111015000D02*
X52397936Y-111015000D01*
%TO.C,J1*%
X117530000Y-134020000D02*
X117530000Y-135350000D01*
X116200000Y-134020000D02*
X117530000Y-134020000D01*
X114930000Y-134020000D02*
X76770000Y-134020000D01*
X114930000Y-134020000D02*
X114930000Y-136680000D01*
X76770000Y-134020000D02*
X76770000Y-136680000D01*
X114930000Y-136680000D02*
X76770000Y-136680000D01*
%TO.C,R10*%
X61610000Y-68045000D02*
X55070000Y-68045000D01*
X61610000Y-67715000D02*
X61610000Y-68045000D01*
X61610000Y-65635000D02*
X61610000Y-65305000D01*
X61610000Y-65305000D02*
X55070000Y-65305000D01*
X55070000Y-68045000D02*
X55070000Y-67715000D01*
X55070000Y-65305000D02*
X55070000Y-65635000D01*
%TO.C,RY2*%
X67840000Y-82835000D02*
X66640000Y-82835000D01*
X67040000Y-82835000D02*
X67440000Y-83535000D01*
X66640000Y-82835000D02*
X66640000Y-83535000D01*
X55140000Y-82835000D02*
X53940000Y-82835000D01*
X54340000Y-82835000D02*
X54740000Y-83535000D01*
X53940000Y-82835000D02*
X53940000Y-83535000D01*
X67840000Y-83535000D02*
X67840000Y-82835000D01*
X66640000Y-83535000D02*
X67840000Y-83535000D01*
X55140000Y-83535000D02*
X55140000Y-82835000D01*
X53940000Y-83535000D02*
X55140000Y-83535000D01*
X68530000Y-87135000D02*
X68530000Y-79355000D01*
X53250000Y-87135000D02*
X53250000Y-79355000D01*
%TO.C,kibuzzard-659F9955*%
G36*
X117139990Y-127205834D02*
G01*
X117229113Y-127219055D01*
X117316512Y-127240947D01*
X117401343Y-127271300D01*
X117482791Y-127309822D01*
X117560071Y-127356142D01*
X117632439Y-127409814D01*
X117699198Y-127470320D01*
X117759704Y-127537079D01*
X117813376Y-127609446D01*
X117859696Y-127686726D01*
X117898218Y-127768174D01*
X117928571Y-127853006D01*
X117950463Y-127940404D01*
X117963683Y-128029528D01*
X117968104Y-128119518D01*
X117968104Y-128119650D01*
X117968104Y-131180350D01*
X117968104Y-131180482D01*
X117963683Y-131270472D01*
X117950463Y-131359596D01*
X117928571Y-131446994D01*
X117898218Y-131531826D01*
X117859696Y-131613274D01*
X117813376Y-131690554D01*
X117759704Y-131762921D01*
X117699198Y-131829680D01*
X117632439Y-131890186D01*
X117560071Y-131943858D01*
X117482791Y-131990178D01*
X117401343Y-132028700D01*
X117316512Y-132059053D01*
X117229113Y-132080945D01*
X117139990Y-132094166D01*
X117050000Y-132098586D01*
X116960010Y-132094166D01*
X116870887Y-132080945D01*
X116783488Y-132059053D01*
X116698657Y-132028700D01*
X116617209Y-131990178D01*
X116539929Y-131943858D01*
X116467561Y-131890186D01*
X116400802Y-131829680D01*
X116340296Y-131762921D01*
X116286624Y-131690554D01*
X116240304Y-131613274D01*
X116201782Y-131531826D01*
X116171429Y-131446994D01*
X116149537Y-131359596D01*
X116136317Y-131270472D01*
X116131896Y-131180482D01*
X116131896Y-131180350D01*
X116131896Y-130862850D01*
X116462625Y-130862850D01*
X116470739Y-130965420D01*
X116495081Y-131046647D01*
X116535650Y-131106531D01*
X116595269Y-131147542D01*
X116676761Y-131172148D01*
X116780125Y-131180350D01*
X117637375Y-131180350D01*
X117637375Y-131007312D01*
X116811875Y-131007312D01*
X116708092Y-130999375D01*
X116644394Y-130975562D01*
X116600737Y-130866025D01*
X116611850Y-130799747D01*
X116645187Y-130756487D01*
X116709084Y-130732675D01*
X116811875Y-130724737D01*
X117637375Y-130724737D01*
X117637375Y-130545350D01*
X116780125Y-130545350D01*
X116676761Y-130553552D01*
X116595269Y-130578158D01*
X116535650Y-130619169D01*
X116495081Y-130679053D01*
X116470739Y-130760280D01*
X116462625Y-130862850D01*
X116131896Y-130862850D01*
X116131896Y-129767475D01*
X116478500Y-129767475D01*
X116478500Y-129942100D01*
X117319875Y-129942100D01*
X117319875Y-129945275D01*
X116478500Y-130192925D01*
X116478500Y-130370725D01*
X117637375Y-130370725D01*
X117637375Y-130204037D01*
X116796000Y-130204037D01*
X116796000Y-130199275D01*
X117637375Y-129951625D01*
X117637375Y-129767475D01*
X116478500Y-129767475D01*
X116131896Y-129767475D01*
X116131896Y-129556337D01*
X116478500Y-129556337D01*
X116616612Y-129556337D01*
X116616612Y-129178512D01*
X117034125Y-129178512D01*
X117034125Y-129540462D01*
X117169062Y-129540462D01*
X117169062Y-129178512D01*
X117499263Y-129178512D01*
X117499263Y-129556337D01*
X117637375Y-129556337D01*
X117637375Y-129000712D01*
X116478500Y-129000712D01*
X116478500Y-129556337D01*
X116131896Y-129556337D01*
X116131896Y-128275225D01*
X116478500Y-128275225D01*
X117462750Y-128302212D01*
X117462750Y-128306975D01*
X116748375Y-128397462D01*
X116748375Y-128548275D01*
X117462750Y-128646700D01*
X117462750Y-128648287D01*
X116478500Y-128672100D01*
X116478500Y-128841962D01*
X117637375Y-128783225D01*
X117637375Y-128583200D01*
X116899187Y-128487950D01*
X116899187Y-128484775D01*
X117637375Y-128387937D01*
X117637375Y-128179975D01*
X116478500Y-128119650D01*
X116478500Y-128275225D01*
X116131896Y-128275225D01*
X116131896Y-128119650D01*
X116131896Y-128119518D01*
X116136317Y-128029528D01*
X116149537Y-127940404D01*
X116171429Y-127853006D01*
X116201782Y-127768174D01*
X116240304Y-127686726D01*
X116286624Y-127609446D01*
X116340296Y-127537079D01*
X116400802Y-127470320D01*
X116467561Y-127409814D01*
X116539929Y-127356142D01*
X116617209Y-127309822D01*
X116698657Y-127271300D01*
X116783488Y-127240947D01*
X116870887Y-127219055D01*
X116960010Y-127205834D01*
X117050000Y-127201414D01*
X117139990Y-127205834D01*
G37*
D11*
%TO.C,U5*%
X88600000Y-73450000D02*
X88600000Y-74125000D01*
X88600000Y-73450000D02*
X89275000Y-73450000D01*
X88600000Y-83800000D02*
X88600000Y-83125000D01*
X88600000Y-83800000D02*
X89275000Y-83800000D01*
X98950000Y-73450000D02*
X98275000Y-73450000D01*
X98950000Y-73450000D02*
X98950000Y-74125000D01*
X98950000Y-83225000D02*
X100225000Y-83225000D01*
X98950000Y-83800000D02*
X98275000Y-83800000D01*
X98950000Y-83800000D02*
X98950000Y-83225000D01*
D18*
%TO.C,U3*%
X67300000Y-109100000D02*
X60400000Y-109100000D01*
X67300000Y-101500000D02*
X67300000Y-109100000D01*
X60400000Y-109100000D02*
X60400000Y-101500000D01*
X60400000Y-101500000D02*
X67300000Y-101500000D01*
X58450000Y-101785000D02*
X60050000Y-101785000D01*
D14*
%TO.C,R8*%
X85440000Y-132052064D02*
X85440000Y-130597936D01*
X87260000Y-132052064D02*
X87260000Y-130597936D01*
%TO.C,C8*%
X70673752Y-98365000D02*
X69251248Y-98365000D01*
X70673752Y-100185000D02*
X69251248Y-100185000D01*
%TO.C,Q2*%
X52512500Y-115965000D02*
X50837500Y-115965000D01*
X52512500Y-115965000D02*
X53162500Y-115965000D01*
X52512500Y-119085000D02*
X51862500Y-119085000D01*
X52512500Y-119085000D02*
X53162500Y-119085000D01*
%TO.C,R2*%
X61715000Y-95077064D02*
X61715000Y-93622936D01*
X63535000Y-95077064D02*
X63535000Y-93622936D01*
%TO.C,R13*%
X83020000Y-68940000D02*
X83020000Y-75480000D01*
X82690000Y-68940000D02*
X83020000Y-68940000D01*
X80610000Y-68940000D02*
X80280000Y-68940000D01*
X80280000Y-68940000D02*
X80280000Y-75480000D01*
X83020000Y-75480000D02*
X82690000Y-75480000D01*
X80280000Y-75480000D02*
X80610000Y-75480000D01*
%TO.C,kibuzzard-659F9941*%
G36*
X102478078Y-127017406D02*
G01*
X102553881Y-127091225D01*
X102586513Y-127173069D01*
X102606092Y-127287369D01*
X102612619Y-127434125D01*
X102606181Y-127596226D01*
X102586866Y-127720581D01*
X102554675Y-127807188D01*
X102479070Y-127883388D01*
X102368144Y-127908787D01*
X102296706Y-127894500D01*
X102296706Y-127007087D01*
X102368144Y-126992800D01*
X102478078Y-127017406D01*
G37*
G36*
X104604153Y-126528417D02*
G01*
X104694047Y-126541752D01*
X104782201Y-126563833D01*
X104867766Y-126594449D01*
X104949918Y-126633304D01*
X105027867Y-126680024D01*
X105100860Y-126734160D01*
X105168196Y-126795190D01*
X105229225Y-126862525D01*
X105283361Y-126935519D01*
X105330081Y-127013467D01*
X105368936Y-127095619D01*
X105399552Y-127181184D01*
X105421633Y-127269338D01*
X105434968Y-127359232D01*
X105439427Y-127450000D01*
X105434968Y-127540768D01*
X105421633Y-127630662D01*
X105399552Y-127718816D01*
X105368936Y-127804381D01*
X105330081Y-127886533D01*
X105283361Y-127964481D01*
X105229225Y-128037475D01*
X105168196Y-128104810D01*
X105100860Y-128165840D01*
X105027867Y-128219976D01*
X104949918Y-128266696D01*
X104867766Y-128305551D01*
X104782201Y-128336167D01*
X104694047Y-128358248D01*
X104604153Y-128371583D01*
X104513385Y-128376042D01*
X104381094Y-128376042D01*
X103814356Y-128376042D01*
X103496856Y-128376042D01*
X102368144Y-128376042D01*
X102118906Y-128376042D01*
X101986615Y-128376042D01*
X101895847Y-128371583D01*
X101805953Y-128358248D01*
X101717799Y-128336167D01*
X101632234Y-128305551D01*
X101550082Y-128266696D01*
X101472133Y-128219976D01*
X101399140Y-128165840D01*
X101331804Y-128104810D01*
X101270775Y-128037475D01*
X101253041Y-128013563D01*
X102118906Y-128013563D01*
X102238366Y-128037375D01*
X102368144Y-128045312D01*
X102499906Y-128031620D01*
X102603094Y-127990544D01*
X102681477Y-127915733D01*
X102738825Y-127800838D01*
X102764842Y-127700119D01*
X102780453Y-127577882D01*
X102785656Y-127434125D01*
X102779554Y-127285743D01*
X102761248Y-127161273D01*
X102730739Y-127060715D01*
X102688025Y-126984069D01*
X102609091Y-126912190D01*
X102506173Y-126870563D01*
X102957106Y-126870563D01*
X102957106Y-127008675D01*
X103134906Y-127008675D01*
X103134906Y-127891325D01*
X102957106Y-127891325D01*
X102957106Y-128029437D01*
X103496856Y-128029437D01*
X103658781Y-128029437D01*
X103814356Y-128029437D01*
X103841344Y-127045187D01*
X103846106Y-127045187D01*
X103936594Y-127759563D01*
X104087406Y-127759563D01*
X104185831Y-127045187D01*
X104187419Y-127045187D01*
X104211231Y-128029437D01*
X104381094Y-128029437D01*
X104322356Y-126870563D01*
X104122331Y-126870563D01*
X104027081Y-127608750D01*
X104023906Y-127608750D01*
X103927069Y-126870563D01*
X103719106Y-126870563D01*
X103658781Y-128029437D01*
X103496856Y-128029437D01*
X103496856Y-127891325D01*
X103319056Y-127891325D01*
X103319056Y-127008675D01*
X103496856Y-127008675D01*
X103496856Y-126870563D01*
X102957106Y-126870563D01*
X102506173Y-126870563D01*
X102502464Y-126869063D01*
X102368144Y-126854687D01*
X102243128Y-126862625D01*
X102118906Y-126886437D01*
X102118906Y-128013563D01*
X101253041Y-128013563D01*
X101216639Y-127964481D01*
X101169919Y-127886533D01*
X101131064Y-127804381D01*
X101100448Y-127718816D01*
X101078367Y-127630662D01*
X101065032Y-127540768D01*
X101060573Y-127450000D01*
X101065032Y-127359232D01*
X101078367Y-127269338D01*
X101100448Y-127181184D01*
X101131064Y-127095619D01*
X101169919Y-127013467D01*
X101216639Y-126935519D01*
X101270775Y-126862525D01*
X101331804Y-126795190D01*
X101399140Y-126734160D01*
X101472133Y-126680024D01*
X101550082Y-126633304D01*
X101632234Y-126594449D01*
X101717799Y-126563833D01*
X101805953Y-126541752D01*
X101895847Y-126528417D01*
X101986615Y-126523958D01*
X102118906Y-126523958D01*
X104381094Y-126523958D01*
X104513385Y-126523958D01*
X104604153Y-126528417D01*
G37*
%TO.C,C9*%
X103865000Y-75076248D02*
X103865000Y-76498752D01*
X105685000Y-75076248D02*
X105685000Y-76498752D01*
%TO.C,C2*%
X60920000Y-132355000D02*
X60675000Y-132355000D01*
X60920000Y-132355000D02*
X60920000Y-135995000D01*
X58825000Y-132355000D02*
X58580000Y-132355000D01*
X58580000Y-132355000D02*
X58580000Y-135995000D01*
X60920000Y-135995000D02*
X60675000Y-135995000D01*
X58825000Y-135995000D02*
X58580000Y-135995000D01*
%TO.C,R11*%
X67995000Y-68915000D02*
X67995000Y-75455000D01*
X67665000Y-68915000D02*
X67995000Y-68915000D01*
X65585000Y-68915000D02*
X65255000Y-68915000D01*
X65255000Y-68915000D02*
X65255000Y-75455000D01*
X67995000Y-75455000D02*
X67665000Y-75455000D01*
X65255000Y-75455000D02*
X65585000Y-75455000D01*
%TO.C,R1*%
X100990000Y-132052064D02*
X100990000Y-130597936D01*
X102810000Y-132052064D02*
X102810000Y-130597936D01*
%TO.C,R7*%
X71540000Y-130777064D02*
X71540000Y-129322936D01*
X73360000Y-130777064D02*
X73360000Y-129322936D01*
%TO.C,C11*%
X117445000Y-57575000D02*
G75*
G03*
X110905000Y-57575000I-3270000J0D01*
G01*
X110905000Y-57575000D02*
G75*
G03*
X117445000Y-57575000I3270000J0D01*
G01*
X110934000Y-57977000D02*
X110934000Y-57173000D01*
X110974000Y-58208000D02*
X110974000Y-56942000D01*
X111014000Y-58377000D02*
X111014000Y-56773000D01*
X111054000Y-58515000D02*
X111054000Y-56635000D01*
X111094000Y-58634000D02*
X111094000Y-56516000D01*
X111134000Y-58740000D02*
X111134000Y-56410000D01*
X111174000Y-58837000D02*
X111174000Y-56313000D01*
X111214000Y-58925000D02*
X111214000Y-56225000D01*
X111254000Y-59007000D02*
X111254000Y-56143000D01*
X111294000Y-59084000D02*
X111294000Y-56066000D01*
X111334000Y-59156000D02*
X111334000Y-55994000D01*
X111374000Y-59225000D02*
X111374000Y-55925000D01*
X111414000Y-59289000D02*
X111414000Y-55861000D01*
X111454000Y-59351000D02*
X111454000Y-55799000D01*
X111494000Y-59409000D02*
X111494000Y-55741000D01*
X111534000Y-59465000D02*
X111534000Y-55685000D01*
X111574000Y-59519000D02*
X111574000Y-55631000D01*
X111614000Y-59570000D02*
X111614000Y-55580000D01*
X111654000Y-59619000D02*
X111654000Y-55531000D01*
X111694000Y-59667000D02*
X111694000Y-55483000D01*
X111734000Y-59712000D02*
X111734000Y-55438000D01*
X111774000Y-59757000D02*
X111774000Y-55393000D01*
X111814000Y-59799000D02*
X111814000Y-55351000D01*
X111854000Y-59840000D02*
X111854000Y-55310000D01*
X111894000Y-56535000D02*
X111894000Y-55270000D01*
X111894000Y-59880000D02*
X111894000Y-58615000D01*
X111934000Y-56535000D02*
X111934000Y-55232000D01*
X111934000Y-59918000D02*
X111934000Y-58615000D01*
X111974000Y-56535000D02*
X111974000Y-55195000D01*
X111974000Y-59955000D02*
X111974000Y-58615000D01*
X112014000Y-56535000D02*
X112014000Y-55159000D01*
X112014000Y-59991000D02*
X112014000Y-58615000D01*
X112054000Y-56535000D02*
X112054000Y-55125000D01*
X112054000Y-60025000D02*
X112054000Y-58615000D01*
X112094000Y-56535000D02*
X112094000Y-55091000D01*
X112094000Y-60059000D02*
X112094000Y-58615000D01*
X112134000Y-56535000D02*
X112134000Y-55059000D01*
X112134000Y-60091000D02*
X112134000Y-58615000D01*
X112174000Y-56535000D02*
X112174000Y-55027000D01*
X112174000Y-60123000D02*
X112174000Y-58615000D01*
X112214000Y-56535000D02*
X112214000Y-54997000D01*
X112214000Y-60153000D02*
X112214000Y-58615000D01*
X112254000Y-56535000D02*
X112254000Y-54968000D01*
X112254000Y-60182000D02*
X112254000Y-58615000D01*
X112294000Y-56535000D02*
X112294000Y-54939000D01*
X112294000Y-60211000D02*
X112294000Y-58615000D01*
X112334000Y-56535000D02*
X112334000Y-54911000D01*
X112334000Y-60239000D02*
X112334000Y-58615000D01*
X112374000Y-56535000D02*
X112374000Y-54885000D01*
X112374000Y-60265000D02*
X112374000Y-58615000D01*
X112414000Y-56535000D02*
X112414000Y-54859000D01*
X112414000Y-60291000D02*
X112414000Y-58615000D01*
X112454000Y-56535000D02*
X112454000Y-54833000D01*
X112454000Y-60317000D02*
X112454000Y-58615000D01*
X112494000Y-56535000D02*
X112494000Y-54809000D01*
X112494000Y-60341000D02*
X112494000Y-58615000D01*
X112534000Y-56535000D02*
X112534000Y-54785000D01*
X112534000Y-60365000D02*
X112534000Y-58615000D01*
X112574000Y-56535000D02*
X112574000Y-54763000D01*
X112574000Y-60387000D02*
X112574000Y-58615000D01*
X112614000Y-56535000D02*
X112614000Y-54741000D01*
X112614000Y-60409000D02*
X112614000Y-58615000D01*
X112654000Y-56535000D02*
X112654000Y-54719000D01*
X112654000Y-60431000D02*
X112654000Y-58615000D01*
X112694000Y-56535000D02*
X112694000Y-54699000D01*
X112694000Y-60451000D02*
X112694000Y-58615000D01*
X112734000Y-56535000D02*
X112734000Y-54679000D01*
X112734000Y-60471000D02*
X112734000Y-58615000D01*
X112774000Y-56535000D02*
X112774000Y-54659000D01*
X112774000Y-60491000D02*
X112774000Y-58615000D01*
X112814000Y-56535000D02*
X112814000Y-54641000D01*
X112814000Y-60509000D02*
X112814000Y-58615000D01*
X112854000Y-56535000D02*
X112854000Y-54623000D01*
X112854000Y-60527000D02*
X112854000Y-58615000D01*
X112894000Y-56535000D02*
X112894000Y-54605000D01*
X112894000Y-60545000D02*
X112894000Y-58615000D01*
X112934000Y-56535000D02*
X112934000Y-54589000D01*
X112934000Y-60561000D02*
X112934000Y-58615000D01*
X112974000Y-56535000D02*
X112974000Y-54573000D01*
X112974000Y-60577000D02*
X112974000Y-58615000D01*
X113014000Y-56535000D02*
X113014000Y-54557000D01*
X113014000Y-60593000D02*
X113014000Y-58615000D01*
X113054000Y-56535000D02*
X113054000Y-54542000D01*
X113054000Y-60608000D02*
X113054000Y-58615000D01*
X113094000Y-56535000D02*
X113094000Y-54528000D01*
X113094000Y-60622000D02*
X113094000Y-58615000D01*
X113134000Y-56535000D02*
X113134000Y-54514000D01*
X113134000Y-60636000D02*
X113134000Y-58615000D01*
X113174000Y-56535000D02*
X113174000Y-54501000D01*
X113174000Y-60649000D02*
X113174000Y-58615000D01*
X113214000Y-56535000D02*
X113214000Y-54489000D01*
X113214000Y-60661000D02*
X113214000Y-58615000D01*
X113254000Y-56535000D02*
X113254000Y-54477000D01*
X113254000Y-60673000D02*
X113254000Y-58615000D01*
X113294000Y-56535000D02*
X113294000Y-54465000D01*
X113294000Y-60685000D02*
X113294000Y-58615000D01*
X113334000Y-56535000D02*
X113334000Y-54454000D01*
X113334000Y-60696000D02*
X113334000Y-58615000D01*
X113374000Y-56535000D02*
X113374000Y-54444000D01*
X113374000Y-60706000D02*
X113374000Y-58615000D01*
X113414000Y-56535000D02*
X113414000Y-54434000D01*
X113414000Y-60716000D02*
X113414000Y-58615000D01*
X113454000Y-56535000D02*
X113454000Y-54425000D01*
X113454000Y-60725000D02*
X113454000Y-58615000D01*
X113495000Y-56535000D02*
X113495000Y-54416000D01*
X113495000Y-60734000D02*
X113495000Y-58615000D01*
X113535000Y-56535000D02*
X113535000Y-54408000D01*
X113535000Y-60742000D02*
X113535000Y-58615000D01*
X113575000Y-56535000D02*
X113575000Y-54400000D01*
X113575000Y-60750000D02*
X113575000Y-58615000D01*
X113615000Y-56535000D02*
X113615000Y-54393000D01*
X113615000Y-60757000D02*
X113615000Y-58615000D01*
X113655000Y-56535000D02*
X113655000Y-54386000D01*
X113655000Y-60764000D02*
X113655000Y-58615000D01*
X113695000Y-56535000D02*
X113695000Y-54380000D01*
X113695000Y-60770000D02*
X113695000Y-58615000D01*
X113735000Y-56535000D02*
X113735000Y-54374000D01*
X113735000Y-60776000D02*
X113735000Y-58615000D01*
X113775000Y-56535000D02*
X113775000Y-54369000D01*
X113775000Y-60781000D02*
X113775000Y-58615000D01*
X113815000Y-56535000D02*
X113815000Y-54364000D01*
X113815000Y-60786000D02*
X113815000Y-58615000D01*
X113855000Y-56535000D02*
X113855000Y-54360000D01*
X113855000Y-60790000D02*
X113855000Y-58615000D01*
X113895000Y-56535000D02*
X113895000Y-54357000D01*
X113895000Y-60793000D02*
X113895000Y-58615000D01*
X113935000Y-56535000D02*
X113935000Y-54353000D01*
X113935000Y-60797000D02*
X113935000Y-58615000D01*
X113975000Y-60799000D02*
X113975000Y-54351000D01*
X114015000Y-60802000D02*
X114015000Y-54348000D01*
X114055000Y-60803000D02*
X114055000Y-54347000D01*
X114095000Y-60805000D02*
X114095000Y-54345000D01*
X114135000Y-60805000D02*
X114135000Y-54345000D01*
X114175000Y-60805000D02*
X114175000Y-54345000D01*
X117360241Y-59729000D02*
X117360241Y-59099000D01*
X117675241Y-59414000D02*
X117045241Y-59414000D01*
%TO.C,kibuzzard-6406D9A6*%
G36*
X109522881Y-97339700D02*
G01*
X109305394Y-97339700D01*
X109413344Y-96795187D01*
X109414931Y-96795187D01*
X109522881Y-97339700D01*
G37*
G36*
X108681308Y-96757484D02*
G01*
X108741037Y-96801537D01*
X108776161Y-96878531D01*
X108787869Y-96992037D01*
X108776161Y-97114077D01*
X108741037Y-97194444D01*
X108681308Y-97239092D01*
X108595781Y-97253975D01*
X108503706Y-97242862D01*
X108503706Y-96755500D01*
X108595781Y-96742800D01*
X108681308Y-96757484D01*
G37*
G36*
X110256703Y-96767406D02*
G01*
X110332506Y-96841225D01*
X110365138Y-96923069D01*
X110384717Y-97037369D01*
X110391244Y-97184125D01*
X110384806Y-97346226D01*
X110365491Y-97470581D01*
X110333300Y-97557188D01*
X110257695Y-97633388D01*
X110146769Y-97658787D01*
X110075331Y-97644500D01*
X110075331Y-96757087D01*
X110146769Y-96742800D01*
X110256703Y-96767406D01*
G37*
G36*
X111050453Y-96767406D02*
G01*
X111126256Y-96841225D01*
X111158888Y-96923069D01*
X111178467Y-97037369D01*
X111184994Y-97184125D01*
X111178556Y-97346226D01*
X111159241Y-97470581D01*
X111127050Y-97557188D01*
X111051445Y-97633388D01*
X110940519Y-97658787D01*
X110869081Y-97644500D01*
X110869081Y-96757087D01*
X110940519Y-96742800D01*
X111050453Y-96767406D01*
G37*
G36*
X113295591Y-96278417D02*
G01*
X113385485Y-96291752D01*
X113473639Y-96313833D01*
X113559204Y-96344449D01*
X113641356Y-96383304D01*
X113719304Y-96430024D01*
X113792298Y-96484160D01*
X113859633Y-96545190D01*
X113920663Y-96612525D01*
X113974798Y-96685519D01*
X114021519Y-96763467D01*
X114060374Y-96845619D01*
X114090990Y-96931184D01*
X114113071Y-97019338D01*
X114126405Y-97109232D01*
X114130865Y-97200000D01*
X114126405Y-97290768D01*
X114113071Y-97380662D01*
X114090990Y-97468816D01*
X114060374Y-97554381D01*
X114021519Y-97636533D01*
X113974798Y-97714481D01*
X113920663Y-97787475D01*
X113859633Y-97854810D01*
X113792298Y-97915840D01*
X113719304Y-97969976D01*
X113641356Y-98016696D01*
X113559204Y-98055551D01*
X113473639Y-98086167D01*
X113385485Y-98108248D01*
X113295591Y-98121583D01*
X113204823Y-98126042D01*
X112874094Y-98126042D01*
X112100981Y-98126042D01*
X110940519Y-98126042D01*
X110146769Y-98126042D01*
X109040281Y-98126042D01*
X108503706Y-98126042D01*
X108325906Y-98126042D01*
X107995177Y-98126042D01*
X107904409Y-98121583D01*
X107814515Y-98108248D01*
X107726361Y-98086167D01*
X107640796Y-98055551D01*
X107558644Y-98016696D01*
X107480696Y-97969976D01*
X107407702Y-97915840D01*
X107340367Y-97854810D01*
X107279337Y-97787475D01*
X107273376Y-97779437D01*
X108325906Y-97779437D01*
X108503706Y-97779437D01*
X109040281Y-97779437D01*
X109218081Y-97779437D01*
X109278406Y-97474638D01*
X109549869Y-97474638D01*
X109610194Y-97779437D01*
X109794344Y-97779437D01*
X109790582Y-97763563D01*
X109897531Y-97763563D01*
X110016991Y-97787375D01*
X110146769Y-97795312D01*
X110278531Y-97781620D01*
X110323892Y-97763563D01*
X110691281Y-97763563D01*
X110810741Y-97787375D01*
X110940519Y-97795312D01*
X111072281Y-97781620D01*
X111175469Y-97740544D01*
X111253852Y-97665733D01*
X111311200Y-97550838D01*
X111337217Y-97450119D01*
X111352828Y-97327882D01*
X111358031Y-97184125D01*
X111351929Y-97035743D01*
X111333623Y-96911273D01*
X111303114Y-96810715D01*
X111260400Y-96734069D01*
X111181466Y-96662190D01*
X111078548Y-96620563D01*
X111553294Y-96620563D01*
X111553294Y-97779437D01*
X112100981Y-97779437D01*
X112100981Y-97641325D01*
X111731094Y-97641325D01*
X111731094Y-96620563D01*
X112318469Y-96620563D01*
X112318469Y-97779437D01*
X112874094Y-97779437D01*
X112874094Y-97641325D01*
X112496269Y-97641325D01*
X112496269Y-97223812D01*
X112858219Y-97223812D01*
X112858219Y-97088875D01*
X112496269Y-97088875D01*
X112496269Y-96758675D01*
X112874094Y-96758675D01*
X112874094Y-96620563D01*
X112318469Y-96620563D01*
X111731094Y-96620563D01*
X111553294Y-96620563D01*
X111078548Y-96620563D01*
X111074839Y-96619063D01*
X110940519Y-96604687D01*
X110815503Y-96612625D01*
X110691281Y-96636437D01*
X110691281Y-97763563D01*
X110323892Y-97763563D01*
X110381719Y-97740544D01*
X110460102Y-97665733D01*
X110517450Y-97550838D01*
X110543467Y-97450119D01*
X110559078Y-97327882D01*
X110564281Y-97184125D01*
X110558179Y-97035743D01*
X110539873Y-96911273D01*
X110509364Y-96810715D01*
X110466650Y-96734069D01*
X110387716Y-96662190D01*
X110281089Y-96619063D01*
X110146769Y-96604687D01*
X110021753Y-96612625D01*
X109897531Y-96636437D01*
X109897531Y-97763563D01*
X109790582Y-97763563D01*
X109519706Y-96620563D01*
X109313331Y-96620563D01*
X109040281Y-97779437D01*
X108503706Y-97779437D01*
X108503706Y-97382563D01*
X108595781Y-97390500D01*
X108708935Y-97379917D01*
X108800745Y-97348167D01*
X108871212Y-97295250D01*
X108921042Y-97219226D01*
X108950940Y-97118156D01*
X108960906Y-96992037D01*
X108951205Y-96868124D01*
X108922101Y-96769435D01*
X108873594Y-96695969D01*
X108803920Y-96645257D01*
X108711316Y-96614830D01*
X108595781Y-96604687D01*
X108504412Y-96608215D01*
X108414453Y-96618799D01*
X108325906Y-96636437D01*
X108325906Y-97779437D01*
X107273376Y-97779437D01*
X107225202Y-97714481D01*
X107178481Y-97636533D01*
X107139626Y-97554381D01*
X107109010Y-97468816D01*
X107086929Y-97380662D01*
X107073595Y-97290768D01*
X107069135Y-97200000D01*
X107073595Y-97109232D01*
X107086929Y-97019338D01*
X107109010Y-96931184D01*
X107139626Y-96845619D01*
X107178481Y-96763467D01*
X107225202Y-96685519D01*
X107279337Y-96612525D01*
X107340367Y-96545190D01*
X107407702Y-96484160D01*
X107480696Y-96430024D01*
X107558644Y-96383304D01*
X107640796Y-96344449D01*
X107726361Y-96313833D01*
X107814515Y-96291752D01*
X107904409Y-96278417D01*
X107995177Y-96273958D01*
X108325906Y-96273958D01*
X112874094Y-96273958D01*
X113204823Y-96273958D01*
X113295591Y-96278417D01*
G37*
D15*
%TO.C,Q5*%
X68950000Y-70425000D02*
X69250000Y-70275000D01*
X68950000Y-70725000D02*
X68950000Y-70425000D01*
X68950000Y-75125000D02*
X68950000Y-74825000D01*
X68950000Y-75125000D02*
X69250000Y-75275000D01*
D11*
X72100000Y-74725000D02*
G75*
G03*
X72150000Y-70875000I-1900000J1950000D01*
G01*
D14*
%TO.C,SW2*%
X83400000Y-130825000D02*
X83400000Y-129325000D01*
X82150000Y-126825000D02*
X77650000Y-126825000D01*
X77650000Y-133325000D02*
X82150000Y-133325000D01*
X76400000Y-129325000D02*
X76400000Y-130825000D01*
%TO.C,R12*%
X77110000Y-68045000D02*
X70570000Y-68045000D01*
X77110000Y-67715000D02*
X77110000Y-68045000D01*
X77110000Y-65635000D02*
X77110000Y-65305000D01*
X77110000Y-65305000D02*
X70570000Y-65305000D01*
X70570000Y-68045000D02*
X70570000Y-67715000D01*
X70570000Y-65305000D02*
X70570000Y-65635000D01*
D15*
%TO.C,DS1*%
X117125000Y-101450000D02*
X117125000Y-122950000D01*
X115425000Y-124450000D02*
X104925000Y-124450000D01*
X87925000Y-124450000D02*
X77425000Y-124450000D01*
X77425000Y-100150000D02*
X115425000Y-100150000D01*
X75725000Y-122950000D02*
X75725000Y-101450000D01*
D16*
%TO.C,J10*%
X99400000Y-50086500D02*
X99400000Y-64486500D01*
X97550000Y-50086500D02*
X99400000Y-50086500D01*
X86550000Y-50086500D02*
X97550000Y-50086500D01*
X84700000Y-50086500D02*
X86550000Y-50086500D01*
X99400000Y-64486500D02*
X84700000Y-64486500D01*
X84700000Y-64486500D02*
X84700000Y-50086500D01*
D18*
X92150000Y-64958500D02*
G75*
G03*
X91950000Y-64958500I-100000J0D01*
G01*
X91950000Y-64958500D02*
G75*
G03*
X92150000Y-64958500I100000J0D01*
G01*
D14*
%TO.C,R5*%
X71665000Y-124652064D02*
X71665000Y-123197936D01*
X73485000Y-124652064D02*
X73485000Y-123197936D01*
%TO.C,C10*%
X111826248Y-65235000D02*
X113248752Y-65235000D01*
X111826248Y-63415000D02*
X113248752Y-63415000D01*
D15*
%TO.C,Q3*%
X53675000Y-70500000D02*
X53975000Y-70350000D01*
X53675000Y-70800000D02*
X53675000Y-70500000D01*
X53675000Y-75200000D02*
X53675000Y-74900000D01*
X53675000Y-75200000D02*
X53975000Y-75350000D01*
D11*
X56825000Y-74800000D02*
G75*
G03*
X56875000Y-70950000I-1900000J1950000D01*
G01*
%TO.C,kibuzzard-6406DC87*%
G36*
X88724319Y-66864700D02*
G01*
X88506831Y-66864700D01*
X88614781Y-66320187D01*
X88616369Y-66320187D01*
X88724319Y-66864700D01*
G37*
G36*
X93486819Y-66864700D02*
G01*
X93269331Y-66864700D01*
X93377281Y-66320187D01*
X93378869Y-66320187D01*
X93486819Y-66864700D01*
G37*
G36*
X93847625Y-65819216D02*
G01*
X93935978Y-65832322D01*
X94022621Y-65854025D01*
X94106719Y-65884116D01*
X94187463Y-65922305D01*
X94264075Y-65968224D01*
X94335817Y-66021432D01*
X94401999Y-66081415D01*
X94461982Y-66147596D01*
X94515189Y-66219338D01*
X94561109Y-66295950D01*
X94599298Y-66376694D01*
X94629389Y-66460793D01*
X94651092Y-66547435D01*
X94664197Y-66635788D01*
X94668580Y-66725000D01*
X94664197Y-66814212D01*
X94651092Y-66902565D01*
X94629389Y-66989207D01*
X94599298Y-67073306D01*
X94561109Y-67154050D01*
X94515189Y-67230662D01*
X94461982Y-67302404D01*
X94401999Y-67368585D01*
X94335817Y-67428568D01*
X94264075Y-67481776D01*
X94187463Y-67527695D01*
X94106719Y-67565884D01*
X94022621Y-67595975D01*
X93935978Y-67617678D01*
X93847625Y-67630784D01*
X93758414Y-67635167D01*
X93758281Y-67635167D01*
X93004219Y-67635167D01*
X92286669Y-67635167D01*
X91492919Y-67635167D01*
X91281781Y-67635167D01*
X90295944Y-67635167D01*
X89111669Y-67635167D01*
X88241719Y-67635167D01*
X88241586Y-67635167D01*
X88152375Y-67630784D01*
X88064022Y-67617678D01*
X87977379Y-67595975D01*
X87893281Y-67565884D01*
X87812537Y-67527695D01*
X87735925Y-67481776D01*
X87664183Y-67428568D01*
X87598001Y-67368585D01*
X87539861Y-67304437D01*
X88241719Y-67304437D01*
X88419519Y-67304437D01*
X88479844Y-66999638D01*
X88751306Y-66999638D01*
X88811631Y-67304437D01*
X88995781Y-67304437D01*
X88721144Y-66145563D01*
X89111669Y-66145563D01*
X89111669Y-67304437D01*
X89286294Y-67304437D01*
X89286294Y-66463062D01*
X89289469Y-66463062D01*
X89537119Y-67304437D01*
X89714919Y-67304437D01*
X89714919Y-66145563D01*
X89881606Y-66145563D01*
X89881606Y-66283675D01*
X90118144Y-66283675D01*
X90118144Y-67304437D01*
X90295944Y-67304437D01*
X90295944Y-66283675D01*
X90532481Y-66283675D01*
X90532481Y-66145563D01*
X90726156Y-66145563D01*
X90726156Y-67304437D01*
X91281781Y-67304437D01*
X91281781Y-67166325D01*
X90903956Y-67166325D01*
X90903956Y-66748812D01*
X91265906Y-66748812D01*
X91265906Y-66613875D01*
X90903956Y-66613875D01*
X90903956Y-66283675D01*
X91281781Y-66283675D01*
X91281781Y-66145563D01*
X91492919Y-66145563D01*
X91492919Y-67304437D01*
X91667544Y-67304437D01*
X91667544Y-66463062D01*
X91670719Y-66463062D01*
X91918369Y-67304437D01*
X92096169Y-67304437D01*
X92096169Y-66145563D01*
X92286669Y-66145563D01*
X92286669Y-67304437D01*
X92461294Y-67304437D01*
X92461294Y-66463062D01*
X92464469Y-66463062D01*
X92712119Y-67304437D01*
X92889919Y-67304437D01*
X93004219Y-67304437D01*
X93182019Y-67304437D01*
X93242344Y-66999638D01*
X93513806Y-66999638D01*
X93574131Y-67304437D01*
X93758281Y-67304437D01*
X93483644Y-66145563D01*
X93277269Y-66145563D01*
X93004219Y-67304437D01*
X92889919Y-67304437D01*
X92889919Y-66145563D01*
X92723231Y-66145563D01*
X92723231Y-66986937D01*
X92718469Y-66986937D01*
X92470819Y-66145563D01*
X92286669Y-66145563D01*
X92096169Y-66145563D01*
X91929481Y-66145563D01*
X91929481Y-66986937D01*
X91924719Y-66986937D01*
X91677069Y-66145563D01*
X91492919Y-66145563D01*
X91281781Y-66145563D01*
X90726156Y-66145563D01*
X90532481Y-66145563D01*
X89881606Y-66145563D01*
X89714919Y-66145563D01*
X89548231Y-66145563D01*
X89548231Y-66986937D01*
X89543469Y-66986937D01*
X89295819Y-66145563D01*
X89111669Y-66145563D01*
X88721144Y-66145563D01*
X88514769Y-66145563D01*
X88241719Y-67304437D01*
X87539861Y-67304437D01*
X87538018Y-67302404D01*
X87484811Y-67230662D01*
X87438891Y-67154050D01*
X87400702Y-67073306D01*
X87370611Y-66989207D01*
X87348908Y-66902565D01*
X87335803Y-66814212D01*
X87331420Y-66725000D01*
X87335803Y-66635788D01*
X87348908Y-66547435D01*
X87370611Y-66460793D01*
X87400702Y-66376694D01*
X87438891Y-66295950D01*
X87484811Y-66219338D01*
X87538018Y-66147596D01*
X87598001Y-66081415D01*
X87664183Y-66021432D01*
X87735925Y-65968224D01*
X87812537Y-65922305D01*
X87893281Y-65884116D01*
X87977379Y-65854025D01*
X88064022Y-65832322D01*
X88152375Y-65819216D01*
X88241586Y-65814833D01*
X88241719Y-65814833D01*
X93758281Y-65814833D01*
X93758414Y-65814833D01*
X93847625Y-65819216D01*
G37*
D14*
%TO.C,C4*%
X65920000Y-132230000D02*
X65675000Y-132230000D01*
X65920000Y-132230000D02*
X65920000Y-135870000D01*
X63825000Y-132230000D02*
X63580000Y-132230000D01*
X63580000Y-132230000D02*
X63580000Y-135870000D01*
X65920000Y-135870000D02*
X65675000Y-135870000D01*
X63825000Y-135870000D02*
X63580000Y-135870000D01*
%TO.C,kibuzzard-6406D9EC*%
G36*
X87405912Y-127664700D02*
G01*
X87188425Y-127664700D01*
X87296375Y-127120187D01*
X87297962Y-127120187D01*
X87405912Y-127664700D01*
G37*
G36*
X86564008Y-127084381D02*
G01*
X86622746Y-127138885D01*
X86642325Y-127229725D01*
X86629625Y-127313267D01*
X86591525Y-127370219D01*
X86526437Y-127402961D01*
X86432775Y-127413875D01*
X86386737Y-127413875D01*
X86386737Y-127078913D01*
X86466112Y-127066212D01*
X86564008Y-127084381D01*
G37*
G36*
X86551044Y-127561909D02*
G01*
X86618512Y-127601200D01*
X86657803Y-127669066D01*
X86670900Y-127767887D01*
X86658795Y-127865320D01*
X86622481Y-127932194D01*
X86561561Y-127970889D01*
X86475637Y-127983787D01*
X86386737Y-127971088D01*
X86386737Y-127548812D01*
X86453412Y-127548812D01*
X86551044Y-127561909D01*
G37*
G36*
X88933484Y-127092406D02*
G01*
X89009287Y-127166225D01*
X89041919Y-127248069D01*
X89061499Y-127362369D01*
X89068025Y-127509125D01*
X89061587Y-127671226D01*
X89042272Y-127795581D01*
X89010081Y-127882188D01*
X88934477Y-127958388D01*
X88823550Y-127983787D01*
X88752112Y-127969500D01*
X88752112Y-127082087D01*
X88823550Y-127067800D01*
X88933484Y-127092406D01*
G37*
G36*
X89662560Y-126603417D02*
G01*
X89752453Y-126616752D01*
X89840607Y-126638833D01*
X89926172Y-126669449D01*
X90008325Y-126708304D01*
X90086273Y-126755024D01*
X90159266Y-126809160D01*
X90226602Y-126870190D01*
X90287632Y-126937525D01*
X90341767Y-127010519D01*
X90388487Y-127088467D01*
X90427343Y-127170619D01*
X90457958Y-127256184D01*
X90480040Y-127344338D01*
X90493374Y-127434232D01*
X90497833Y-127525000D01*
X90493374Y-127615768D01*
X90480040Y-127705662D01*
X90457958Y-127793816D01*
X90427343Y-127879381D01*
X90388487Y-127961533D01*
X90341767Y-128039481D01*
X90287632Y-128112475D01*
X90226602Y-128179810D01*
X90159266Y-128240840D01*
X90086273Y-128294976D01*
X90008325Y-128341696D01*
X89926172Y-128380551D01*
X89840607Y-128411167D01*
X89752453Y-128433248D01*
X89662560Y-128446583D01*
X89571792Y-128451042D01*
X89241062Y-128451042D01*
X88823550Y-128451042D01*
X87793262Y-128451042D01*
X86923312Y-128451042D01*
X86475637Y-128451042D01*
X86208937Y-128451042D01*
X85878208Y-128451042D01*
X85787440Y-128446583D01*
X85697547Y-128433248D01*
X85609393Y-128411167D01*
X85523828Y-128380551D01*
X85441675Y-128341696D01*
X85363727Y-128294976D01*
X85290734Y-128240840D01*
X85223398Y-128179810D01*
X85162368Y-128112475D01*
X85144634Y-128088563D01*
X86208937Y-128088563D01*
X86296426Y-128106201D01*
X86385326Y-128116785D01*
X86475637Y-128120312D01*
X86588174Y-128110611D01*
X86607706Y-128104437D01*
X86923312Y-128104437D01*
X87101112Y-128104437D01*
X87161437Y-127799638D01*
X87432900Y-127799638D01*
X87493225Y-128104437D01*
X87677375Y-128104437D01*
X87402737Y-126945563D01*
X87793262Y-126945563D01*
X87793262Y-128104437D01*
X87967887Y-128104437D01*
X87967887Y-127263062D01*
X87971062Y-127263062D01*
X88218712Y-128104437D01*
X88396512Y-128104437D01*
X88396512Y-128088563D01*
X88574312Y-128088563D01*
X88693772Y-128112375D01*
X88823550Y-128120312D01*
X88955312Y-128106620D01*
X89058500Y-128065544D01*
X89136883Y-127990733D01*
X89194231Y-127875838D01*
X89220249Y-127775119D01*
X89235859Y-127652882D01*
X89241062Y-127509125D01*
X89234961Y-127360743D01*
X89216655Y-127236273D01*
X89186145Y-127135715D01*
X89143431Y-127059069D01*
X89064497Y-126987190D01*
X88957870Y-126944063D01*
X88823550Y-126929687D01*
X88698534Y-126937625D01*
X88574312Y-126961437D01*
X88574312Y-128088563D01*
X88396512Y-128088563D01*
X88396512Y-126945563D01*
X88229825Y-126945563D01*
X88229825Y-127786937D01*
X88225062Y-127786937D01*
X87977412Y-126945563D01*
X87793262Y-126945563D01*
X87402737Y-126945563D01*
X87196362Y-126945563D01*
X86923312Y-128104437D01*
X86607706Y-128104437D01*
X86680249Y-128081507D01*
X86751862Y-128033000D01*
X86803015Y-127965090D01*
X86833707Y-127877778D01*
X86843937Y-127771063D01*
X86828658Y-127664700D01*
X86782819Y-127574212D01*
X86713961Y-127507934D01*
X86629625Y-127474200D01*
X86629625Y-127472613D01*
X86704039Y-127440069D01*
X86762181Y-127383712D01*
X86799686Y-127308306D01*
X86812187Y-127218612D01*
X86798344Y-127114599D01*
X86756815Y-127033700D01*
X86687600Y-126975915D01*
X86590699Y-126941244D01*
X86466112Y-126929687D01*
X86335144Y-126937625D01*
X86208937Y-126961437D01*
X86208937Y-128088563D01*
X85144634Y-128088563D01*
X85108233Y-128039481D01*
X85061512Y-127961533D01*
X85022657Y-127879381D01*
X84992042Y-127793816D01*
X84969960Y-127705662D01*
X84956626Y-127615768D01*
X84952167Y-127525000D01*
X84956626Y-127434232D01*
X84969960Y-127344338D01*
X84992042Y-127256184D01*
X85022657Y-127170619D01*
X85061512Y-127088467D01*
X85108233Y-127010519D01*
X85162368Y-126937525D01*
X85223398Y-126870190D01*
X85290734Y-126809160D01*
X85363727Y-126755024D01*
X85441675Y-126708304D01*
X85523828Y-126669449D01*
X85609393Y-126638833D01*
X85697547Y-126616752D01*
X85787440Y-126603417D01*
X85878208Y-126598958D01*
X86208937Y-126598958D01*
X89241062Y-126598958D01*
X89571792Y-126598958D01*
X89662560Y-126603417D01*
G37*
%TO.C,RY3*%
X83075000Y-57440000D02*
X81875000Y-57440000D01*
X82275000Y-57440000D02*
X82675000Y-58140000D01*
X81875000Y-57440000D02*
X81875000Y-58140000D01*
X70375000Y-57440000D02*
X69175000Y-57440000D01*
X69575000Y-57440000D02*
X69975000Y-58140000D01*
X69175000Y-57440000D02*
X69175000Y-58140000D01*
X83075000Y-58140000D02*
X83075000Y-57440000D01*
X81875000Y-58140000D02*
X83075000Y-58140000D01*
X70375000Y-58140000D02*
X70375000Y-57440000D01*
X69175000Y-58140000D02*
X70375000Y-58140000D01*
X83765000Y-61740000D02*
X83765000Y-53960000D01*
X68485000Y-61740000D02*
X68485000Y-53960000D01*
%TO.C,SW1*%
X114325000Y-130825000D02*
X114325000Y-129325000D01*
X113075000Y-126825000D02*
X108575000Y-126825000D01*
X108575000Y-133325000D02*
X113075000Y-133325000D01*
X107325000Y-129325000D02*
X107325000Y-130825000D01*
%TO.C,Q1*%
X72387500Y-115965000D02*
X70712500Y-115965000D01*
X72387500Y-115965000D02*
X73037500Y-115965000D01*
X72387500Y-119085000D02*
X71737500Y-119085000D01*
X72387500Y-119085000D02*
X73037500Y-119085000D01*
%TO.C,J3*%
X97095000Y-98580000D02*
X97095000Y-97250000D01*
X98425000Y-98580000D02*
X97095000Y-98580000D01*
X99695000Y-98580000D02*
X104835000Y-98580000D01*
X99695000Y-98580000D02*
X99695000Y-95920000D01*
X104835000Y-98580000D02*
X104835000Y-95920000D01*
X99695000Y-95920000D02*
X104835000Y-95920000D01*
%TO.C,RY4*%
X83765000Y-79360000D02*
X83305000Y-79360000D01*
X83075000Y-82840000D02*
X81875000Y-82840000D01*
X82275000Y-82840000D02*
X82675000Y-83540000D01*
X81875000Y-82840000D02*
X81875000Y-83540000D01*
X70375000Y-82840000D02*
X69175000Y-82840000D01*
X69575000Y-82840000D02*
X69975000Y-83540000D01*
X69175000Y-82840000D02*
X69175000Y-83540000D01*
X83075000Y-83540000D02*
X83075000Y-82840000D01*
X81875000Y-83540000D02*
X83075000Y-83540000D01*
X70375000Y-83540000D02*
X70375000Y-82840000D01*
X69175000Y-83540000D02*
X70375000Y-83540000D01*
X83765000Y-87140000D02*
X83765000Y-79360000D01*
X68485000Y-87140000D02*
X68485000Y-79360000D01*
%TO.C,R6*%
X51615000Y-124652064D02*
X51615000Y-123197936D01*
X53435000Y-124652064D02*
X53435000Y-123197936D01*
%TO.C,SW3*%
X98900000Y-130825000D02*
X98900000Y-129325000D01*
X97650000Y-126825000D02*
X93150000Y-126825000D01*
X93150000Y-133325000D02*
X97650000Y-133325000D01*
X91900000Y-129325000D02*
X91900000Y-130825000D01*
%TO.C,kibuzzard-6407CA45*%
G36*
X55983960Y-132061317D02*
G01*
X56073083Y-132074537D01*
X56160481Y-132096429D01*
X56245313Y-132126782D01*
X56326761Y-132165304D01*
X56404041Y-132211624D01*
X56476409Y-132265296D01*
X56543167Y-132325802D01*
X56603674Y-132392561D01*
X56657345Y-132464929D01*
X56703665Y-132542209D01*
X56742187Y-132623657D01*
X56772541Y-132708488D01*
X56794433Y-132795887D01*
X56807653Y-132885010D01*
X56812074Y-132975000D01*
X56807653Y-133064990D01*
X56794433Y-133154113D01*
X56772541Y-133241512D01*
X56742187Y-133326343D01*
X56703665Y-133407791D01*
X56657345Y-133485071D01*
X56603674Y-133557439D01*
X56543167Y-133624198D01*
X56476409Y-133684704D01*
X56404041Y-133738376D01*
X56326761Y-133784696D01*
X56245313Y-133823218D01*
X56160481Y-133853571D01*
X56073083Y-133875463D01*
X55983960Y-133888683D01*
X55893970Y-133893104D01*
X55893838Y-133893104D01*
X54517475Y-133893104D01*
X54025350Y-133893104D01*
X53320500Y-133893104D01*
X52906163Y-133893104D01*
X52906030Y-133893104D01*
X52816040Y-133888683D01*
X52726917Y-133875463D01*
X52639519Y-133853571D01*
X52554687Y-133823218D01*
X52473239Y-133784696D01*
X52395959Y-133738376D01*
X52323591Y-133684704D01*
X52256833Y-133624198D01*
X52196326Y-133557439D01*
X52142655Y-133485071D01*
X52096335Y-133407791D01*
X52057813Y-133326343D01*
X52027459Y-133241512D01*
X52005567Y-133154113D01*
X51992347Y-133064990D01*
X51987926Y-132975000D01*
X51992347Y-132885010D01*
X52005567Y-132795887D01*
X52027459Y-132708488D01*
X52057813Y-132623657D01*
X52096335Y-132542209D01*
X52142655Y-132464929D01*
X52196326Y-132392561D01*
X52200800Y-132387625D01*
X52906163Y-132387625D01*
X52906163Y-132525737D01*
X53142700Y-132525737D01*
X53142700Y-133546500D01*
X53320500Y-133546500D01*
X53320500Y-132525737D01*
X53557038Y-132525737D01*
X53557038Y-132387625D01*
X53707850Y-132387625D01*
X53707850Y-133244875D01*
X53716052Y-133348239D01*
X53740658Y-133429731D01*
X53781669Y-133489350D01*
X53841553Y-133529919D01*
X53922780Y-133554261D01*
X54025350Y-133562375D01*
X54127920Y-133554261D01*
X54209147Y-133529919D01*
X54269031Y-133489350D01*
X54310042Y-133429731D01*
X54334648Y-133348239D01*
X54342850Y-133244875D01*
X54342850Y-132387625D01*
X54517475Y-132387625D01*
X54517475Y-133546500D01*
X54692100Y-133546500D01*
X54692100Y-132705125D01*
X54695275Y-132705125D01*
X54942925Y-133546500D01*
X55120725Y-133546500D01*
X55120725Y-132387625D01*
X55338213Y-132387625D01*
X55338213Y-133546500D01*
X55893838Y-133546500D01*
X55893838Y-133408388D01*
X55516013Y-133408388D01*
X55516013Y-132990875D01*
X55877963Y-132990875D01*
X55877963Y-132855938D01*
X55516013Y-132855938D01*
X55516013Y-132525737D01*
X55893838Y-132525737D01*
X55893838Y-132387625D01*
X55338213Y-132387625D01*
X55120725Y-132387625D01*
X54954038Y-132387625D01*
X54954038Y-133229000D01*
X54949275Y-133229000D01*
X54701625Y-132387625D01*
X54517475Y-132387625D01*
X54342850Y-132387625D01*
X54169813Y-132387625D01*
X54169813Y-133213125D01*
X54161875Y-133316908D01*
X54138063Y-133380606D01*
X54028525Y-133424263D01*
X53962247Y-133413150D01*
X53918988Y-133379813D01*
X53895175Y-133315916D01*
X53887238Y-133213125D01*
X53887238Y-132387625D01*
X53707850Y-132387625D01*
X53557038Y-132387625D01*
X52906163Y-132387625D01*
X52200800Y-132387625D01*
X52256833Y-132325802D01*
X52323591Y-132265296D01*
X52395959Y-132211624D01*
X52473239Y-132165304D01*
X52554687Y-132126782D01*
X52639519Y-132096429D01*
X52726917Y-132074537D01*
X52816040Y-132061317D01*
X52906030Y-132056896D01*
X52906163Y-132056896D01*
X55893838Y-132056896D01*
X55893970Y-132056896D01*
X55983960Y-132061317D01*
G37*
%TO.C,J4*%
X51670000Y-92045000D02*
X53000000Y-92045000D01*
X51670000Y-93375000D02*
X51670000Y-92045000D01*
X51670000Y-94645000D02*
X51670000Y-107405000D01*
X51670000Y-94645000D02*
X54330000Y-94645000D01*
X51670000Y-107405000D02*
X54330000Y-107405000D01*
X54330000Y-94645000D02*
X54330000Y-107405000D01*
%TO.C,U4*%
X70450000Y-91710000D02*
X68500000Y-91710000D01*
X70450000Y-91710000D02*
X72400000Y-91710000D01*
X70450000Y-96830000D02*
X68500000Y-96830000D01*
X70450000Y-96830000D02*
X73900000Y-96830000D01*
D15*
%TO.C,Q6*%
X75075000Y-70450000D02*
X75375000Y-70300000D01*
X75075000Y-70750000D02*
X75075000Y-70450000D01*
X75075000Y-75150000D02*
X75075000Y-74850000D01*
X75075000Y-75150000D02*
X75375000Y-75300000D01*
D11*
X78225000Y-74750000D02*
G75*
G03*
X78275000Y-70900000I-1900000J1950000D01*
G01*
D15*
%TO.C,Q4*%
X60200000Y-70425000D02*
X60500000Y-70275000D01*
X60200000Y-70725000D02*
X60200000Y-70425000D01*
X60200000Y-75125000D02*
X60200000Y-74825000D01*
X60200000Y-75125000D02*
X60500000Y-75275000D01*
D11*
X63350000Y-74725000D02*
G75*
G03*
X63400000Y-70875000I-1900000J1950000D01*
G01*
D14*
%TO.C,U6*%
X104240000Y-63585000D02*
X104240000Y-60865000D01*
X105550000Y-63585000D02*
X104240000Y-63585000D01*
X108960000Y-63585000D02*
X107650000Y-63585000D01*
X104240000Y-60865000D02*
X104470000Y-60865000D01*
X108960000Y-60865000D02*
X108960000Y-63585000D01*
X108960000Y-60865000D02*
X108730000Y-60865000D01*
X108730000Y-59725000D02*
X108730000Y-60865000D01*
%TO.C,RY1*%
X67835000Y-57440000D02*
X66635000Y-57440000D01*
X67035000Y-57440000D02*
X67435000Y-58140000D01*
X66635000Y-57440000D02*
X66635000Y-58140000D01*
X55135000Y-57440000D02*
X53935000Y-57440000D01*
X54335000Y-57440000D02*
X54735000Y-58140000D01*
X53935000Y-57440000D02*
X53935000Y-58140000D01*
X67835000Y-58140000D02*
X67835000Y-57440000D01*
X66635000Y-58140000D02*
X67835000Y-58140000D01*
X55135000Y-58140000D02*
X55135000Y-57440000D01*
X53935000Y-58140000D02*
X55135000Y-58140000D01*
X68525000Y-61740000D02*
X68525000Y-53960000D01*
X53245000Y-61740000D02*
X53245000Y-53960000D01*
%TD*%
M02*
