%TF.GenerationSoftware,KiCad,Pcbnew,7.0.10*%
%TF.CreationDate,2024-01-22T19:43:49-08:00*%
%TF.ProjectId,Relay_LCD k7,52656c61-795f-44c4-9344-206b372e6b69,rev?*%
%TF.SameCoordinates,Original*%
%TF.FileFunction,Copper,L1,Top*%
%TF.FilePolarity,Positive*%
%FSLAX46Y46*%
G04 Gerber Fmt 4.6, Leading zero omitted, Abs format (unit mm)*
G04 Created by KiCad (PCBNEW 7.0.10) date 2024-01-22 19:43:49*
%MOMM*%
%LPD*%
G01*
G04 APERTURE LIST*
G04 Aperture macros list*
%AMRoundRect*
0 Rectangle with rounded corners*
0 $1 Rounding radius*
0 $2 $3 $4 $5 $6 $7 $8 $9 X,Y pos of 4 corners*
0 Add a 4 corners polygon primitive as box body*
4,1,4,$2,$3,$4,$5,$6,$7,$8,$9,$2,$3,0*
0 Add four circle primitives for the rounded corners*
1,1,$1+$1,$2,$3*
1,1,$1+$1,$4,$5*
1,1,$1+$1,$6,$7*
1,1,$1+$1,$8,$9*
0 Add four rect primitives between the rounded corners*
20,1,$1+$1,$2,$3,$4,$5,0*
20,1,$1+$1,$4,$5,$6,$7,0*
20,1,$1+$1,$6,$7,$8,$9,0*
20,1,$1+$1,$8,$9,$2,$3,0*%
%AMFreePoly0*
4,1,9,5.362500,-0.866500,1.237500,-0.866500,1.237500,-0.450000,-1.237500,-0.450000,-1.237500,0.450000,1.237500,0.450000,1.237500,0.866500,5.362500,0.866500,5.362500,-0.866500,5.362500,-0.866500,$1*%
G04 Aperture macros list end*
%TA.AperFunction,ComponentPad*%
%ADD10O,1.700000X1.700000*%
%TD*%
%TA.AperFunction,ComponentPad*%
%ADD11R,1.700000X1.700000*%
%TD*%
%TA.AperFunction,ComponentPad*%
%ADD12C,2.000000*%
%TD*%
%TA.AperFunction,ComponentPad*%
%ADD13R,2.800000X3.600000*%
%TD*%
%TA.AperFunction,SMDPad,CuDef*%
%ADD14RoundRect,0.250000X0.400000X0.625000X-0.400000X0.625000X-0.400000X-0.625000X0.400000X-0.625000X0*%
%TD*%
%TA.AperFunction,ComponentPad*%
%ADD15C,3.016000*%
%TD*%
%TA.AperFunction,SMDPad,CuDef*%
%ADD16RoundRect,0.250000X-0.650000X0.412500X-0.650000X-0.412500X0.650000X-0.412500X0.650000X0.412500X0*%
%TD*%
%TA.AperFunction,ComponentPad*%
%ADD17C,1.600000*%
%TD*%
%TA.AperFunction,ComponentPad*%
%ADD18O,1.600000X1.600000*%
%TD*%
%TA.AperFunction,SMDPad,CuDef*%
%ADD19RoundRect,0.249750X0.305250X1.250250X-0.305250X1.250250X-0.305250X-1.250250X0.305250X-1.250250X0*%
%TD*%
%TA.AperFunction,SMDPad,CuDef*%
%ADD20R,0.550000X1.500000*%
%TD*%
%TA.AperFunction,SMDPad,CuDef*%
%ADD21R,1.500000X0.550000*%
%TD*%
%TA.AperFunction,SMDPad,CuDef*%
%ADD22R,1.600000X1.250000*%
%TD*%
%TA.AperFunction,SMDPad,CuDef*%
%ADD23RoundRect,0.250000X0.625000X-0.400000X0.625000X0.400000X-0.625000X0.400000X-0.625000X-0.400000X0*%
%TD*%
%TA.AperFunction,SMDPad,CuDef*%
%ADD24RoundRect,0.250000X0.412500X0.650000X-0.412500X0.650000X-0.412500X-0.650000X0.412500X-0.650000X0*%
%TD*%
%TA.AperFunction,SMDPad,CuDef*%
%ADD25RoundRect,0.150000X-0.587500X-0.150000X0.587500X-0.150000X0.587500X0.150000X-0.587500X0.150000X0*%
%TD*%
%TA.AperFunction,ComponentPad*%
%ADD26R,1.600000X1.600000*%
%TD*%
%TA.AperFunction,ComponentPad*%
%ADD27R,1.500000X1.500000*%
%TD*%
%TA.AperFunction,ComponentPad*%
%ADD28C,1.500000*%
%TD*%
%TA.AperFunction,ComponentPad*%
%ADD29C,2.655000*%
%TD*%
%TA.AperFunction,ComponentPad*%
%ADD30C,1.200000*%
%TD*%
%TA.AperFunction,ComponentPad*%
%ADD31R,1.200000X1.200000*%
%TD*%
%TA.AperFunction,ComponentPad*%
%ADD32R,1.398000X1.398000*%
%TD*%
%TA.AperFunction,ComponentPad*%
%ADD33C,1.398000*%
%TD*%
%TA.AperFunction,ComponentPad*%
%ADD34C,3.015000*%
%TD*%
%TA.AperFunction,SMDPad,CuDef*%
%ADD35RoundRect,0.250000X-0.412500X-0.650000X0.412500X-0.650000X0.412500X0.650000X-0.412500X0.650000X0*%
%TD*%
%TA.AperFunction,SMDPad,CuDef*%
%ADD36RoundRect,0.150000X0.725000X0.150000X-0.725000X0.150000X-0.725000X-0.150000X0.725000X-0.150000X0*%
%TD*%
%TA.AperFunction,SMDPad,CuDef*%
%ADD37R,0.900000X2.300000*%
%TD*%
%TA.AperFunction,SMDPad,CuDef*%
%ADD38FreePoly0,270.000000*%
%TD*%
%TA.AperFunction,ViaPad*%
%ADD39C,0.800000*%
%TD*%
%TA.AperFunction,Conductor*%
%ADD40C,0.400000*%
%TD*%
%TA.AperFunction,Conductor*%
%ADD41C,0.600000*%
%TD*%
%TA.AperFunction,Conductor*%
%ADD42C,0.750000*%
%TD*%
%TA.AperFunction,Conductor*%
%ADD43C,0.200000*%
%TD*%
G04 APERTURE END LIST*
D10*
%TO.P,J2,6,Pin_6*%
%TO.N,unconnected-(J2-Pin_6-Pad6)*%
X103820000Y-71025000D03*
%TO.P,J2,5,Pin_5*%
%TO.N,ICSPCLK*%
X106360000Y-71025000D03*
%TO.P,J2,4,Pin_4*%
%TO.N,ICSPDAT*%
X108900000Y-71025000D03*
%TO.P,J2,3,Pin_3*%
%TO.N,GND*%
X111440000Y-71025000D03*
%TO.P,J2,2,Pin_2*%
%TO.N,+3V3*%
X113980000Y-71025000D03*
D11*
%TO.P,J2,1,Pin_1*%
%TO.N,VPP*%
X116520000Y-71025000D03*
%TD*%
D12*
%TO.P,S1,1*%
%TO.N,GND*%
X59725000Y-115900000D03*
%TO.P,S1,2*%
%TO.N,Net-(R7-Pad2)*%
X64725000Y-115900000D03*
D13*
%TO.P,S1,3*%
%TO.N,unconnected-(S1-Pad3)*%
X56525000Y-122900000D03*
X67925000Y-122900000D03*
D12*
%TO.P,S1,A,CH_A*%
%TO.N,ECa*%
X59725000Y-130400000D03*
%TO.P,S1,B,CH_B*%
%TO.N,ECb*%
X64725000Y-130400000D03*
%TO.P,S1,C,COM*%
%TO.N,GND*%
X62225000Y-130400000D03*
%TD*%
D14*
%TO.P,R3,1*%
%TO.N,/PIC16F887/20_mtr*%
X72800000Y-111925000D03*
%TO.P,R3,2*%
%TO.N,Net-(Q1-B)*%
X69700000Y-111925000D03*
%TD*%
D15*
%TO.P,CON1,1,S*%
%TO.N,GND*%
X115825000Y-88007100D03*
%TO.P,CON1,2,T*%
%TO.N,Dit*%
X112325000Y-83507100D03*
%TO.P,CON1,3,R*%
%TO.N,Dah*%
X107525000Y-93007100D03*
%TD*%
D11*
%TO.P,J7,1,Pin_1*%
%TO.N,R2.7*%
X55260000Y-87090000D03*
D10*
%TO.P,J7,2,Pin_2*%
%TO.N,R2.8*%
X57800000Y-87090000D03*
%TO.P,J7,3,Pin_3*%
%TO.N,R2.9*%
X60340000Y-87090000D03*
%TO.P,J7,4,Pin_4*%
%TO.N,R2.10*%
X62880000Y-87090000D03*
%TO.P,J7,5,Pin_5*%
%TO.N,GND*%
X65420000Y-87090000D03*
%TD*%
D16*
%TO.P,C5,1*%
%TO.N,VDD*%
X101525000Y-60700000D03*
%TO.P,C5,2*%
%TO.N,GND*%
X101525000Y-63825000D03*
%TD*%
D14*
%TO.P,R4,1*%
%TO.N,/PIC16F887/15_mtr*%
X54675000Y-111925000D03*
%TO.P,R4,2*%
%TO.N,Net-(Q2-B)*%
X51575000Y-111925000D03*
%TD*%
D11*
%TO.P,J13,1,Pin_1*%
%TO.N,VDD*%
X80645000Y-54080000D03*
D10*
%TO.P,J13,2,Pin_2*%
%TO.N,R3.3*%
X78105000Y-54080000D03*
%TO.P,J13,3,Pin_3*%
%TO.N,R3.4*%
X75565000Y-54080000D03*
%TO.P,J13,4,Pin_4*%
%TO.N,R3.5*%
X73025000Y-54080000D03*
%TO.P,J13,5,Pin_5*%
%TO.N,R3.6*%
X70485000Y-54080000D03*
%TD*%
D11*
%TO.P,J1,1,Pin_1*%
%TO.N,GND*%
X116200000Y-135350000D03*
D10*
%TO.P,J1,2,Pin_2*%
%TO.N,ECb*%
X113660000Y-135350000D03*
%TO.P,J1,3,Pin_3*%
%TO.N,ECa*%
X111120000Y-135350000D03*
%TO.P,J1,4,Pin_4*%
%TO.N,/5vto3v3/D1*%
X108580000Y-135350000D03*
%TO.P,J1,5,Pin_5*%
%TO.N,/5vto3v3/D2*%
X106040000Y-135350000D03*
%TO.P,J1,6,Pin_6*%
%TO.N,dp*%
X103500000Y-135350000D03*
%TO.P,J1,7,Pin_7*%
%TO.N,/5vto3v3/e*%
X100960000Y-135350000D03*
%TO.P,J1,8,Pin_8*%
%TO.N,/5vto3v3/d*%
X98420000Y-135350000D03*
%TO.P,J1,9,Pin_9*%
%TO.N,/5vto3v3/D4*%
X95880000Y-135350000D03*
%TO.P,J1,10,Pin_10*%
%TO.N,/5vto3v3/D3*%
X93340000Y-135350000D03*
%TO.P,J1,11,Pin_11*%
%TO.N,/5vto3v3/f*%
X90800000Y-135350000D03*
%TO.P,J1,12,Pin_12*%
%TO.N,/5vto3v3/c*%
X88260000Y-135350000D03*
%TO.P,J1,13,Pin_13*%
%TO.N,/5vto3v3/a*%
X85720000Y-135350000D03*
%TO.P,J1,14,Pin_14*%
%TO.N,/5vto3v3/g*%
X83180000Y-135350000D03*
%TO.P,J1,15,Pin_15*%
%TO.N,/5vto3v3/b*%
X80640000Y-135350000D03*
%TO.P,J1,16,Pin_16*%
%TO.N,SW*%
X78100000Y-135350000D03*
%TD*%
D17*
%TO.P,R10,1*%
%TO.N,/PIC16F887/R12s*%
X62150000Y-66675000D03*
D18*
%TO.P,R10,2*%
%TO.N,Net-(Q3-B)*%
X54530000Y-66675000D03*
%TD*%
D19*
%TO.P,RY2,1,SET+*%
%TO.N,R1.6*%
X67240000Y-79600000D03*
%TO.P,RY2,3,NC1*%
%TO.N,R2.3*%
X62160000Y-79600000D03*
%TO.P,RY2,4,C1*%
%TO.N,R2.4*%
X59620000Y-79600000D03*
%TO.P,RY2,5,NO1*%
%TO.N,R2.5*%
X57080000Y-79600000D03*
%TO.P,RY2,6,SET-*%
%TO.N,R2.6*%
X54540000Y-79600000D03*
%TO.P,RY2,7,RESET-*%
%TO.N,R2.7*%
X54540000Y-86890000D03*
%TO.P,RY2,8,NO2*%
%TO.N,R2.8*%
X57080000Y-86890000D03*
%TO.P,RY2,9,C2*%
%TO.N,R2.9*%
X59620000Y-86890000D03*
%TO.P,RY2,10,NC2*%
%TO.N,R2.10*%
X62160000Y-86890000D03*
%TO.P,RY2,12,RESET+*%
%TO.N,R1.7*%
X67240000Y-86890000D03*
%TD*%
D20*
%TO.P,U5,44,RC6/TX/CK*%
%TO.N,/5vto3v3/e_3v3*%
X97775000Y-84325000D03*
%TO.P,U5,43,RC5/SDO*%
%TO.N,/5vto3v3/d_3v3*%
X96975000Y-84325000D03*
%TO.P,U5,42,RC4/SDI/SDA*%
%TO.N,/5vto3v3/f_3v3*%
X96175000Y-84325000D03*
%TO.P,U5,41,RD3*%
%TO.N,/5vto3v3/D1_3v3*%
X95375000Y-84325000D03*
%TO.P,U5,40,RD2*%
%TO.N,/5vto3v3/D2_3v3*%
X94575000Y-84325000D03*
%TO.P,U5,39,RD1*%
%TO.N,/5vto3v3/D4_3v3*%
X93775000Y-84325000D03*
%TO.P,U5,38,RD0*%
%TO.N,/5vto3v3/D3_3v3*%
X92975000Y-84325000D03*
%TO.P,U5,37,RC3/SCK/SCL*%
%TO.N,/5vto3v3/g_3v3*%
X92175000Y-84325000D03*
%TO.P,U5,36,RC2/P1A/CCP1*%
%TO.N,/5vto3v3/c_3v3*%
X91375000Y-84325000D03*
%TO.P,U5,35,RC1/T1OSCI/CCP2*%
%TO.N,/5vto3v3/b_3v3*%
X90575000Y-84325000D03*
%TO.P,U5,34,NC_4*%
%TO.N,unconnected-(U5-NC_4-Pad34)*%
X89775000Y-84325000D03*
D21*
%TO.P,U5,33,NC_3*%
%TO.N,unconnected-(U5-NC_3-Pad33)*%
X88075000Y-82625000D03*
%TO.P,U5,32,RC0/T1OSO/T1CKI*%
%TO.N,/5vto3v3/a_3v3*%
X88075000Y-81825000D03*
%TO.P,U5,31,RA6/OSC2/CLKOUT*%
%TO.N,/PIC16F887/Dim*%
X88075000Y-81025000D03*
%TO.P,U5,30,RA7/OSC1/CLKIN*%
%TO.N,/PIC16F887/Band*%
X88075000Y-80225000D03*
%TO.P,U5,29,VSS_2*%
%TO.N,GND*%
X88075000Y-79425000D03*
%TO.P,U5,28,VDD_2*%
%TO.N,+3V3*%
X88075000Y-78625000D03*
%TO.P,U5,27,RE2/AN7*%
%TO.N,unconnected-(U5-RE2{slash}AN7-Pad27)*%
X88075000Y-77825000D03*
%TO.P,U5,26,RE1/AN6*%
%TO.N,/PIC16F887/20_mtr*%
X88075000Y-77025000D03*
%TO.P,U5,25,RE0/AN5*%
%TO.N,/PIC16F887/15_mtr*%
X88075000Y-76225000D03*
%TO.P,U5,24,RA5/AN4/~{SS}/C2OUT*%
%TO.N,/Display/Dim_1*%
X88075000Y-75425000D03*
%TO.P,U5,23,RA4/T0CKI/C1OUT*%
%TO.N,/Display/Dim_0*%
X88075000Y-74625000D03*
D20*
%TO.P,U5,22,RA3/AN3//VREF+/C1IN+*%
%TO.N,/PIC16F887/R12r*%
X89775000Y-72925000D03*
%TO.P,U5,21,RA2/AN2/VREF-/CVREF/C2IN+*%
%TO.N,/PIC16F887/R12s*%
X90575000Y-72925000D03*
%TO.P,U5,20,RA1/AN1/C12IN1-*%
%TO.N,/PIC16F887/R34r*%
X91375000Y-72925000D03*
%TO.P,U5,19,RA0/AN0/ULPWU/C12IN0-*%
%TO.N,/PIC16F887/R34s*%
X92175000Y-72925000D03*
%TO.P,U5,18,RE3/~{MCLR}/VPP*%
%TO.N,VPP*%
X92975000Y-72925000D03*
%TO.P,U5,17,RB7/ICSPDAT*%
%TO.N,ICSPDAT*%
X93775000Y-72925000D03*
%TO.P,U5,16,RB6/ICSPCLK*%
%TO.N,ICSPCLK*%
X94575000Y-72925000D03*
%TO.P,U5,15,RB5/AN13/~{T1G}*%
%TO.N,unconnected-(U5-RB5{slash}AN13{slash}~{T1G}-Pad15)*%
X95375000Y-72925000D03*
%TO.P,U5,14,RB4/AN11*%
%TO.N,unconnected-(U5-RB4{slash}AN11-Pad14)*%
X96175000Y-72925000D03*
%TO.P,U5,13,NC_2*%
%TO.N,unconnected-(U5-NC_2-Pad13)*%
X96975000Y-72925000D03*
%TO.P,U5,12,NC_1*%
%TO.N,unconnected-(U5-NC_1-Pad12)*%
X97775000Y-72925000D03*
D21*
%TO.P,U5,11,RB3/AN9/PGM/C12IN2-*%
%TO.N,unconnected-(U5-RB3{slash}AN9{slash}PGM{slash}C12IN2--Pad11)*%
X99475000Y-74625000D03*
%TO.P,U5,10,RB2/AN8*%
%TO.N,unconnected-(U5-RB2{slash}AN8-Pad10)*%
X99475000Y-75425000D03*
%TO.P,U5,9,RB1/AN10/C12IN3-*%
%TO.N,unconnected-(U5-RB1{slash}AN10{slash}C12IN3--Pad9)*%
X99475000Y-76225000D03*
%TO.P,U5,8,RB0/AN12/INT*%
%TO.N,unconnected-(U5-RB0{slash}AN12{slash}INT-Pad8)*%
X99475000Y-77025000D03*
%TO.P,U5,7,VDD_1*%
%TO.N,+3V3*%
X99475000Y-77825000D03*
%TO.P,U5,6,VSS_1*%
%TO.N,GND*%
X99475000Y-78625000D03*
%TO.P,U5,5,RD7/P1D*%
%TO.N,/Display/RST*%
X99475000Y-79425000D03*
%TO.P,U5,4,RD6/P1C*%
%TO.N,/Display/RS*%
X99475000Y-80225000D03*
%TO.P,U5,3,RD5/P1B*%
%TO.N,/Display/SCL*%
X99475000Y-81025000D03*
%TO.P,U5,2,RD4*%
%TO.N,/Display/SI*%
X99475000Y-81825000D03*
%TO.P,U5,1,RC7/RX/DT*%
%TO.N,GND*%
X99475000Y-82625000D03*
%TD*%
D22*
%TO.P,U3,6,S1*%
%TO.N,+3V3*%
X68450000Y-102760000D03*
%TO.P,U3,5,DC*%
%TO.N,Net-(U3-DC)*%
X68450000Y-105300000D03*
%TO.P,U3,4,S2*%
%TO.N,+3V3*%
X68450000Y-107840000D03*
%TO.P,U3,3,NC*%
%TO.N,unconnected-(U3-NC-Pad3)*%
X59250000Y-107840000D03*
%TO.P,U3,2,C*%
%TO.N,GND*%
X59250000Y-105300000D03*
%TO.P,U3,1,A*%
%TO.N,Net-(U3-A)*%
X59250000Y-102760000D03*
%TD*%
D23*
%TO.P,R8,1*%
%TO.N,GND*%
X86350000Y-132875000D03*
%TO.P,R8,2*%
%TO.N,/PIC16F887/Band*%
X86350000Y-129775000D03*
%TD*%
D24*
%TO.P,C8,2*%
%TO.N,GND*%
X68400000Y-99275000D03*
%TO.P,C8,1*%
%TO.N,+3V3*%
X71525000Y-99275000D03*
%TD*%
D25*
%TO.P,Q2,1,B*%
%TO.N,Net-(Q2-B)*%
X51575000Y-116575000D03*
%TO.P,Q2,2,E*%
%TO.N,GND*%
X51575000Y-118475000D03*
%TO.P,Q2,3,C*%
%TO.N,Net-(Q2-C)*%
X53450000Y-117525000D03*
%TD*%
D11*
%TO.P,J12,1,Pin_1*%
%TO.N,R1.6*%
X65410000Y-79480000D03*
D10*
%TO.P,J12,2,Pin_2*%
%TO.N,R2.3*%
X62870000Y-79480000D03*
%TO.P,J12,3,Pin_3*%
%TO.N,R2.4*%
X60330000Y-79480000D03*
%TO.P,J12,4,Pin_4*%
%TO.N,R2.5*%
X57790000Y-79480000D03*
%TO.P,J12,5,Pin_5*%
%TO.N,R2.6*%
X55250000Y-79480000D03*
%TD*%
D11*
%TO.P,J8,1,Pin_1*%
%TO.N,R3.7*%
X70495000Y-61700000D03*
D10*
%TO.P,J8,2,Pin_2*%
%TO.N,R3.8*%
X73035000Y-61700000D03*
%TO.P,J8,3,Pin_3*%
%TO.N,R3.9*%
X75575000Y-61700000D03*
%TO.P,J8,4,Pin_4*%
%TO.N,R3.10*%
X78115000Y-61700000D03*
%TO.P,J8,5,Pin_5*%
%TO.N,R3.6*%
X80655000Y-61700000D03*
%TD*%
D23*
%TO.P,R2,1*%
%TO.N,Net-(U3-A)*%
X62625000Y-95900000D03*
%TO.P,R2,2*%
%TO.N,Net-(U4-RA2)*%
X62625000Y-92800000D03*
%TD*%
D17*
%TO.P,R13,1*%
%TO.N,/PIC16F887/R34r*%
X81650000Y-68400000D03*
D18*
%TO.P,R13,2*%
%TO.N,Net-(Q6-B)*%
X81650000Y-76020000D03*
%TD*%
D11*
%TO.P,J9,1,Pin_1*%
%TO.N,R4.7*%
X70500000Y-87090000D03*
D10*
%TO.P,J9,2,Pin_2*%
%TO.N,R4.8*%
X73040000Y-87090000D03*
%TO.P,J9,3,Pin_3*%
%TO.N,R4.9*%
X75580000Y-87090000D03*
%TO.P,J9,4,Pin_4*%
%TO.N,R4.10*%
X78120000Y-87090000D03*
%TO.P,J9,5,Pin_5*%
%TO.N,GND*%
X80660000Y-87090000D03*
%TD*%
D16*
%TO.P,C9,2*%
%TO.N,GND*%
X104775000Y-77350000D03*
%TO.P,C9,1*%
%TO.N,+3V3*%
X104775000Y-74225000D03*
%TD*%
D17*
%TO.P,C2,1*%
%TO.N,ECa*%
X59750000Y-132925000D03*
%TO.P,C2,2*%
%TO.N,GND*%
X59750000Y-135425000D03*
%TD*%
%TO.P,R11,1*%
%TO.N,/PIC16F887/R12r*%
X66625000Y-68375000D03*
D18*
%TO.P,R11,2*%
%TO.N,Net-(Q4-B)*%
X66625000Y-75995000D03*
%TD*%
D23*
%TO.P,R1,1*%
%TO.N,GND*%
X101900000Y-132875000D03*
%TO.P,R1,2*%
%TO.N,/PIC16F887/Dim*%
X101900000Y-129775000D03*
%TD*%
%TO.P,R7,1*%
%TO.N,SW*%
X72450000Y-131600000D03*
%TO.P,R7,2*%
%TO.N,Net-(R7-Pad2)*%
X72450000Y-128500000D03*
%TD*%
D17*
%TO.P,C11,2*%
%TO.N,GND*%
X112925000Y-57575000D03*
D26*
%TO.P,C11,1*%
%TO.N,+3V3*%
X115425000Y-57575000D03*
%TD*%
D27*
%TO.P,Q5,1,E*%
%TO.N,GND*%
X70550000Y-70175000D03*
D28*
%TO.P,Q5,2,B*%
%TO.N,Net-(Q5-B)*%
X70550000Y-72775000D03*
%TO.P,Q5,3,C*%
%TO.N,R4.6*%
X70550000Y-75375000D03*
%TD*%
D12*
%TO.P,SW2,2,2*%
%TO.N,+3V3*%
X83150000Y-132325000D03*
X76650000Y-132325000D03*
%TO.P,SW2,1,1*%
%TO.N,/PIC16F887/Band*%
X83150000Y-127825000D03*
X76650000Y-127825000D03*
%TD*%
D17*
%TO.P,R12,1*%
%TO.N,/PIC16F887/R34s*%
X77650000Y-66675000D03*
D18*
%TO.P,R12,2*%
%TO.N,Net-(Q5-B)*%
X70030000Y-66675000D03*
%TD*%
D29*
%TO.P,DS1,K1,K1*%
%TO.N,Net-(DS1-PadK1)*%
X113725000Y-121900000D03*
%TO.P,DS1,A1,A1*%
%TO.N,Net-(U3-DC)*%
X79125000Y-121900000D03*
D30*
%TO.P,DS1,10,C1-*%
%TO.N,Net-(DS1-C1-)*%
X89675000Y-123550000D03*
%TO.P,DS1,9,C1+*%
%TO.N,Net-(DS1-C1+)*%
X91175000Y-123550000D03*
%TO.P,DS1,8,VOUT*%
%TO.N,Net-(DS1-VOUT)*%
X92675000Y-123550000D03*
%TO.P,DS1,7,VDD*%
%TO.N,+3V3*%
X94175000Y-123550000D03*
%TO.P,DS1,6,VSS*%
%TO.N,GND*%
X95675000Y-123550000D03*
%TO.P,DS1,5,SI*%
%TO.N,/Display/SI*%
X97175000Y-123550000D03*
%TO.P,DS1,4,SCL*%
%TO.N,/Display/SCL*%
X98675000Y-123550000D03*
%TO.P,DS1,3,CSB*%
%TO.N,GND*%
X100175000Y-123550000D03*
%TO.P,DS1,2,RS*%
%TO.N,/Display/RS*%
X101675000Y-123550000D03*
D31*
%TO.P,DS1,1,RST*%
%TO.N,/Display/RST*%
X103175000Y-123550000D03*
%TD*%
D32*
%TO.P,J10,1,1*%
%TO.N,R1.9*%
X92050000Y-62466500D03*
D33*
%TO.P,J10,2,2*%
%TO.N,GND*%
X89510000Y-62466500D03*
D34*
%TO.P,J10,P1,SHIELD*%
X86970000Y-57386500D03*
%TO.P,J10,P2,SHIELD*%
X97130000Y-57386500D03*
%TD*%
D23*
%TO.P,R5,1*%
%TO.N,SW*%
X72575000Y-125475000D03*
%TO.P,R5,2*%
%TO.N,Net-(Q1-C)*%
X72575000Y-122375000D03*
%TD*%
D11*
%TO.P,J14,1,Pin_1*%
%TO.N,R3.6*%
X80650000Y-79480000D03*
D10*
%TO.P,J14,2,Pin_2*%
%TO.N,R4.3*%
X78110000Y-79480000D03*
%TO.P,J14,3,Pin_3*%
%TO.N,R4.4*%
X75570000Y-79480000D03*
%TO.P,J14,4,Pin_4*%
%TO.N,R4.5*%
X73030000Y-79480000D03*
%TO.P,J14,5,Pin_5*%
%TO.N,R4.6*%
X70490000Y-79480000D03*
%TD*%
D35*
%TO.P,C10,2*%
%TO.N,+3V3*%
X114100000Y-64325000D03*
%TO.P,C10,1*%
%TO.N,GND*%
X110975000Y-64325000D03*
%TD*%
D27*
%TO.P,Q3,1,E*%
%TO.N,GND*%
X55275000Y-70250000D03*
D28*
%TO.P,Q3,2,B*%
%TO.N,Net-(Q3-B)*%
X55275000Y-72850000D03*
%TO.P,Q3,3,C*%
%TO.N,R2.6*%
X55275000Y-75450000D03*
%TD*%
D17*
%TO.P,C4,1*%
%TO.N,ECb*%
X64750000Y-132800000D03*
%TO.P,C4,2*%
%TO.N,GND*%
X64750000Y-135300000D03*
%TD*%
D19*
%TO.P,RY3,1,SET+*%
%TO.N,VDD*%
X82475000Y-54205000D03*
%TO.P,RY3,3,NC1*%
%TO.N,R3.3*%
X77395000Y-54205000D03*
%TO.P,RY3,4,C1*%
%TO.N,R3.4*%
X74855000Y-54205000D03*
%TO.P,RY3,5,NO1*%
%TO.N,R3.5*%
X72315000Y-54205000D03*
%TO.P,RY3,6,SET-*%
%TO.N,R3.6*%
X69775000Y-54205000D03*
%TO.P,RY3,7,RESET-*%
%TO.N,R3.7*%
X69775000Y-61495000D03*
%TO.P,RY3,8,NO2*%
%TO.N,R3.8*%
X72315000Y-61495000D03*
%TO.P,RY3,9,C2*%
%TO.N,R3.9*%
X74855000Y-61495000D03*
%TO.P,RY3,10,NC2*%
%TO.N,R3.10*%
X77395000Y-61495000D03*
%TO.P,RY3,12,RESET+*%
%TO.N,VDD*%
X82475000Y-61495000D03*
%TD*%
D12*
%TO.P,SW1,1,1*%
%TO.N,GND*%
X114075000Y-132325000D03*
X107575000Y-132325000D03*
%TO.P,SW1,2,2*%
%TO.N,SW*%
X114075000Y-127825000D03*
X107575000Y-127825000D03*
%TD*%
D25*
%TO.P,Q1,1,B*%
%TO.N,Net-(Q1-B)*%
X71450000Y-116575000D03*
%TO.P,Q1,2,E*%
%TO.N,GND*%
X71450000Y-118475000D03*
%TO.P,Q1,3,C*%
%TO.N,Net-(Q1-C)*%
X73325000Y-117525000D03*
%TD*%
D11*
%TO.P,J3,1,Pin_1*%
%TO.N,Dit*%
X98425000Y-97250000D03*
D10*
%TO.P,J3,2,Pin_2*%
%TO.N,GND*%
X100965000Y-97250000D03*
%TO.P,J3,3,Pin_3*%
%TO.N,Dah*%
X103505000Y-97250000D03*
%TD*%
D19*
%TO.P,RY4,1,SET+*%
%TO.N,R3.6*%
X82475000Y-79605000D03*
%TO.P,RY4,3,NC1*%
%TO.N,R4.3*%
X77395000Y-79605000D03*
%TO.P,RY4,4,C1*%
%TO.N,R4.4*%
X74855000Y-79605000D03*
%TO.P,RY4,5,NO1*%
%TO.N,R4.5*%
X72315000Y-79605000D03*
%TO.P,RY4,6,SET-*%
%TO.N,R4.6*%
X69775000Y-79605000D03*
%TO.P,RY4,7,RESET-*%
%TO.N,R4.7*%
X69775000Y-86895000D03*
%TO.P,RY4,8,NO2*%
%TO.N,R4.8*%
X72315000Y-86895000D03*
%TO.P,RY4,9,C2*%
%TO.N,R4.9*%
X74855000Y-86895000D03*
%TO.P,RY4,10,NC2*%
%TO.N,R4.10*%
X77395000Y-86895000D03*
%TO.P,RY4,12,RESET+*%
%TO.N,R3.7*%
X82475000Y-86895000D03*
%TD*%
D23*
%TO.P,R6,1*%
%TO.N,SW*%
X52525000Y-125475000D03*
%TO.P,R6,2*%
%TO.N,Net-(Q2-C)*%
X52525000Y-122375000D03*
%TD*%
D12*
%TO.P,SW3,2,2*%
%TO.N,+3V3*%
X98650000Y-132325000D03*
X92150000Y-132325000D03*
%TO.P,SW3,1,1*%
%TO.N,/PIC16F887/Dim*%
X98650000Y-127825000D03*
X92150000Y-127825000D03*
%TD*%
D11*
%TO.P,J11,1,Pin_1*%
%TO.N,VDD*%
X65405000Y-54080000D03*
D10*
%TO.P,J11,2,Pin_2*%
%TO.N,R1.3*%
X62865000Y-54080000D03*
%TO.P,J11,3,Pin_3*%
%TO.N,R1.4*%
X60325000Y-54080000D03*
%TO.P,J11,4,Pin_4*%
%TO.N,R1.5*%
X57785000Y-54080000D03*
%TO.P,J11,5,Pin_5*%
%TO.N,R1.6*%
X55245000Y-54080000D03*
%TD*%
D11*
%TO.P,J4,1,Pin_1*%
%TO.N,Net-(J4-Pin_1)*%
X53000000Y-93375000D03*
D10*
%TO.P,J4,2,Pin_2*%
%TO.N,+3V3*%
X53000000Y-95915000D03*
%TO.P,J4,3,Pin_3*%
%TO.N,GND*%
X53000000Y-98455000D03*
%TO.P,J4,4,Pin_4*%
%TO.N,Net-(J4-Pin_4)*%
X53000000Y-100995000D03*
%TO.P,J4,5,Pin_5*%
%TO.N,Net-(J4-Pin_5)*%
X53000000Y-103535000D03*
%TO.P,J4,6,Pin_6*%
%TO.N,unconnected-(J4-Pin_6-Pad6)*%
X53000000Y-106075000D03*
%TD*%
D36*
%TO.P,U4,8,VSS*%
%TO.N,GND*%
X67875000Y-96175000D03*
%TO.P,U4,7,RA0/ICSPDAT*%
%TO.N,Net-(J4-Pin_4)*%
X67875000Y-94905000D03*
%TO.P,U4,6,RA1/ICSPCLK*%
%TO.N,Net-(J4-Pin_5)*%
X67875000Y-93635000D03*
%TO.P,U4,5,RA2*%
%TO.N,Net-(U4-RA2)*%
X67875000Y-92365000D03*
%TO.P,U4,4,~{MCLR}/VPP/RA3*%
%TO.N,Net-(J4-Pin_1)*%
X73025000Y-92365000D03*
%TO.P,U4,3,RA4*%
%TO.N,/Display/Dim_0*%
X73025000Y-93635000D03*
%TO.P,U4,2,RA5*%
%TO.N,/Display/Dim_1*%
X73025000Y-94905000D03*
%TO.P,U4,1,VDD*%
%TO.N,+3V3*%
X73025000Y-96175000D03*
%TD*%
D27*
%TO.P,Q6,1,E*%
%TO.N,GND*%
X76675000Y-70200000D03*
D28*
%TO.P,Q6,2,B*%
%TO.N,Net-(Q6-B)*%
X76675000Y-72800000D03*
%TO.P,Q6,3,C*%
%TO.N,R4.7*%
X76675000Y-75400000D03*
%TD*%
D27*
%TO.P,Q4,1,E*%
%TO.N,GND*%
X61800000Y-70175000D03*
D28*
%TO.P,Q4,2,B*%
%TO.N,Net-(Q4-B)*%
X61800000Y-72775000D03*
%TO.P,Q4,3,C*%
%TO.N,R2.7*%
X61800000Y-75375000D03*
%TD*%
D11*
%TO.P,J6,1,Pin_1*%
%TO.N,R1.7*%
X55255000Y-61700000D03*
D10*
%TO.P,J6,2,Pin_2*%
%TO.N,R1.8*%
X57795000Y-61700000D03*
%TO.P,J6,3,Pin_3*%
%TO.N,R1.9*%
X60335000Y-61700000D03*
%TO.P,J6,4,Pin_4*%
%TO.N,R1.10*%
X62875000Y-61700000D03*
%TO.P,J6,5,Pin_5*%
%TO.N,R1.6*%
X65415000Y-61700000D03*
%TD*%
D37*
%TO.P,U6,3,INPUT*%
%TO.N,VDD*%
X105100000Y-59775000D03*
D38*
%TO.P,U6,2,GROUND_1*%
%TO.N,GND*%
X106600000Y-59862500D03*
D37*
%TO.P,U6,1,OUTPUT*%
%TO.N,+3V3*%
X108100000Y-59775000D03*
%TD*%
D19*
%TO.P,RY1,1,SET+*%
%TO.N,VDD*%
X67235000Y-54205000D03*
%TO.P,RY1,3,NC1*%
%TO.N,R1.3*%
X62155000Y-54205000D03*
%TO.P,RY1,4,C1*%
%TO.N,R1.4*%
X59615000Y-54205000D03*
%TO.P,RY1,5,NO1*%
%TO.N,R1.5*%
X57075000Y-54205000D03*
%TO.P,RY1,6,SET-*%
%TO.N,R1.6*%
X54535000Y-54205000D03*
%TO.P,RY1,7,RESET-*%
%TO.N,R1.7*%
X54535000Y-61495000D03*
%TO.P,RY1,8,NO2*%
%TO.N,R1.8*%
X57075000Y-61495000D03*
%TO.P,RY1,9,C2*%
%TO.N,R1.9*%
X59615000Y-61495000D03*
%TO.P,RY1,10,NC2*%
%TO.N,R1.10*%
X62155000Y-61495000D03*
%TO.P,RY1,12,RESET+*%
%TO.N,VDD*%
X67235000Y-61495000D03*
%TD*%
D39*
%TO.N,GND*%
X113625000Y-74425000D03*
%TO.N,VPP*%
X116450000Y-66900000D03*
X112325000Y-66900000D03*
%TO.N,+3V3*%
X96325000Y-109225000D03*
X76425000Y-96225000D03*
%TO.N,/5vto3v3/f_3v3*%
X93075000Y-98775000D03*
X90825000Y-101025000D03*
%TO.N,+3V3*%
X93300000Y-78625000D03*
X115400000Y-104125000D03*
%TO.N,GND*%
X75425000Y-115850000D03*
%TO.N,/5vto3v3/D4*%
X101386399Y-111175000D03*
X101400000Y-117250000D03*
%TO.N,/PIC16F887/15_mtr*%
X76375000Y-107550000D03*
X74600000Y-109325000D03*
%TO.N,/PIC16F887/20_mtr*%
X77375000Y-108825000D03*
X75700000Y-110500000D03*
%TO.N,Net-(J4-Pin_4)*%
X64725000Y-94900000D03*
X58475000Y-94900000D03*
%TO.N,GND*%
X69825000Y-95100000D03*
X56975000Y-105350000D03*
X79825000Y-133725000D03*
X97130000Y-61820000D03*
%TO.N,/5vto3v3/g_3v3*%
X84700000Y-110225000D03*
%TO.N,/5vto3v3/b_3v3*%
X83900000Y-104350000D03*
%TO.N,Net-(R7-Pad2)*%
X68325000Y-128400000D03*
%TO.N,ECa*%
X66625000Y-136500000D03*
X68750000Y-135700000D03*
%TO.N,R3.6*%
X73675000Y-68200000D03*
%TO.N,R3.7*%
X71817878Y-66307122D03*
%TO.N,R1.6*%
X65300000Y-67374500D03*
%TO.N,/5vto3v3/a_3v3*%
X82625000Y-104100000D03*
%TO.N,/5vto3v3/c_3v3*%
X85250000Y-104450000D03*
%TO.N,/5vto3v3/f_3v3*%
X96200000Y-86825000D03*
%TO.N,/5vto3v3/D3_3v3*%
X88450000Y-104900000D03*
%TO.N,/5vto3v3/D4_3v3*%
X93675000Y-103625000D03*
%TO.N,/5vto3v3/d_3v3*%
X96225000Y-102300000D03*
%TO.N,/5vto3v3/e_3v3*%
X96925000Y-101300000D03*
%TO.N,/5vto3v3/D2_3v3*%
X94525000Y-99875000D03*
%TO.N,/5vto3v3/D1_3v3*%
X95425000Y-99150000D03*
%TO.N,Net-(DS1-C1-)*%
X88075000Y-121650000D03*
%TD*%
D40*
%TO.N,+3V3*%
X93300000Y-78625000D02*
X88075000Y-78625000D01*
D41*
X94100000Y-77825000D02*
X93300000Y-78625000D01*
X99475000Y-77825000D02*
X94100000Y-77825000D01*
X94175000Y-122300000D02*
X94175000Y-123550000D01*
X95425000Y-121050000D02*
X94175000Y-122300000D01*
X95425000Y-119025000D02*
X95425000Y-121050000D01*
X113980000Y-72420000D02*
X113980000Y-71025000D01*
X112175000Y-74225000D02*
X113980000Y-72420000D01*
X104775000Y-74225000D02*
X112175000Y-74225000D01*
%TO.N,GND*%
X110700000Y-77350000D02*
X113625000Y-74425000D01*
X104775000Y-77350000D02*
X110700000Y-77350000D01*
X111375000Y-64325000D02*
X110975000Y-64325000D01*
X113500000Y-66450000D02*
X111375000Y-64325000D01*
X113500000Y-68965000D02*
X113500000Y-66450000D01*
X111440000Y-71025000D02*
X113500000Y-68965000D01*
%TO.N,+3V3*%
X114100000Y-65525000D02*
X114100000Y-64325000D01*
X114950000Y-66375000D02*
X114100000Y-65525000D01*
X114950000Y-70055000D02*
X114950000Y-66375000D01*
X113980000Y-71025000D02*
X114950000Y-70055000D01*
D42*
%TO.N,GND*%
X103475000Y-63825000D02*
X103975000Y-64325000D01*
X101525000Y-63825000D02*
X103475000Y-63825000D01*
X103975000Y-64325000D02*
X110975000Y-64325000D01*
D41*
%TO.N,+3V3*%
X112400000Y-100100000D02*
X115400000Y-103100000D01*
X115400000Y-103100000D02*
X115400000Y-104125000D01*
X112400000Y-87100000D02*
X112400000Y-100100000D01*
X114830000Y-84670000D02*
X112400000Y-87100000D01*
X114830000Y-71875000D02*
X114830000Y-84670000D01*
X113980000Y-71025000D02*
X114830000Y-71875000D01*
D42*
%TO.N,VDD*%
X83270000Y-60700000D02*
X82475000Y-61495000D01*
X101525000Y-60700000D02*
X83270000Y-60700000D01*
%TO.N,+3V3*%
X114100000Y-64325000D02*
X114100000Y-58900000D01*
X114100000Y-58900000D02*
X115425000Y-57575000D01*
%TO.N,GND*%
X107650000Y-57575000D02*
X112925000Y-57575000D01*
D40*
X106600000Y-59862500D02*
X106600000Y-58625000D01*
D42*
X106600000Y-58625000D02*
X107650000Y-57575000D01*
D40*
%TO.N,VPP*%
X116520000Y-66970000D02*
X116520000Y-71025000D01*
X116450000Y-66900000D02*
X116520000Y-66970000D01*
X95800000Y-66900000D02*
X112325000Y-66900000D01*
D41*
%TO.N,+3V3*%
X94175000Y-130300000D02*
X94175000Y-123550000D01*
X92150000Y-132325000D02*
X94175000Y-130300000D01*
X67065000Y-107840000D02*
X68450000Y-107840000D01*
X65775000Y-106550000D02*
X67065000Y-107840000D01*
X66815000Y-102760000D02*
X65775000Y-103800000D01*
X65775000Y-103800000D02*
X65775000Y-106550000D01*
X68450000Y-102760000D02*
X66815000Y-102760000D01*
D40*
X83150000Y-132325000D02*
X76650000Y-132325000D01*
X91150000Y-131325000D02*
X84150000Y-131325000D01*
X84150000Y-131325000D02*
X83150000Y-132325000D01*
X92150000Y-132325000D02*
X91150000Y-131325000D01*
X92150000Y-132325000D02*
X98650000Y-132325000D01*
D41*
X96275000Y-118175000D02*
X95425000Y-119025000D01*
X96275000Y-109275000D02*
X96275000Y-118175000D01*
D40*
X96325000Y-109225000D02*
X96275000Y-109275000D01*
D41*
X73025000Y-98185000D02*
X73025000Y-96175000D01*
X68450000Y-102760000D02*
X73025000Y-98185000D01*
D40*
X73075000Y-96225000D02*
X73025000Y-96175000D01*
D41*
X76425000Y-96225000D02*
X73075000Y-96225000D01*
D43*
%TO.N,/5vto3v3/f_3v3*%
X90825000Y-101025000D02*
X93075000Y-98775000D01*
D40*
%TO.N,+3V3*%
X115375000Y-104125000D02*
X115400000Y-104125000D01*
X115350000Y-104100000D02*
X115375000Y-104125000D01*
X113980000Y-64445000D02*
X114100000Y-64325000D01*
D43*
%TO.N,GND*%
X71450000Y-118021948D02*
X73621948Y-115850000D01*
X73621948Y-115850000D02*
X75425000Y-115850000D01*
X71450000Y-118475000D02*
X71450000Y-118021948D01*
%TO.N,/5vto3v3/D4*%
X101400000Y-111175000D02*
X101386399Y-111175000D01*
X101400000Y-117250000D02*
X101400000Y-111175000D01*
%TO.N,/PIC16F887/15_mtr*%
X76375000Y-107477942D02*
X85200000Y-98652942D01*
X76375000Y-107550000D02*
X76375000Y-107477942D01*
X73975000Y-109950000D02*
X74600000Y-109325000D01*
X73902942Y-109950000D02*
X73975000Y-109950000D01*
%TO.N,/PIC16F887/20_mtr*%
X77375000Y-108850000D02*
X80950000Y-105275000D01*
X77375000Y-108825000D02*
X77375000Y-108850000D01*
X80950000Y-105275000D02*
X80950000Y-103468628D01*
X80950000Y-103468628D02*
X85600000Y-98818628D01*
X74275000Y-111925000D02*
X75700000Y-110500000D01*
X72800000Y-111925000D02*
X74275000Y-111925000D01*
D41*
%TO.N,Net-(U3-DC)*%
X79125000Y-111900000D02*
X79125000Y-121900000D01*
X72525000Y-105300000D02*
X79125000Y-111900000D01*
X68450000Y-105300000D02*
X72525000Y-105300000D01*
D43*
%TO.N,Net-(U3-A)*%
X59250000Y-99275000D02*
X62625000Y-95900000D01*
X59250000Y-102760000D02*
X59250000Y-99275000D01*
%TO.N,Net-(U4-RA2)*%
X63060000Y-92365000D02*
X67875000Y-92365000D01*
X62625000Y-92800000D02*
X63060000Y-92365000D01*
%TO.N,/Display/Dim_0*%
X80540000Y-93635000D02*
X73025000Y-93635000D01*
X84400000Y-89909314D02*
X84265686Y-89909314D01*
X84400000Y-77350000D02*
X84400000Y-89909314D01*
X87125000Y-74625000D02*
X84400000Y-77350000D01*
X84265686Y-89909314D02*
X80540000Y-93635000D01*
X88075000Y-74625000D02*
X87125000Y-74625000D01*
%TO.N,/Display/Dim_1*%
X79970000Y-94905000D02*
X73025000Y-94905000D01*
X84800000Y-90075000D02*
X79970000Y-94905000D01*
X87125000Y-75425000D02*
X84800000Y-77750000D01*
X84800000Y-77750000D02*
X84800000Y-90075000D01*
X88075000Y-75425000D02*
X87125000Y-75425000D01*
%TO.N,/PIC16F887/15_mtr*%
X87125000Y-76225000D02*
X88075000Y-76225000D01*
X85200000Y-78150000D02*
X87125000Y-76225000D01*
X85200000Y-98652942D02*
X85200000Y-78150000D01*
X69436029Y-109938971D02*
X69447058Y-109950000D01*
X67450000Y-111925000D02*
X69436029Y-109938971D01*
X69447058Y-109950000D02*
X73902942Y-109950000D01*
X54675000Y-111925000D02*
X67450000Y-111925000D01*
%TO.N,/PIC16F887/20_mtr*%
X87125000Y-77025000D02*
X88075000Y-77025000D01*
X85600000Y-98818628D02*
X85600000Y-78550000D01*
X72800000Y-111925000D02*
X72800000Y-111618628D01*
X85600000Y-78550000D02*
X87125000Y-77025000D01*
%TO.N,/PIC16F887/Band*%
X87250000Y-80225000D02*
X88075000Y-80225000D01*
X86000000Y-81475000D02*
X87250000Y-80225000D01*
X86000000Y-98984314D02*
X86000000Y-81475000D01*
X81350000Y-103634314D02*
X86000000Y-98984314D01*
X81350000Y-124015685D02*
X81350000Y-103634314D01*
X83150000Y-125815686D02*
X81350000Y-124015685D01*
X83150000Y-127825000D02*
X83150000Y-125815686D01*
X83150000Y-127825000D02*
X85100000Y-129775000D01*
X85100000Y-129775000D02*
X86350000Y-129775000D01*
X76650000Y-127825000D02*
X83150000Y-127825000D01*
%TO.N,/PIC16F887/Dim*%
X87125000Y-81025000D02*
X88075000Y-81025000D01*
X81750000Y-103800000D02*
X86400000Y-99150000D01*
X81750000Y-123850000D02*
X81750000Y-103800000D01*
X86400000Y-81750000D02*
X87125000Y-81025000D01*
X83125000Y-125225000D02*
X81750000Y-123850000D01*
X89550000Y-125225000D02*
X83125000Y-125225000D01*
X92150000Y-127825000D02*
X89550000Y-125225000D01*
X86400000Y-99150000D02*
X86400000Y-81750000D01*
X100600000Y-129775000D02*
X98650000Y-127825000D01*
X101900000Y-129775000D02*
X100600000Y-129775000D01*
%TO.N,Net-(Q1-C)*%
X72575000Y-118275000D02*
X73325000Y-117525000D01*
X72575000Y-122375000D02*
X72575000Y-118275000D01*
%TO.N,Net-(Q1-B)*%
X69700000Y-114825000D02*
X69700000Y-111925000D01*
X71450000Y-116575000D02*
X69700000Y-114825000D01*
D40*
%TO.N,GND*%
X62300000Y-118475000D02*
X71450000Y-118475000D01*
X59725000Y-115900000D02*
X62300000Y-118475000D01*
D43*
%TO.N,Net-(Q2-C)*%
X53450000Y-121450000D02*
X53450000Y-117525000D01*
X52525000Y-122375000D02*
X53450000Y-121450000D01*
%TO.N,Net-(Q2-B)*%
X51575000Y-111925000D02*
X51575000Y-116575000D01*
%TO.N,GND*%
X53696948Y-115900000D02*
X59725000Y-115900000D01*
X51575000Y-118475000D02*
X51575000Y-118021948D01*
X51575000Y-118021948D02*
X53696948Y-115900000D01*
%TO.N,Net-(J4-Pin_4)*%
X64725000Y-94900000D02*
X64730000Y-94905000D01*
X64730000Y-94905000D02*
X67875000Y-94905000D01*
X55650000Y-99975000D02*
X55650000Y-97725000D01*
X54630000Y-100995000D02*
X55650000Y-99975000D01*
X55650000Y-97725000D02*
X58475000Y-94900000D01*
X53000000Y-100995000D02*
X54630000Y-100995000D01*
%TO.N,Net-(J4-Pin_5)*%
X56200000Y-98425000D02*
X56200000Y-100335000D01*
X60875000Y-93750000D02*
X56200000Y-98425000D01*
X67760000Y-93750000D02*
X60875000Y-93750000D01*
X67875000Y-93635000D02*
X67760000Y-93750000D01*
X56200000Y-100335000D02*
X53000000Y-103535000D01*
D40*
%TO.N,Net-(J4-Pin_1)*%
X53000000Y-91875000D02*
X53000000Y-93375000D01*
X54275000Y-90600000D02*
X53000000Y-91875000D01*
X71260000Y-90600000D02*
X54275000Y-90600000D01*
X73025000Y-92365000D02*
X71260000Y-90600000D01*
%TO.N,GND*%
X69800001Y-95124999D02*
X69825000Y-95100000D01*
X69800000Y-95124999D02*
X69800001Y-95124999D01*
D41*
X68749999Y-96175000D02*
X69800000Y-95124999D01*
D40*
X65420000Y-87551306D02*
X65420000Y-87090000D01*
X67875000Y-96175000D02*
X68749999Y-96175000D01*
D41*
X68400000Y-96700000D02*
X67875000Y-96175000D01*
X68400000Y-99275000D02*
X68400000Y-96700000D01*
X62375000Y-105300000D02*
X68400000Y-99275000D01*
X59250000Y-105300000D02*
X62375000Y-105300000D01*
D40*
X59200000Y-105350000D02*
X59250000Y-105300000D01*
D41*
X56975000Y-105350000D02*
X59200000Y-105350000D01*
D40*
X85500000Y-133725000D02*
X79825000Y-133725000D01*
X86350000Y-132875000D02*
X85500000Y-133725000D01*
X101050000Y-133725000D02*
X87200000Y-133725000D01*
X87200000Y-133725000D02*
X86350000Y-132875000D01*
X101900000Y-132875000D02*
X101050000Y-133725000D01*
D43*
%TO.N,ICSPDAT*%
X108900000Y-69375000D02*
X108900000Y-71025000D01*
X106975000Y-67450000D02*
X108900000Y-69375000D01*
%TO.N,ICSPCLK*%
X105825000Y-67850000D02*
X106360000Y-68385000D01*
X94575000Y-70025000D02*
X96750000Y-67850000D01*
X96750000Y-67850000D02*
X105825000Y-67850000D01*
X106360000Y-68385000D02*
X106360000Y-71025000D01*
X94575000Y-72925000D02*
X94575000Y-70025000D01*
D41*
%TO.N,+3V3*%
X101175000Y-77825000D02*
X99475000Y-77825000D01*
X104775000Y-74225000D02*
X101175000Y-77825000D01*
D42*
X108100000Y-59775000D02*
X109550000Y-59775000D01*
X109550000Y-59775000D02*
X114100000Y-64325000D01*
D40*
%TO.N,R4.7*%
X69970000Y-87090000D02*
X69775000Y-86895000D01*
X70500000Y-87090000D02*
X69970000Y-87090000D01*
%TO.N,GND*%
X96675000Y-124550000D02*
X99175000Y-124550000D01*
D41*
X104775000Y-77350000D02*
X103500000Y-78625000D01*
D43*
X97650000Y-81750000D02*
X97650000Y-79425000D01*
D41*
X108375000Y-132875000D02*
X101900000Y-132875000D01*
X114075000Y-132325000D02*
X108925000Y-132325000D01*
D40*
X97650000Y-79425000D02*
X98450000Y-78625000D01*
X99175000Y-124550000D02*
X100175000Y-123550000D01*
D41*
X103500000Y-78625000D02*
X99475000Y-78625000D01*
D43*
X99475000Y-82625000D02*
X98525000Y-82625000D01*
X107025000Y-132875000D02*
X107575000Y-132325000D01*
D41*
X108925000Y-132325000D02*
X107575000Y-132325000D01*
D42*
X97130000Y-61820000D02*
X99135000Y-63825000D01*
D40*
X106600000Y-60675000D02*
X106600000Y-59862500D01*
X110975000Y-64325000D02*
X110250000Y-64325000D01*
X95675000Y-123550000D02*
X96675000Y-124550000D01*
D41*
X108925000Y-132325000D02*
X108375000Y-132875000D01*
D43*
X98525000Y-82625000D02*
X97650000Y-81750000D01*
D41*
X100175000Y-124925000D02*
X107575000Y-132325000D01*
D40*
X98450000Y-78625000D02*
X99475000Y-78625000D01*
D41*
X100175000Y-123550000D02*
X100175000Y-124925000D01*
D42*
X99135000Y-63825000D02*
X101525000Y-63825000D01*
D40*
X88075000Y-79425000D02*
X97650000Y-79425000D01*
%TO.N,R4.6*%
X70490000Y-79480000D02*
X69900000Y-79480000D01*
X69900000Y-79480000D02*
X69775000Y-79605000D01*
X70550000Y-75375000D02*
X70550000Y-78830000D01*
X70550000Y-78830000D02*
X69775000Y-79605000D01*
D43*
%TO.N,/5vto3v3/g_3v3*%
X89450000Y-101239950D02*
X84700000Y-105989950D01*
X92175000Y-84325000D02*
X92175000Y-86075000D01*
X84675000Y-110250000D02*
X84700000Y-110225000D01*
X92175000Y-86075000D02*
X89450000Y-88800000D01*
X84700000Y-105989950D02*
X84700000Y-110225000D01*
X89450000Y-88800000D02*
X89450000Y-101239950D01*
D40*
%TO.N,R2.7*%
X55260000Y-87090000D02*
X54740000Y-87090000D01*
X54740000Y-87090000D02*
X54540000Y-86890000D01*
%TO.N,R2.6*%
X55250000Y-79480000D02*
X54660000Y-79480000D01*
X55275000Y-75450000D02*
X55275000Y-78865000D01*
X54660000Y-79480000D02*
X54540000Y-79600000D01*
X55275000Y-78865000D02*
X54540000Y-79600000D01*
D43*
%TO.N,/5vto3v3/b_3v3*%
X90575000Y-85550000D02*
X90575000Y-84325000D01*
X87975000Y-100275000D02*
X87975000Y-88150000D01*
X83900000Y-104350000D02*
X87975000Y-100275000D01*
X87975000Y-88150000D02*
X90575000Y-85550000D01*
D40*
%TO.N,VDD*%
X69135000Y-52305000D02*
X80575000Y-52305000D01*
D42*
X101525000Y-60700000D02*
X104175000Y-60700000D01*
X104175000Y-60700000D02*
X105100000Y-59775000D01*
D40*
X80770000Y-54205000D02*
X80645000Y-54080000D01*
X67110000Y-54080000D02*
X67235000Y-54205000D01*
X80575000Y-52305000D02*
X82475000Y-54205000D01*
X82475000Y-54205000D02*
X80770000Y-54205000D01*
X65405000Y-54080000D02*
X67110000Y-54080000D01*
X67235000Y-54205000D02*
X69135000Y-52305000D01*
X67235000Y-54205000D02*
X67235000Y-61495000D01*
D42*
X82475000Y-54205000D02*
X82475000Y-61495000D01*
D43*
%TO.N,Net-(R7-Pad2)*%
X68525000Y-128500000D02*
X72450000Y-128500000D01*
X68325000Y-128400000D02*
X68425000Y-128400000D01*
X68425000Y-128400000D02*
X68525000Y-128500000D01*
%TO.N,ECa*%
X59750000Y-130425000D02*
X59725000Y-130400000D01*
X63325000Y-136500000D02*
X59750000Y-132925000D01*
X109945000Y-136525000D02*
X111120000Y-135350000D01*
X63325000Y-136500000D02*
X66625000Y-136500000D01*
X68775000Y-135675000D02*
X69625000Y-136525000D01*
X69625000Y-136525000D02*
X109945000Y-136525000D01*
X59750000Y-132925000D02*
X59750000Y-130425000D01*
%TO.N,ECb*%
X64725000Y-132775000D02*
X64750000Y-132800000D01*
X68969000Y-137019000D02*
X64750000Y-132800000D01*
X113660000Y-135350000D02*
X111991000Y-137019000D01*
X111991000Y-137019000D02*
X68969000Y-137019000D01*
X64725000Y-130400000D02*
X64725000Y-132775000D01*
D40*
%TO.N,R3.3*%
X78105000Y-54080000D02*
X77520000Y-54080000D01*
X77520000Y-54080000D02*
X77395000Y-54205000D01*
%TO.N,R3.4*%
X74980000Y-54080000D02*
X74855000Y-54205000D01*
X75565000Y-54080000D02*
X74980000Y-54080000D01*
%TO.N,R3.5*%
X73025000Y-54080000D02*
X72440000Y-54080000D01*
X72440000Y-54080000D02*
X72315000Y-54205000D01*
%TO.N,R3.6*%
X70485000Y-54080000D02*
X70485000Y-55282081D01*
X75450000Y-71350000D02*
X74275000Y-70175000D01*
X82850000Y-79230000D02*
X82850000Y-75450000D01*
X78750000Y-71350000D02*
X75450000Y-71350000D01*
X73527919Y-58325000D02*
X77425000Y-58325000D01*
X74275000Y-70175000D02*
X74275000Y-68800000D01*
X82475000Y-79605000D02*
X80775000Y-79605000D01*
X70485000Y-54080000D02*
X69900000Y-54080000D01*
X77425000Y-58470000D02*
X80655000Y-61700000D01*
X82475000Y-79605000D02*
X82850000Y-79230000D01*
X80775000Y-79605000D02*
X80650000Y-79480000D01*
X82850000Y-75450000D02*
X78763578Y-71363578D01*
X70485000Y-55282081D02*
X73527919Y-58325000D01*
X69900000Y-54080000D02*
X69775000Y-54205000D01*
X77425000Y-58325000D02*
X77425000Y-58470000D01*
X74275000Y-68800000D02*
X73675000Y-68200000D01*
X78763578Y-71363578D02*
X78750000Y-71350000D01*
%TO.N,R3.7*%
X76198654Y-73950000D02*
X72025000Y-69776346D01*
X70495000Y-61700000D02*
X69980000Y-61700000D01*
X79400000Y-83820000D02*
X79400000Y-76300000D01*
X72025000Y-69776346D02*
X71817878Y-69569224D01*
X77050000Y-73950000D02*
X76198654Y-73950000D01*
X69980000Y-61700000D02*
X69775000Y-61495000D01*
X82475000Y-86895000D02*
X79400000Y-83820000D01*
X79400000Y-76300000D02*
X77050000Y-73950000D01*
X71817878Y-69569224D02*
X71817878Y-66307122D01*
%TO.N,R3.8*%
X73035000Y-61700000D02*
X72520000Y-61700000D01*
X72520000Y-61700000D02*
X72315000Y-61495000D01*
%TO.N,R3.9*%
X75060000Y-61700000D02*
X74855000Y-61495000D01*
X75575000Y-61700000D02*
X75060000Y-61700000D01*
%TO.N,R3.10*%
X77600000Y-61700000D02*
X77395000Y-61495000D01*
X78115000Y-61700000D02*
X77600000Y-61700000D01*
%TO.N,R4.3*%
X78110000Y-79480000D02*
X77520000Y-79480000D01*
X77520000Y-79480000D02*
X77395000Y-79605000D01*
%TO.N,R4.4*%
X75570000Y-79480000D02*
X74980000Y-79480000D01*
X74980000Y-79480000D02*
X74855000Y-79605000D01*
%TO.N,R4.5*%
X73030000Y-79480000D02*
X72440000Y-79480000D01*
X72440000Y-79480000D02*
X72315000Y-79605000D01*
%TO.N,R4.8*%
X73040000Y-87090000D02*
X72510000Y-87090000D01*
X72510000Y-87090000D02*
X72315000Y-86895000D01*
%TO.N,R4.9*%
X75050000Y-87090000D02*
X74855000Y-86895000D01*
X75580000Y-87090000D02*
X75050000Y-87090000D01*
%TO.N,R4.10*%
X78120000Y-87090000D02*
X77590000Y-87090000D01*
X77590000Y-87090000D02*
X77395000Y-86895000D01*
%TO.N,R1.6*%
X67240000Y-79600000D02*
X65530000Y-79600000D01*
X63000000Y-57900000D02*
X65415000Y-60315000D01*
X65415000Y-60315000D02*
X65415000Y-61700000D01*
X67240000Y-79600000D02*
X67825000Y-79015000D01*
X67825000Y-73575000D02*
X65300000Y-71050000D01*
X65300000Y-71050000D02*
X65300000Y-67374500D01*
X55245000Y-55282081D02*
X57862919Y-57900000D01*
X55245000Y-54080000D02*
X55245000Y-55282081D01*
X54660000Y-54080000D02*
X54535000Y-54205000D01*
X65530000Y-79600000D02*
X65410000Y-79480000D01*
X67825000Y-79015000D02*
X67825000Y-73575000D01*
X55245000Y-54080000D02*
X54660000Y-54080000D01*
X57862919Y-57900000D02*
X63000000Y-57900000D01*
%TO.N,R2.3*%
X62280000Y-79480000D02*
X62160000Y-79600000D01*
X62870000Y-79480000D02*
X62280000Y-79480000D01*
%TO.N,R2.4*%
X60330000Y-79480000D02*
X59740000Y-79480000D01*
X59740000Y-79480000D02*
X59620000Y-79600000D01*
%TO.N,R2.5*%
X57790000Y-79480000D02*
X57200000Y-79480000D01*
X57200000Y-79480000D02*
X57080000Y-79600000D01*
%TO.N,R2.8*%
X57800000Y-87090000D02*
X57280000Y-87090000D01*
X57280000Y-87090000D02*
X57080000Y-86890000D01*
%TO.N,R2.9*%
X60340000Y-87090000D02*
X59820000Y-87090000D01*
X59820000Y-87090000D02*
X59620000Y-86890000D01*
%TO.N,R2.10*%
X62360000Y-87090000D02*
X62160000Y-86890000D01*
X62880000Y-87090000D02*
X62360000Y-87090000D01*
%TO.N,R1.7*%
X55825000Y-68426346D02*
X55825000Y-62270000D01*
X55825000Y-62270000D02*
X55255000Y-61700000D01*
X64160000Y-83810000D02*
X64160000Y-75910000D01*
X67240000Y-86890000D02*
X64160000Y-83810000D01*
X64160000Y-75910000D02*
X62175000Y-73925000D01*
X54740000Y-61700000D02*
X54535000Y-61495000D01*
X55255000Y-61700000D02*
X54740000Y-61700000D01*
X62175000Y-73925000D02*
X61323654Y-73925000D01*
X61323654Y-73925000D02*
X55825000Y-68426346D01*
%TO.N,R1.3*%
X62865000Y-54080000D02*
X62280000Y-54080000D01*
X62280000Y-54080000D02*
X62155000Y-54205000D01*
%TO.N,R1.4*%
X60325000Y-54080000D02*
X59740000Y-54080000D01*
X59740000Y-54080000D02*
X59615000Y-54205000D01*
%TO.N,R1.5*%
X57200000Y-54080000D02*
X57075000Y-54205000D01*
X57785000Y-54080000D02*
X57200000Y-54080000D01*
%TO.N,R1.8*%
X57280000Y-61700000D02*
X57075000Y-61495000D01*
X57795000Y-61700000D02*
X57280000Y-61700000D01*
%TO.N,R1.9*%
X60335000Y-62902081D02*
X61572431Y-64139512D01*
X61572431Y-64139512D02*
X90376988Y-64139512D01*
X60335000Y-61700000D02*
X59820000Y-61700000D01*
X90376988Y-64139512D02*
X92050000Y-62466500D01*
X60335000Y-61700000D02*
X60335000Y-62902081D01*
X59820000Y-61700000D02*
X59615000Y-61495000D01*
%TO.N,R1.10*%
X62360000Y-61700000D02*
X62155000Y-61495000D01*
X62875000Y-61700000D02*
X62360000Y-61700000D01*
%TO.N,VPP*%
X92975000Y-69725000D02*
X95800000Y-66900000D01*
X92975000Y-72925000D02*
X92975000Y-69725000D01*
D43*
%TO.N,ICSPDAT*%
X93775000Y-69750000D02*
X96075000Y-67450000D01*
X93775000Y-72925000D02*
X93775000Y-69750000D01*
X96075000Y-67450000D02*
X106975000Y-67450000D01*
%TO.N,/5vto3v3/e*%
X100960000Y-135350000D02*
X101590635Y-135350000D01*
%TO.N,SW*%
X74225000Y-127125000D02*
X72575000Y-125475000D01*
X107575000Y-127825000D02*
X114075000Y-127825000D01*
X74225000Y-133375000D02*
X72450000Y-131600000D01*
X74225000Y-133375000D02*
X74225000Y-127125000D01*
X72575000Y-125475000D02*
X52525000Y-125475000D01*
X78100000Y-135350000D02*
X76200000Y-135350000D01*
X76200000Y-135350000D02*
X74225000Y-133375000D01*
D40*
%TO.N,Net-(Q3-B)*%
X53150000Y-70725000D02*
X55275000Y-72850000D01*
X53150000Y-68055000D02*
X53150000Y-70725000D01*
X54530000Y-66675000D02*
X53150000Y-68055000D01*
%TO.N,Dah*%
X103505000Y-97027100D02*
X103505000Y-97250000D01*
%TO.N,Net-(Q4-B)*%
X61800000Y-72775000D02*
X63405000Y-72775000D01*
X63405000Y-72775000D02*
X66625000Y-75995000D01*
%TO.N,Net-(Q5-B)*%
X69230001Y-71455001D02*
X70550000Y-72775000D01*
X69230001Y-67474999D02*
X69230001Y-71455001D01*
X70030000Y-66675000D02*
X69230001Y-67474999D01*
%TO.N,Net-(Q6-B)*%
X78430000Y-72800000D02*
X81650000Y-76020000D01*
X76675000Y-72800000D02*
X78430000Y-72800000D01*
D43*
%TO.N,/5vto3v3/a_3v3*%
X86850000Y-99875000D02*
X82625000Y-104100000D01*
X87125000Y-81825000D02*
X86850000Y-82100000D01*
X88075000Y-81825000D02*
X87125000Y-81825000D01*
X86850000Y-82100000D02*
X86850000Y-99875000D01*
%TO.N,/5vto3v3/c_3v3*%
X88875000Y-100825000D02*
X88875000Y-88475000D01*
X88875000Y-88475000D02*
X91375000Y-85975000D01*
X91375000Y-85975000D02*
X91375000Y-84325000D01*
X85250000Y-104450000D02*
X88875000Y-100825000D01*
%TO.N,/5vto3v3/f_3v3*%
X96200000Y-86825000D02*
X96175000Y-86800000D01*
X96175000Y-86800000D02*
X96175000Y-84325000D01*
%TO.N,/5vto3v3/D3_3v3*%
X92975000Y-84325000D02*
X92975000Y-86150000D01*
X90125000Y-89000000D02*
X90125000Y-103225000D01*
X90125000Y-103225000D02*
X88450000Y-104900000D01*
X92975000Y-86150000D02*
X90125000Y-89000000D01*
%TO.N,/5vto3v3/D4_3v3*%
X93775000Y-103525000D02*
X93775000Y-84325000D01*
X93675000Y-103625000D02*
X93775000Y-103525000D01*
%TO.N,/5vto3v3/d_3v3*%
X96975000Y-87625000D02*
X96225000Y-88375000D01*
X96975000Y-84325000D02*
X96975000Y-87625000D01*
X96225000Y-88375000D02*
X96225000Y-102300000D01*
%TO.N,/5vto3v3/e_3v3*%
X96925000Y-101300000D02*
X96925000Y-88625000D01*
X96925000Y-88625000D02*
X97775000Y-87775000D01*
X97775000Y-87775000D02*
X97775000Y-84325000D01*
%TO.N,/5vto3v3/D2_3v3*%
X94575000Y-99825000D02*
X94575000Y-84325000D01*
X94525000Y-99875000D02*
X94575000Y-99825000D01*
%TO.N,/5vto3v3/D1_3v3*%
X95375000Y-99100000D02*
X95375000Y-84325000D01*
X95425000Y-99150000D02*
X95375000Y-99100000D01*
%TO.N,/Display/RST*%
X105717000Y-84717000D02*
X100425000Y-79425000D01*
X105717000Y-121008000D02*
X105717000Y-84717000D01*
X103175000Y-123550000D02*
X105717000Y-121008000D01*
X100425000Y-79425000D02*
X99475000Y-79425000D01*
%TO.N,/Display/RS*%
X101675000Y-122701472D02*
X104975000Y-119401472D01*
X104975000Y-119401472D02*
X104975000Y-84775000D01*
X100425000Y-80225000D02*
X99475000Y-80225000D01*
X101675000Y-123550000D02*
X101675000Y-122701472D01*
X104975000Y-84775000D02*
X100425000Y-80225000D01*
%TO.N,Net-(DS1-C1-)*%
X88075000Y-121950000D02*
X89675000Y-123550000D01*
X88075000Y-121650000D02*
X88075000Y-121950000D01*
%TO.N,/Display/SCL*%
X100425000Y-81025000D02*
X102115000Y-82715000D01*
X102115000Y-120110000D02*
X98675000Y-123550000D01*
X99475000Y-81025000D02*
X100425000Y-81025000D01*
X102115000Y-82715000D02*
X102115000Y-120110000D01*
%TO.N,/Display/SI*%
X99815000Y-120910000D02*
X97175000Y-123550000D01*
X99815000Y-96760000D02*
X99815000Y-120910000D01*
X99475000Y-81825000D02*
X100425000Y-81825000D01*
X101650000Y-94925000D02*
X99815000Y-96760000D01*
X100425000Y-81825000D02*
X101650000Y-83050000D01*
X101650000Y-83050000D02*
X101650000Y-94925000D01*
%TO.N,/PIC16F887/R12s*%
X62150000Y-66675000D02*
X67450000Y-66675000D01*
X69275000Y-64850000D02*
X72225000Y-64850000D01*
X79100000Y-69700000D02*
X88300000Y-69700000D01*
X90575000Y-71975000D02*
X90575000Y-72925000D01*
X72225000Y-64850000D02*
X75325000Y-67950000D01*
X75325000Y-67950000D02*
X77350000Y-67950000D01*
X67450000Y-66675000D02*
X69275000Y-64850000D01*
X77350000Y-67950000D02*
X79100000Y-69700000D01*
X88300000Y-69700000D02*
X90575000Y-71975000D01*
%TO.N,/PIC16F887/R12r*%
X71767110Y-65267110D02*
X74975000Y-68475000D01*
X78825000Y-70425000D02*
X88150000Y-70425000D01*
X89775000Y-72050000D02*
X89775000Y-72925000D01*
X88150000Y-70425000D02*
X89775000Y-72050000D01*
X66625000Y-68375000D02*
X69732890Y-65267110D01*
X74975000Y-68475000D02*
X76875000Y-68475000D01*
X69732890Y-65267110D02*
X71767110Y-65267110D01*
X76875000Y-68475000D02*
X78825000Y-70425000D01*
%TO.N,/PIC16F887/R34s*%
X85950000Y-66675000D02*
X87700000Y-68425000D01*
X87700000Y-68425000D02*
X88625000Y-68425000D01*
X77650000Y-66675000D02*
X85950000Y-66675000D01*
X88625000Y-68425000D02*
X92175000Y-71975000D01*
X92175000Y-71975000D02*
X92175000Y-72925000D01*
%TO.N,/PIC16F887/R34r*%
X86750000Y-68400000D02*
X87320343Y-68970343D01*
X81650000Y-68400000D02*
X86750000Y-68400000D01*
X91375000Y-71975000D02*
X91375000Y-72925000D01*
X87320343Y-68970343D02*
X88370343Y-68970343D01*
X88370343Y-68970343D02*
X91375000Y-71975000D01*
%TD*%
M02*
