%TF.GenerationSoftware,KiCad,Pcbnew,7.0.10*%
%TF.CreationDate,2024-01-22T19:43:49-08:00*%
%TF.ProjectId,Relay_LCD k7,52656c61-795f-44c4-9344-206b372e6b69,rev?*%
%TF.SameCoordinates,Original*%
%TF.FileFunction,Soldermask,Bot*%
%TF.FilePolarity,Negative*%
%FSLAX46Y46*%
G04 Gerber Fmt 4.6, Leading zero omitted, Abs format (unit mm)*
G04 Created by KiCad (PCBNEW 7.0.10) date 2024-01-22 19:43:49*
%MOMM*%
%LPD*%
G01*
G04 APERTURE LIST*
G04 Aperture macros list*
%AMRoundRect*
0 Rectangle with rounded corners*
0 $1 Rounding radius*
0 $2 $3 $4 $5 $6 $7 $8 $9 X,Y pos of 4 corners*
0 Add a 4 corners polygon primitive as box body*
4,1,4,$2,$3,$4,$5,$6,$7,$8,$9,$2,$3,0*
0 Add four circle primitives for the rounded corners*
1,1,$1+$1,$2,$3*
1,1,$1+$1,$4,$5*
1,1,$1+$1,$6,$7*
1,1,$1+$1,$8,$9*
0 Add four rect primitives between the rounded corners*
20,1,$1+$1,$2,$3,$4,$5,0*
20,1,$1+$1,$4,$5,$6,$7,0*
20,1,$1+$1,$6,$7,$8,$9,0*
20,1,$1+$1,$8,$9,$2,$3,0*%
G04 Aperture macros list end*
%ADD10O,1.700000X1.700000*%
%ADD11R,1.700000X1.700000*%
%ADD12C,2.000000*%
%ADD13R,2.800000X3.600000*%
%ADD14C,3.016000*%
%ADD15C,1.600000*%
%ADD16O,1.600000X1.600000*%
%ADD17C,3.300000*%
%ADD18R,1.600000X1.600000*%
%ADD19R,1.500000X1.500000*%
%ADD20C,1.500000*%
%ADD21C,2.655000*%
%ADD22C,1.200000*%
%ADD23R,1.200000X1.200000*%
%ADD24C,1.000000*%
%ADD25R,1.398000X1.398000*%
%ADD26C,1.398000*%
%ADD27C,3.015000*%
%ADD28RoundRect,0.250000X0.625000X-0.400000X0.625000X0.400000X-0.625000X0.400000X-0.625000X-0.400000X0*%
%ADD29RoundRect,0.250000X0.412500X0.650000X-0.412500X0.650000X-0.412500X-0.650000X0.412500X-0.650000X0*%
%ADD30RoundRect,0.250000X-0.650000X0.412500X-0.650000X-0.412500X0.650000X-0.412500X0.650000X0.412500X0*%
%ADD31RoundRect,0.150000X0.150000X-0.837500X0.150000X0.837500X-0.150000X0.837500X-0.150000X-0.837500X0*%
G04 APERTURE END LIST*
D10*
%TO.C,J2*%
X103820000Y-71025000D03*
X106360000Y-71025000D03*
X108900000Y-71025000D03*
X111440000Y-71025000D03*
X113980000Y-71025000D03*
D11*
X116520000Y-71025000D03*
%TD*%
D12*
%TO.C,S1*%
X59725000Y-115900000D03*
X64725000Y-115900000D03*
D13*
X56525000Y-122900000D03*
X67925000Y-122900000D03*
D12*
X59725000Y-130400000D03*
X64725000Y-130400000D03*
X62225000Y-130400000D03*
%TD*%
D14*
%TO.C,CON1*%
X115825000Y-88007100D03*
X112325000Y-83507100D03*
X107525000Y-93007100D03*
%TD*%
D11*
%TO.C,J7*%
X55260000Y-87090000D03*
D10*
X57800000Y-87090000D03*
X60340000Y-87090000D03*
X62880000Y-87090000D03*
X65420000Y-87090000D03*
%TD*%
D11*
%TO.C,J13*%
X80645000Y-54080000D03*
D10*
X78105000Y-54080000D03*
X75565000Y-54080000D03*
X73025000Y-54080000D03*
X70485000Y-54080000D03*
%TD*%
D11*
%TO.C,J1*%
X116200000Y-135350000D03*
D10*
X113660000Y-135350000D03*
X111120000Y-135350000D03*
X108580000Y-135350000D03*
X106040000Y-135350000D03*
X103500000Y-135350000D03*
X100960000Y-135350000D03*
X98420000Y-135350000D03*
X95880000Y-135350000D03*
X93340000Y-135350000D03*
X90800000Y-135350000D03*
X88260000Y-135350000D03*
X85720000Y-135350000D03*
X83180000Y-135350000D03*
X80640000Y-135350000D03*
X78100000Y-135350000D03*
%TD*%
D15*
%TO.C,R10*%
X62150000Y-66675000D03*
D16*
X54530000Y-66675000D03*
%TD*%
D11*
%TO.C,J12*%
X65410000Y-79480000D03*
D10*
X62870000Y-79480000D03*
X60330000Y-79480000D03*
X57790000Y-79480000D03*
X55250000Y-79480000D03*
%TD*%
D11*
%TO.C,J8*%
X70495000Y-61700000D03*
D10*
X73035000Y-61700000D03*
X75575000Y-61700000D03*
X78115000Y-61700000D03*
X80655000Y-61700000D03*
%TD*%
D15*
%TO.C,R13*%
X81650000Y-68400000D03*
D16*
X81650000Y-76020000D03*
%TD*%
D11*
%TO.C,J9*%
X70500000Y-87090000D03*
D10*
X73040000Y-87090000D03*
X75580000Y-87090000D03*
X78120000Y-87090000D03*
X80660000Y-87090000D03*
%TD*%
D17*
%TO.C,REF\u002A\u002A*%
X107310000Y-52600000D03*
%TD*%
D15*
%TO.C,C2*%
X59750000Y-132925000D03*
X59750000Y-135425000D03*
%TD*%
%TO.C,R11*%
X66625000Y-68375000D03*
D16*
X66625000Y-75995000D03*
%TD*%
D15*
%TO.C,C11*%
X112925000Y-57575000D03*
D18*
X115425000Y-57575000D03*
%TD*%
D19*
%TO.C,Q5*%
X70550000Y-70175000D03*
D20*
X70550000Y-72775000D03*
X70550000Y-75375000D03*
%TD*%
D12*
%TO.C,SW2*%
X83150000Y-132325000D03*
X76650000Y-132325000D03*
X83150000Y-127825000D03*
X76650000Y-127825000D03*
%TD*%
D15*
%TO.C,R12*%
X77650000Y-66675000D03*
D16*
X70030000Y-66675000D03*
%TD*%
D21*
%TO.C,DS1*%
X113725000Y-121900000D03*
X79125000Y-121900000D03*
D22*
X89675000Y-123550000D03*
X91175000Y-123550000D03*
X92675000Y-123550000D03*
X94175000Y-123550000D03*
X95675000Y-123550000D03*
X97175000Y-123550000D03*
X98675000Y-123550000D03*
X100175000Y-123550000D03*
X101675000Y-123550000D03*
D23*
X103175000Y-123550000D03*
D24*
X116525000Y-123850000D03*
X116525000Y-100750000D03*
X76325000Y-123850000D03*
X76325000Y-100750000D03*
%TD*%
D25*
%TO.C,J10*%
X92050000Y-62466500D03*
D26*
X89510000Y-62466500D03*
D27*
X86970000Y-57386500D03*
X97130000Y-57386500D03*
%TD*%
D11*
%TO.C,J14*%
X80650000Y-79480000D03*
D10*
X78110000Y-79480000D03*
X75570000Y-79480000D03*
X73030000Y-79480000D03*
X70490000Y-79480000D03*
%TD*%
D19*
%TO.C,Q3*%
X55275000Y-70250000D03*
D20*
X55275000Y-72850000D03*
X55275000Y-75450000D03*
%TD*%
D15*
%TO.C,C4*%
X64750000Y-132800000D03*
X64750000Y-135300000D03*
%TD*%
D12*
%TO.C,SW1*%
X114075000Y-132325000D03*
X107575000Y-132325000D03*
X114075000Y-127825000D03*
X107575000Y-127825000D03*
%TD*%
D11*
%TO.C,J3*%
X98425000Y-97250000D03*
D10*
X100965000Y-97250000D03*
X103505000Y-97250000D03*
%TD*%
D12*
%TO.C,SW3*%
X98650000Y-132325000D03*
X92150000Y-132325000D03*
X98650000Y-127825000D03*
X92150000Y-127825000D03*
%TD*%
D11*
%TO.C,J11*%
X65405000Y-54080000D03*
D10*
X62865000Y-54080000D03*
X60325000Y-54080000D03*
X57785000Y-54080000D03*
X55245000Y-54080000D03*
%TD*%
D11*
%TO.C,J4*%
X53000000Y-93375000D03*
D10*
X53000000Y-95915000D03*
X53000000Y-98455000D03*
X53000000Y-100995000D03*
X53000000Y-103535000D03*
X53000000Y-106075000D03*
%TD*%
D19*
%TO.C,Q6*%
X76675000Y-70200000D03*
D20*
X76675000Y-72800000D03*
X76675000Y-75400000D03*
%TD*%
D19*
%TO.C,Q4*%
X61800000Y-70175000D03*
D20*
X61800000Y-72775000D03*
X61800000Y-75375000D03*
%TD*%
D11*
%TO.C,J6*%
X55255000Y-61700000D03*
D10*
X57795000Y-61700000D03*
X60335000Y-61700000D03*
X62875000Y-61700000D03*
X65415000Y-61700000D03*
%TD*%
D28*
%TO.C,R9*%
X115600000Y-118625000D03*
X115600000Y-115525000D03*
%TD*%
D29*
%TO.C,C6*%
X91212500Y-120025000D03*
X88087500Y-120025000D03*
%TD*%
%TO.C,C7*%
X96962500Y-120000000D03*
X93837500Y-120000000D03*
%TD*%
D30*
%TO.C,C1*%
X93450000Y-112350000D03*
X93450000Y-109225000D03*
%TD*%
%TO.C,C3*%
X115600000Y-110075000D03*
X115600000Y-106950000D03*
%TD*%
D31*
%TO.C,U1*%
X91000000Y-107206774D03*
X89730000Y-107206774D03*
X88460000Y-107206774D03*
X87190000Y-107206774D03*
X85920000Y-107206774D03*
X84650000Y-107206774D03*
X83380000Y-107206774D03*
X82110000Y-107206774D03*
X80840000Y-107206774D03*
X79570000Y-107206774D03*
X79570000Y-114131774D03*
X80840000Y-114131774D03*
X82110000Y-114131774D03*
X83380000Y-114131774D03*
X84650000Y-114131774D03*
X85920000Y-114131774D03*
X87190000Y-114131774D03*
X88460000Y-114131774D03*
X89730000Y-114131774D03*
X91000000Y-114131774D03*
%TD*%
%TO.C,U2*%
X112846399Y-107181774D03*
X111576399Y-107181774D03*
X110306399Y-107181774D03*
X109036399Y-107181774D03*
X107766399Y-107181774D03*
X106496399Y-107181774D03*
X105226399Y-107181774D03*
X103956399Y-107181774D03*
X102686399Y-107181774D03*
X101416399Y-107181774D03*
X101416399Y-114106774D03*
X102686399Y-114106774D03*
X103956399Y-114106774D03*
X105226399Y-114106774D03*
X106496399Y-114106774D03*
X107766399Y-114106774D03*
X109036399Y-114106774D03*
X110306399Y-114106774D03*
X111576399Y-114106774D03*
X112846399Y-114106774D03*
%TD*%
M02*
