M48
; DRILL file {KiCad 7.0.10} date Mon Jan 22 19:43:41 2024
; FORMAT={-:-/ absolute / metric / decimal}
; #@! TF.CreationDate,2024-01-22T19:43:41-08:00
; #@! TF.GenerationSoftware,Kicad,Pcbnew,7.0.10
; #@! TF.FileFunction,Plated,1,2,PTH
FMAT,2
METRIC
; #@! TA.AperFunction,Plated,PTH,ViaDrill
T1C0.400
; #@! TA.AperFunction,Plated,PTH,ComponentDrill
T2C0.700
; #@! TA.AperFunction,Plated,PTH,ComponentDrill
T3C0.800
; #@! TA.AperFunction,Plated,PTH,ComponentDrill
T4C0.890
; #@! TA.AperFunction,Plated,PTH,ComponentDrill
T5C0.900
; #@! TA.AperFunction,Plated,PTH,ComponentDrill
T6C1.000
; #@! TA.AperFunction,Plated,PTH,ComponentDrill
T7C1.100
; #@! TA.AperFunction,Plated,PTH,ComponentDrill
T8C1.770
; #@! TA.AperFunction,Plated,PTH,ComponentDrill
T9C2.000
; #@! TA.AperFunction,Plated,PTH,ComponentDrill
T10C2.010
; #@! TA.AperFunction,Plated,PTH,ComponentDrill
T11C2.600
%
G90
G05
T1
X56.975Y-105.35
X58.475Y-94.9
X64.725Y-94.9
X65.3Y-67.374
X66.625Y-136.5
X68.325Y-128.4
X68.75Y-135.7
X69.825Y-95.1
X71.818Y-66.307
X73.675Y-68.2
X74.6Y-109.325
X75.425Y-115.85
X75.7Y-110.5
X76.375Y-107.55
X76.425Y-96.225
X77.375Y-108.825
X79.825Y-133.725
X82.625Y-104.1
X83.9Y-104.35
X84.7Y-110.225
X85.25Y-104.45
X88.075Y-121.65
X88.45Y-104.9
X90.825Y-101.025
X93.075Y-98.775
X93.3Y-78.625
X93.675Y-103.625
X94.525Y-99.875
X95.425Y-99.15
X96.2Y-86.825
X96.225Y-102.3
X96.325Y-109.225
X96.925Y-101.3
X97.13Y-61.82
X101.386Y-111.175
X101.4Y-117.25
X112.325Y-66.9
X113.625Y-74.425
X115.4Y-104.125
X116.45Y-66.9
T2
X89.675Y-123.55
X91.175Y-123.55
X92.675Y-123.55
X94.175Y-123.55
X95.675Y-123.55
X97.175Y-123.55
X98.675Y-123.55
X100.175Y-123.55
X101.675Y-123.55
X103.175Y-123.55
T3
X54.53Y-66.675
X59.75Y-132.925
X59.75Y-135.425
X62.15Y-66.675
X64.75Y-132.8
X64.75Y-135.3
X66.625Y-68.375
X66.625Y-75.995
X70.03Y-66.675
X77.65Y-66.675
X81.65Y-68.4
X81.65Y-76.02
X112.925Y-57.575
X115.425Y-57.575
T4
X89.51Y-62.466
X92.05Y-62.466
T5
X55.275Y-70.25
X55.275Y-72.85
X55.275Y-75.45
X61.8Y-70.175
X61.8Y-72.775
X61.8Y-75.375
X70.55Y-70.175
X70.55Y-72.775
X70.55Y-75.375
X76.675Y-70.2
X76.675Y-72.8
X76.675Y-75.4
T6
X53.0Y-93.375
X53.0Y-95.915
X53.0Y-98.455
X53.0Y-100.995
X53.0Y-103.535
X53.0Y-106.075
X55.245Y-54.08
X55.25Y-79.48
X55.255Y-61.7
X55.26Y-87.09
X57.785Y-54.08
X57.79Y-79.48
X57.795Y-61.7
X57.8Y-87.09
X59.725Y-115.9
X59.725Y-130.4
X60.325Y-54.08
X60.33Y-79.48
X60.335Y-61.7
X60.34Y-87.09
X62.225Y-130.4
X62.865Y-54.08
X62.87Y-79.48
X62.875Y-61.7
X62.88Y-87.09
X64.725Y-115.9
X64.725Y-130.4
X65.405Y-54.08
X65.41Y-79.48
X65.415Y-61.7
X65.42Y-87.09
X70.485Y-54.08
X70.49Y-79.48
X70.495Y-61.7
X70.5Y-87.09
X73.025Y-54.08
X73.03Y-79.48
X73.035Y-61.7
X73.04Y-87.09
X75.565Y-54.08
X75.57Y-79.48
X75.575Y-61.7
X75.58Y-87.09
X78.1Y-135.35
X78.105Y-54.08
X78.11Y-79.48
X78.115Y-61.7
X78.12Y-87.09
X80.64Y-135.35
X80.645Y-54.08
X80.65Y-79.48
X80.655Y-61.7
X80.66Y-87.09
X83.18Y-135.35
X85.72Y-135.35
X88.26Y-135.35
X90.8Y-135.35
X93.34Y-135.35
X95.88Y-135.35
X98.42Y-135.35
X98.425Y-97.25
X100.96Y-135.35
X100.965Y-97.25
X103.5Y-135.35
X103.505Y-97.25
X103.82Y-71.025
X106.04Y-135.35
X106.36Y-71.025
X108.58Y-135.35
X108.9Y-71.025
X111.12Y-135.35
X111.44Y-71.025
X113.66Y-135.35
X113.98Y-71.025
X116.2Y-135.35
X116.52Y-71.025
T7
X76.65Y-127.825
X76.65Y-132.325
X83.15Y-127.825
X83.15Y-132.325
X92.15Y-127.825
X92.15Y-132.325
X98.65Y-127.825
X98.65Y-132.325
X107.575Y-127.825
X107.575Y-132.325
X114.075Y-127.825
X114.075Y-132.325
T8
X79.125Y-121.9
X113.725Y-121.9
T9
X107.525Y-93.007
X112.325Y-83.507
X115.825Y-88.007
T10
X86.97Y-57.386
X97.13Y-57.386
T11
X56.525Y-122.9
X67.925Y-122.9
M30
